
<svg width="90px" height="104px" viewBox="0 0 90 104" version="1.1" xmlns="http://www.w3.org/2000/svg" xmlns:xlink="http://www.w3.org/1999/xlink">
    <defs></defs>
    <g id="Welcome" stroke="#2B4C49" stroke-width="1.25" fill="none" fill-rule="evenodd">
        <g id="Desktop" transform="translate(-481.000000, -7679.000000)" fill-rule="nonzero" fill="#2B4C49">
            <g id="noun_1396435_cc" transform="translate(481.000000, 7679.000000)">
                <g id="Group">
                    <path d="M49.4599303,74.23 C50.0757182,74.23 50.5749129,73.700882 50.5749129,73.0481818 L50.5749129,69.9754545 C63.6758012,69.3394793 74.1505362,58.2060859 74.7142857,44.3181818 L77.6689895,44.3181818 C78.2847774,44.3181818 78.7839721,43.7890638 78.7839721,43.1363636 C78.7839721,42.4836635 78.2847774,41.9545455 77.6689895,41.9545455 L74.6919861,41.9545455 C74.2337388,28.0309015 63.7098104,16.8451929 50.5749129,16.3209091 L50.5749129,13.2245455 C50.5749129,12.5718453 50.0757182,12.0427273 49.4599303,12.0427273 C48.8441424,12.0427273 48.3449477,12.5718453 48.3449477,13.2245455 L48.3449477,16.2972727 C35.2647759,16.987294 24.8152623,28.0887524 24.1944251,41.9545455 L21.2397213,41.9545455 C20.6239334,41.9545455 20.1247387,42.4836635 20.1247387,43.1363636 C20.1247387,43.7890638 20.6239334,44.3181818 21.2397213,44.3181818 L24.1944251,44.3181818 C24.7586144,58.2104103 35.239705,69.3454157 48.3449477,69.9754545 L48.3449477,73.0481818 C48.3449477,73.3616195 48.4624188,73.6622196 48.6715186,73.8838535 C48.8806184,74.1054874 49.1642185,74.23 49.4599303,74.23 Z M43.71777,41.9545455 L38.3658537,41.9545455 C38.9010329,36.366769 43.072583,31.9501033 48.3449477,31.3890909 L48.3449477,37.0618182 C48.3449477,37.7145183 48.8441424,38.2436364 49.4599303,38.2436364 C50.0757182,38.2436364 50.5749129,37.7145183 50.5749129,37.0618182 L50.5749129,31.3890909 C55.8429329,31.9553689 60.008604,36.3707435 60.5428571,41.9545455 L55.1909408,41.9545455 C54.5751529,41.9545455 54.0759582,42.4836635 54.0759582,43.1363636 C54.0759582,43.7890638 54.5751529,44.3181818 55.1909408,44.3181818 L60.5428571,44.3181818 C60.008604,49.9019837 55.8429329,54.3173583 50.5749129,54.8836364 L50.5749129,49.2109091 C50.5749129,48.5582089 50.0757182,48.0290909 49.4599303,48.0290909 C48.8441424,48.0290909 48.3449477,48.5582089 48.3449477,49.2109091 L48.3449477,54.8836364 C43.0769277,54.3173583 38.9112567,49.9019837 38.3770035,44.3181818 L43.7289199,44.3181818 C44.3447077,44.3181818 44.8439024,43.7890638 44.8439024,43.1363636 C44.8439024,42.4836635 44.3447077,41.9545455 43.7289199,41.9545455 L43.71777,41.9545455 Z M50.5749129,67.5881818 L50.5749129,57.2472727 C57.0647883,56.6564357 62.2101843,51.1976184 62.7616725,44.3181818 L72.4508711,44.3181818 C71.9026363,56.8896268 62.4333746,66.9623155 50.5749129,67.5881818 L50.5749129,67.5881818 Z M65.861324,25.8345455 C69.8946784,30.1376583 72.25129,35.8928959 72.4620209,41.9545455 L62.7616725,41.9545455 C62.2101843,35.0751088 57.0647883,29.6162916 50.5749129,29.0254545 L50.5749129,18.6845455 C56.3416446,18.9260204 61.8061581,21.4819684 65.861324,25.8345455 Z M48.3449477,18.6963636 L48.3449477,29.0254545 C41.8463768,29.6053937 36.6889675,35.0669622 36.1358885,41.9545455 L26.4578397,41.9545455 C27.0678887,29.4095708 36.5110217,19.3748916 48.3449477,18.6963636 Z M26.4466899,44.3181818 L36.1358885,44.3181818 C36.6889675,51.205765 41.8463768,56.6673335 48.3449477,57.2472727 L48.3449477,67.5881818 C36.477777,66.974099 26.9958692,56.8982293 26.4466899,44.3181818 Z" id="Shape"></path>
                    <path d="M73.3986063,103.586364 C74.0143941,103.586364 74.5135889,103.057246 74.5135889,102.404545 L74.5135889,75.53 C87.8324094,64.4779418 93.0695842,45.6868529 87.5548634,28.7376432 C82.0401426,11.7884335 66.9880729,0.413949172 50.0731707,0.413636364 C48.4932321,0.413990312 46.9146751,0.512644833 45.3456446,0.709090909 C25.5044947,3.23510663 10.5402671,21.0213674 10.4355401,42.2027273 L0.400696864,67.9663636 C0.264140896,68.3149333 0.292870517,68.7116713 0.47801429,69.0340687 C0.663158064,69.3564661 0.982444972,69.5657415 1.33728223,69.5972727 L11.528223,70.5309091 L14.2710801,93.5290909 C14.3095233,93.8462859 14.467604,94.1334263 14.7092285,94.3249507 C14.9508529,94.5164752 15.2553915,94.5960313 15.5533101,94.5454545 L31.1630662,91.91 L31.1630662,102.404545 C31.1630662,103.057246 31.6622609,103.586364 32.2780488,103.586364 C32.8938367,103.586364 33.3930314,103.057246 33.3930314,102.404545 L33.3930314,90.5154545 C33.3930528,90.1699951 33.2504672,89.8418214 33.0027875,89.6172727 C32.7541571,89.3901945 32.4237676,89.2907567 32.0996516,89.3454545 L16.3114983,92.0163636 L13.5909408,69.2781818 C13.5242509,68.7244841 13.1011594,68.2957434 12.5763066,68.25 L3.0097561,67.3636364 L12.5651568,42.8763636 C12.6222896,42.7342827 12.6525937,42.5817095 12.6543554,42.4272727 C12.6547485,22.3579291 26.8027866,5.45367732 45.6020906,3.06090909 C47.0822009,2.87375214 48.5714165,2.77904311 50.0620209,2.77727273 C66.1215148,2.77661246 80.3905803,13.6378462 85.5212748,29.7679152 C90.6519692,45.8979841 85.5000248,63.6994965 72.7184669,74.0054545 C72.4419043,74.2311007 72.2809794,74.5809905 72.2836237,74.9509091 L72.2836237,102.404545 C72.2836237,103.057246 72.7828184,103.586364 73.3986063,103.586364 Z" id="Shape"></path>
                </g>
            </g>
        </g>
    </g>
</svg>