
<svg width="96px" height="84px" viewBox="0 0 96 84" version="1.1" xmlns="http://www.w3.org/2000/svg" xmlns:xlink="http://www.w3.org/1999/xlink">
    <defs></defs>
    <g id="Welcome" stroke="none" stroke-width="1" fill="none" fill-rule="evenodd">
        <g id="Desktop" transform="translate(-130.000000, -6492.000000)" fill-rule="nonzero" fill="#2B4C49">
            <g id="noun_1058984_cc" transform="translate(130.000000, 6492.000000)">
                <rect id="Rectangle-path" x="9.4" y="34.6" width="5.3" height="17.3"></rect>
                <rect id="Rectangle-path" x="19.4" y="24.2" width="5.3" height="27.7"></rect>
                <rect id="Rectangle-path" x="29.4" y="30.5" width="5.3" height="21.4"></rect>
                <rect id="Rectangle-path" x="39.4" y="19.4" width="5.3" height="32.5"></rect>
                <rect id="Rectangle-path" x="49.4" y="15.5" width="5.3" height="36.4"></rect>
                <path d="M52.1,7.3 C50.9,7.3 49.9,8.2 49.7,9.4 L43.8,11.5 C43.4,11.1 42.8,10.8 42.1,10.8 C40.8,10.8 39.7,11.9 39.7,13.2 C39.7,13.5 39.8,13.8 39.9,14.1 L32.6,22 C32.4,21.9 32.1,21.9 31.9,21.9 C31.4,21.9 31,22 30.6,22.3 L24.3,18.3 C24.3,18.2 24.3,18.1 24.3,18 C24.3,16.7 23.2,15.6 21.9,15.6 C20.6,15.6 19.5,16.7 19.5,18 C19.5,18.3 19.6,18.6 19.7,18.9 L12.6,26.5 C12.4,26.4 12.1,26.4 11.9,26.4 C10.6,26.4 9.5,27.5 9.5,28.8 C9.5,30.1 10.6,31.2 11.9,31.2 C13.2,31.2 14.3,30.1 14.3,28.8 C14.3,28.5 14.2,28.2 14.1,27.9 L21.2,20.3 C21.4,20.4 21.7,20.4 21.9,20.4 C22.4,20.4 22.8,20.3 23.2,20 L29.5,24 C29.5,24.1 29.5,24.2 29.5,24.3 C29.5,25.6 30.6,26.7 31.9,26.7 C33.2,26.7 34.3,25.6 34.3,24.3 C34.3,24 34.2,23.7 34.1,23.4 L41.3,15.5 C41.5,15.6 41.8,15.6 42,15.6 C43.2,15.6 44.2,14.7 44.4,13.5 L50.3,11.4 C50.7,11.8 51.3,12.1 52,12.1 C53.3,12.1 54.4,11 54.4,9.7 C54.4,8.3 53.4,7.3 52.1,7.3 Z" id="Shape"></path>
                <rect id="Rectangle-path" x="79.2" y="20.3" width="7.3" height="2"></rect>
                <rect id="Rectangle-path" x="73.7" y="20.3" width="3.5" height="2"></rect>
                <rect id="Rectangle-path" x="60.6" y="23.2" width="25.9" height="2"></rect>
                <path d="M67.8,10.9 L73.8,10.9 C73.7,7.6 71.1,5 67.8,4.9 L67.8,10.9 Z" id="Shape"></path>
                <path d="M66.6,12.2 L66.6,6 C63.3,6.1 60.6,8.8 60.6,12.1 C60.6,15.5 63.3,18.2 66.7,18.2 C70,18.2 72.8,15.5 72.8,12.2 L66.6,12.2 L66.6,12.2 Z" id="Shape"></path>
                <path d="M84,13.2 L87.8,17.5 C88.8,16.6 89.4,15.4 89.7,14.1 L84,13.2 Z" id="Shape"></path>
                <path d="M81.4,11.9 L87.8,12.9 C87.8,12.6 87.9,12.4 87.9,12.1 C87.9,8.7 85.2,6 81.8,6 C78.4,6 75.7,8.7 75.7,12.1 C75.7,15.5 78.4,18.2 81.8,18.2 C83.3,18.2 84.7,17.7 85.8,16.7 L81.4,11.9 Z" id="Shape"></path>
                <path d="M93.9,58.6 C95,57.7 95.7,56.4 95.7,54.9 L95.7,5.4 C95.7,2.8 93.6,0.6 90.9,0.6 L4.9,0.6 C2.3,0.6 0.1,2.7 0.1,5.4 L0.1,54.9 C0.1,57.5 2.2,59.7 4.9,59.7 L19.4,59.7 L19.4,62.8 C19.4,63.3 19.8,63.8 20.4,63.8 L50.5,63.8 C50.5,64.6 50.6,65.4 50.8,66.2 L53.4,81.3 C53.6,82.6 54.7,83.5 56,83.5 L73.2,83.5 L90.4,83.5 C91.7,83.5 92.8,82.6 93,81.3 L95.6,66.2 C96.3,63.4 95.6,60.7 93.9,58.6 Z M73.1,82 L69.4,60.2 L71.5,57.5 L69.8,55 C70.8,55.4 71.9,55.6 73.1,55.6 C74.3,55.6 75.4,55.4 76.4,55 L74.7,57.5 L76.8,60.2 L73.1,82 Z M73.1,26.7 C65.8,26.7 61,32.6 61,39.8 C61,44.9 63.4,50.6 67.3,53.5 L57.6,55.4 C56.5,55.6 55.5,56.1 54.6,56.6 L4.9,56.6 C3.9,56.6 3.1,55.8 3.1,54.8 L3.1,5.4 C3.1,4.4 3.9,3.6 4.9,3.6 L90.9,3.6 C91.9,3.6 92.7,4.4 92.7,5.4 L92.7,54.9 C92.7,55.7 92.2,56.3 91.5,56.6 C90.6,56.1 89.7,55.7 88.6,55.5 L78.9,53.6 C82.8,50.7 85.2,45 85.2,39.9 C85.3,32.6 80.4,26.7 73.1,26.7 Z" id="Shape"></path>
            </g>
        </g>
    </g>
</svg>