
<svg width="68px" height="83px" viewBox="0 0 68 83" version="1.1" xmlns="http://www.w3.org/2000/svg" xmlns:xlink="http://www.w3.org/1999/xlink">
    <defs></defs>
    <g id="Welcome" stroke="none" stroke-width="1" fill="none" fill-rule="evenodd">
        <g id="Desktop" transform="translate(-369.000000, -6819.000000)" fill-rule="nonzero" fill="#766E6E">
            <g id="noun_1293526_cc-copy" transform="translate(369.000000, 6819.000000)">
                <path d="M68,29.3958333 C68,38.90625 64.94,45.9958333 62.39,52.2208333 C60.01,57.7541667 57.8,62.9416667 57.8,69.1666667 L57.8,83 L54.4,83 L54.4,69.1666667 C54.4,62.25 56.78,56.7166667 59.16,50.8375 C61.88,44.6125 64.6,38.2145833 64.6,29.3958333 C64.6,15.04375 53.21,3.45833333 39.1,3.45833333 C24.99,3.45833333 13.6,15.04375 13.6,29.3958333 C13.6,29.7416667 13.6,29.9145833 13.43,30.2604167 L3.57,48.4166667 L11.9,48.4166667 C12.92,48.4166667 13.6,49.1083333 13.6,50.1458333 L13.6,60.5208333 C13.6,61.3854167 13.94,62.25 14.62,62.9416667 C15.3,63.6333333 16.15,63.9791667 17,63.9791667 L23.8,63.9791667 C24.82,63.9791667 25.5,64.6708333 25.5,65.7083333 L25.5,83 L22.1,83 L22.1,67.4375 L17,67.4375 C15.13,67.4375 13.43,66.7458333 12.24,65.3625 C10.88,64.1520833 10.2,62.4229167 10.2,60.5208333 L10.2,51.875 L1.7,51.875 C0.68,51.875 0,51.1833333 0,50.1458333 L0,48.4166667 C0,48.0708333 0,47.8979167 0.17,47.5520833 L10.2,28.8770833 C10.37,12.96875 23.29,0 39.1,0 C55.08,0 68,13.1416667 68,29.3958333 Z M61.2,29.3958333 C61.2,16.9458333 51.34,6.91666667 39.1,6.91666667 C26.86,6.91666667 17,16.9458333 17,29.3958333 L20.4,29.3958333 C20.4,18.8479167 28.73,10.375 39.1,10.375 C49.47,10.375 57.8,18.8479167 57.8,29.3958333 C57.8,36.83125 53.55,43.575 46.92,46.8604167 C40.97,49.6270833 37.4,55.6791667 37.4,62.25 L37.4,72.625 L40.8,72.625 L40.8,62.25 C40.8,56.8895833 43.69,52.2208333 48.28,49.9729167 C56.1,46.16875 61.2,38.0416667 61.2,29.3958333 Z M37.4,79.5416667 L40.8,79.5416667 L40.8,76.0833333 L37.4,76.0833333 L37.4,79.5416667 Z M39.1,44.9583333 C30.6,44.9583333 23.8,38.0416667 23.8,29.3958333 C23.8,20.75 30.6,13.8333333 39.1,13.8333333 C47.6,13.8333333 54.4,20.75 54.4,29.3958333 C54.4,38.0416667 47.6,44.9583333 39.1,44.9583333 Z M39.1,41.5 C45.73,41.5 51,36.1395833 51,29.3958333 C51,22.6520833 45.73,17.2916667 39.1,17.2916667 C32.47,17.2916667 27.2,22.6520833 27.2,29.3958333 C27.2,36.1395833 32.47,41.5 39.1,41.5 Z M40.8,20.75 L37.4,20.75 L37.4,31.125 L40.8,31.125 L40.8,20.75 Z M40.8,34.5833333 L37.4,34.5833333 L37.4,38.0416667 L40.8,38.0416667 L40.8,34.5833333 Z" id="Shape"></path>
            </g>
        </g>
    </g>
</svg>