
<svg width="195px" height="196px" viewBox="0 0 195 196" version="1.1" xmlns="http://www.w3.org/2000/svg" xmlns:xlink="http://www.w3.org/1999/xlink">
    <defs></defs>
    <g id="Welcome" stroke="none" stroke-width="1" fill="none" fill-rule="evenodd">
        <g id="Desktop" transform="translate(-92.000000, -4534.000000)" fill-rule="nonzero" fill="#2B4C49">
            <g id="Group-24" transform="translate(92.000000, 4534.000000)">
                <g id="noun_1273291_cc">
                    <g id="Group">
                        <rect id="Rectangle-path" x="12.5806452" y="12.852459" width="6.29032258" height="6.42622951"></rect>
                        <rect id="Rectangle-path" x="25.1612903" y="12.852459" width="6.29032258" height="6.42622951"></rect>
                        <rect id="Rectangle-path" x="37.7419355" y="12.852459" width="6.29032258" height="6.42622951"></rect>
                        <path d="M144.677419,51.4098361 L144.677419,0 L0,0 L0,144.407016 L48.183871,109.245902 L50.3225806,109.245902 L50.3225806,160.655738 L146.816129,160.655738 L195,195.816852 L195,51.4098361 L144.677419,51.4098361 Z M188.709677,77.1147541 L56.6129032,77.1147541 L56.6129032,57.8360656 L188.709677,57.8360656 L188.709677,77.1147541 Z M62.9032258,51.4098361 L50.3225806,51.4098361 L50.3225806,77.1147541 L18.8709677,77.1147541 L18.8709677,44.9836066 L62.9032258,44.9836066 L62.9032258,51.4098361 Z M125.806452,51.4098361 L81.7741935,51.4098361 L81.7741935,44.9836066 L125.806452,44.9836066 L125.806452,51.4098361 Z M138.387097,6.42622951 L138.387097,25.704918 L6.29032258,25.704918 L6.29032258,6.42622951 L138.387097,6.42622951 Z M46.1709677,102.819672 L6.29032258,131.920852 L6.29032258,32.1311475 L138.387097,32.1311475 L138.387097,51.4098361 L132.096774,51.4098361 L132.096774,38.557377 L75.483871,38.557377 L75.483871,51.4098361 L69.1935484,51.4098361 L69.1935484,38.557377 L12.5806452,38.557377 L12.5806452,83.5409836 L50.3225806,83.5409836 L50.3225806,89.9672131 L12.5806452,89.9672131 L12.5806452,96.3934426 L50.3225806,96.3934426 L50.3225806,102.819672 L46.1709677,102.819672 Z M148.829032,154.229508 L56.6129032,154.229508 L56.6129032,96.3934426 L56.6129032,89.9672131 L56.6129032,83.5409836 L188.709677,83.5409836 L188.709677,183.330689 L148.829032,154.229508 Z" id="Shape"></path>
                        <rect id="Rectangle-path" x="88.0645161" y="64.2622951" width="6.29032258" height="6.42622951"></rect>
                        <rect id="Rectangle-path" x="75.483871" y="64.2622951" width="6.29032258" height="6.42622951"></rect>
                        <rect id="Rectangle-path" x="62.9032258" y="64.2622951" width="6.29032258" height="6.42622951"></rect>
                        <path d="M125.806452,134.95082 L182.419355,134.95082 L182.419355,89.9672131 L125.806452,89.9672131 L125.806452,134.95082 Z M132.096774,96.3934426 L176.129032,96.3934426 L176.129032,128.52459 L132.096774,128.52459 L132.096774,96.3934426 Z" id="Shape"></path>
                        <path d="M62.9032258,134.95082 L119.516129,134.95082 L119.516129,89.9672131 L62.9032258,89.9672131 L62.9032258,134.95082 Z M69.1935484,96.3934426 L113.225806,96.3934426 L113.225806,128.52459 L69.1935484,128.52459 L69.1935484,96.3934426 Z" id="Shape"></path>
                        <rect id="Rectangle-path" x="62.9032258" y="141.377049" width="56.6129032" height="6.42622951"></rect>
                        <rect id="Rectangle-path" x="176.129032" y="141.377049" width="6.29032258" height="6.42622951"></rect>
                        <rect id="Rectangle-path" x="125.806452" y="141.377049" width="44.0322581" height="6.42622951"></rect>
                    </g>
                </g>
            </g>
        </g>
    </g>
</svg>