<svg width="73" height="18" viewBox="0 0 73 18" version="1.1" xmlns="http://www.w3.org/2000/svg" xmlns:xlink="http://www.w3.org/1999/xlink">
<title>down2</title>
<desc>Created using Figma</desc>
<g id="Canvas" transform="translate(-220 353)">
<g id="down2">
<g id="Group">
<g id="Group">
<g id="Vector">
<use xlink:href="#path0_fill" transform="translate(221 -352)" fill="#204848"/>
<use xlink:href="#path1_stroke" transform="translate(221 -352)" fill="#204848"/>
</g>
</g>
</g>
</g>
</g>
<defs>
<path id="path0_fill" d="M 35.3295 15.3121C 35.1555 15.3121 34.9815 15.2821 34.8165 15.2211L 0.987543 2.90914C 0.209543 2.62614 -0.193457 1.76514 0.0915433 0.987145C 0.374543 0.208145 1.23854 -0.191855 2.01354 0.0911448L 35.3295 12.2161L 68.6455 0.0911448C 69.4235 -0.192855 70.2845 0.209145 70.5675 0.987145C 70.8515 1.76514 70.4495 2.62614 69.6715 2.90914L 35.8425 15.2221C 35.6775 15.2821 35.5035 15.3121 35.3295 15.3121Z"/>
<path id="path1_stroke" d="M 34.8165 15.2211L 35.1633 14.2832L 35.1585 14.2814L 34.8165 15.2211ZM 0.987543 2.90914L 1.32954 1.96944L 1.32938 1.96938L 0.987543 2.90914ZM 0.0915433 0.987145L 1.03053 1.33112L 1.03144 1.3286L 0.0915433 0.987145ZM 2.01354 0.0911448L 1.67054 1.03048L 1.67155 1.03085L 2.01354 0.0911448ZM 35.3295 12.2161L 34.9875 13.1558L 35.3295 13.2803L 35.6715 13.1558L 35.3295 12.2161ZM 68.6455 0.0911448L 68.9875 1.03085L 68.9885 1.03051L 68.6455 0.0911448ZM 70.5675 0.987145L 69.6278 1.32898L 69.6282 1.33005L 70.5675 0.987145ZM 69.6715 2.90914L 69.3297 1.96938L 69.3295 1.96945L 69.6715 2.90914ZM 35.8425 15.2221L 36.1843 16.1619L 36.1846 16.1618L 35.8425 15.2221ZM 35.3295 14.3121C 35.2702 14.3121 35.2139 14.3019 35.1633 14.2832L 34.4698 16.1591C 34.7492 16.2624 35.0409 16.3121 35.3295 16.3121L 35.3295 14.3121ZM 35.1585 14.2814L 1.32954 1.96944L 0.645541 3.84884L 34.4745 16.1608L 35.1585 14.2814ZM 1.32938 1.96938C 1.06889 1.87463 0.936653 1.58737 1.03052 1.33112L -0.847437 0.643174C -1.32357 1.94292 -0.649806 3.37765 0.645703 3.8489L 1.32938 1.96938ZM 1.03144 1.3286C 1.12519 1.07054 1.41368 0.936684 1.67054 1.03048L 2.35655 -0.848188C 1.06341 -1.32039 -0.376105 -0.654249 -0.848356 0.645692L 1.03144 1.3286ZM 1.67155 1.03085L 34.9875 13.1558L 35.6715 11.2764L 2.35554 -0.848557L 1.67155 1.03085ZM 35.6715 13.1558L 68.9875 1.03085L 68.3036 -0.848557L 34.9875 11.2764L 35.6715 13.1558ZM 68.9885 1.03051C 69.2464 0.936343 69.5334 1.06961 69.6278 1.32898L 71.5073 0.645305C 71.0357 -0.651319 69.6007 -1.32205 68.3026 -0.848225L 68.9885 1.03051ZM 69.6282 1.33005C 69.7223 1.58803 69.5891 1.87504 69.3297 1.96938L 70.0134 3.8489C 71.31 3.37725 71.9807 1.94226 71.5069 0.644239L 69.6282 1.33005ZM 69.3295 1.96945L 35.5005 14.2825L 36.1846 16.1618L 70.0136 3.84883L 69.3295 1.96945ZM 35.5008 14.2824C 35.4472 14.3018 35.389 14.3121 35.3295 14.3121L 35.3295 16.3121C 35.6181 16.3121 35.9079 16.2624 36.1843 16.1619L 35.5008 14.2824Z"/>
</defs>
</svg>
