
<svg width="170px" height="142px" viewBox="0 0 170 142" version="1.1" xmlns="http://www.w3.org/2000/svg" xmlns:xlink="http://www.w3.org/1999/xlink">
    <defs></defs>
    <g id="Welcome" stroke="none" stroke-width="1" fill="none" fill-rule="evenodd">
        <g id="Desktop" transform="translate(-433.000000, -5965.000000)" fill-rule="nonzero" fill="#2B4C49">
            <g id="noun_534043_cc" transform="translate(433.000000, 5965.000000)">
                <path d="M41.9990392,142 C31.5242984,142 23,133.471427 23,122.98847 C23,112.518964 31.5242984,104 41.9990392,104 C52.4757016,104 61,112.518964 61,122.98847 C60.9980784,133.471427 52.4757016,142 41.9990392,142 Z M41.9990392,111.362092 C35.5808344,111.362092 30.3597977,116.579549 30.3597977,122.994235 C30.3597977,129.416608 35.5808344,134.645595 41.9990392,134.645595 C48.417244,134.645595 53.6402023,129.416608 53.6402023,122.994235 C53.6382807,116.573784 48.4153224,111.362092 41.9990392,111.362092 Z" id="Shape"></path>
                <path d="M130.001922,142 C119.525789,142 111,133.471427 111,122.984626 C111,112.518964 119.525789,104 130.001922,104 C140.476133,104 149,112.518964 149,122.984626 C149,133.467584 140.476133,142 130.001922,142 Z M130.001922,111.362092 C123.580198,111.362092 118.359426,116.575705 118.359426,122.990391 C118.359426,129.414686 123.580198,134.641752 130.001922,134.641752 C136.419802,134.641752 141.640574,129.410843 141.640574,122.990391 C141.640574,116.573784 136.419802,111.362092 130.001922,111.362092 Z" id="Shape"></path>
                <path d="M95.5009273,17 C90.2636408,17 86,21.2102577 86,26.386961 L86,32 L91.6805271,32 L91.6805271,26.386961 C91.6805271,24.4751212 93.4312347,22.861827 95.5009273,22.861827 C97.5724744,22.861827 99.3194729,24.4751212 99.3194729,26.386961 L99.3194729,31.728247 L105,31.728247 L105,26.386961 C105,21.2102577 100.740068,17 95.5009273,17 Z" id="Shape"></path>
                <path d="M94.4999988,15 C92.5613972,15 91,13.5453774 91,11.7514843 L91,3.24639525 C91,1.45038168 92.5659694,0 94.4999988,0 C96.4340281,0 97.9999975,1.45250212 97.9999975,3.24639525 L97.9999975,11.7514843 C98.0022836,13.5474979 96.4340281,15 94.4999988,15 Z" id="Shape"></path>
                <path d="M84.091048,18 C83.4589072,18 82.8210714,17.7913788 82.2876432,17.3565887 L76.102914,12.3282321 C74.8443273,11.3046233 74.6317154,9.42703218 75.6264355,8.1324107 C76.6249522,6.83973896 78.4530352,6.62136907 79.7116219,7.64497792 L85.8982494,12.6713848 C87.1568362,13.6949936 87.3675498,15.5725847 86.3728297,16.8672062 C85.7976384,17.6120035 84.949089,18 84.091048,18 Z" id="Shape"></path>
                <path d="M102.91092,18 C102.052473,18 101.203522,17.6139828 100.628058,16.8672929 C99.6328671,15.5747202 99.8417813,13.6972728 101.102863,12.6737424 L107.286721,7.64772034 C108.547803,6.62224028 110.376751,6.83669428 111.371942,8.13316622 C112.367133,9.42573899 112.158219,11.3031863 110.897137,12.3267168 L104.713279,17.3546884 C104.179598,17.7894452 103.541461,18 102.91092,18 Z" id="Shape"></path>
                <path d="M114.435867,126 L57.5622729,126 C55.5941869,126 54,124.433681 54,122.498172 C54,120.564491 55.5941869,119 57.5622729,119 L114.435867,119 C116.405813,119 118,120.564491 118,122.498172 C118,124.433681 116.403953,126 114.435867,126 Z" id="Shape"></path>
                <path d="M170,113.93383 C170,106.773698 163.526778,100.612875 162.792,99.9302349 C162.733445,99.8752444 162.673,99.8240465 162.606889,99.7747447 C162.023222,99.3082742 161.356445,97.8633535 161.375333,97.1162423 C161.413111,95.4873882 161.622778,80.9793983 158.236,73.5613803 C154.554556,65.498647 143.430889,61.3667806 142.172889,60.9230648 C140.964,60.4945187 139.009,59.1842298 138.151445,58.2285342 L120.284445,38.2992474 C117.063889,34.7078041 111.006223,32 106.189556,32 L17.2757791,32 C12.6744458,32 8.33944586,33.807099 5.06789033,37.0932506 C1.79822369,40.3794023 -0.00188740385,44.7312304 1.48502339e-06,49.3504257 L0.0188903737,110.655263 C0.0226681515,120.217907 7.77655697,128 17.3041124,128 L26.1346679,128 C28.1331124,128 29.7518901,126.374938 29.7518901,124.36684 C29.7518901,122.360638 28.1331124,120.737472 26.1346679,120.737472 L17.3041124,120.737472 C11.7640014,120.737472 7.25333475,116.211192 7.25144587,110.651471 L7.23444587,49.3466332 C7.23255698,46.6691686 8.2808903,44.1396093 10.1867792,42.2282181 C12.0907792,40.3149308 14.608668,39.2625279 17.277668,39.2625279 L106.189556,39.2625279 C108.922778,39.2625279 113.076445,41.1189286 114.903,43.1611591 L132.773778,63.0904458 C134.428445,64.9373654 137.435556,66.9511525 139.766445,67.7779051 C142.201222,68.6368934 149.609445,72.1050823 151.658889,76.5915421 C153.944445,81.5956703 154.224,92.9900646 154.139,96.9607522 C154.076667,99.9340273 155.676556,103.438244 157.965889,105.351532 C159.282445,106.585972 162.761778,110.588895 162.761778,113.937622 L162.761778,114.081735 C162.761778,119.874691 158.075445,120.737472 155.278,120.737472 L144.424445,120.737472 C142.426,120.737472 140.807222,122.362534 140.807222,124.370632 C140.807222,126.376834 142.426,128 144.424445,128 L155.281778,128 C164.085889,128 170,122.408043 170,114.081735 C170,114.055188 169.992444,114.036226 169.992444,114.011575 C169.992444,113.985028 170,113.960377 170,113.93383 Z" id="Shape"></path>
                <path d="M84.2840515,62.8273606 L75.1691923,62.8273606 L75.1691923,53.7137022 C75.1691923,52.2161616 73.9528704,51 72.4551324,51 L58.5429789,51 C57.0452409,51 55.828919,52.2161616 55.828919,53.7137022 L55.828919,62.8273606 L46.7140598,62.8273606 C45.2163219,62.8273606 44,64.0435222 44,65.5429513 L44,79.4551603 C44,80.9527009 45.2163219,82.170751 46.7140598,82.170751 L55.828919,82.170751 L55.828919,91.2844093 C55.828919,92.7819499 57.0452409,94 58.5429789,94 L72.4570211,94 C73.9547591,94 75.171081,92.7819499 75.171081,91.2844093 L75.171081,82.170751 L84.2859402,82.170751 C85.7836781,82.170751 87,80.9527009 87,79.4551603 L87,65.5391744 C86.9987409,64.5408139 86.0934247,63.636876 84.2840515,62.8273606 Z M81.5737691,76.7433465 L72.6062283,76.7433465 C71.029165,76.7433465 69.74485,78.0274923 69.74485,79.6024594 L69.74485,88.5725955 L61.2532613,88.5725955 L61.2532613,79.6024594 C61.2532613,78.0274923 59.970835,76.7433465 58.3956604,76.7433465 L49.4243422,76.7433465 L49.4243422,68.2509881 L58.3956604,68.2509881 C59.970835,68.2509881 61.2532613,66.9687308 61.2532613,65.3937637 L61.2532613,56.4236276 L69.74485,56.4236276 L69.74485,65.3937637 C69.74485,66.9687308 71.029165,68.2509881 72.6062283,68.2509881 L81.5737691,68.2509881 L81.5737691,76.7433465 Z" id="Shape"></path>
                <path d="M110.539559,124 C108.627389,124 107.079119,122.712699 107.079119,121.122834 L107.00001,35.8790451 C106.995489,34.2873015 108.54602,33 110.45819,33 L110.45819,33 C112.372621,33 113.920891,34.2854222 113.920891,35.8752865 L114,121.120955 C114,122.710819 112.45399,124 110.539559,124 L110.539559,124 Z" id="Shape"></path>
                <path d="M22.4999988,128 C20.5659694,128 19,126.688099 19,125.072127 L19,35.929785 C19,34.3099887 20.5682555,33 22.4999988,33 C24.4363142,33 25.9999975,34.3119011 25.9999975,35.929785 L25.9999975,125.072127 C26.0022836,126.691924 24.4363142,128 22.4999988,128 Z" id="Shape"></path>
            </g>
        </g>
    </g>
</svg>