<svg xmlns="http://www.w3.org/2000/svg" xmlns:xlink="http://www.w3.org/1999/xlink" version="1.1" x="0px" y="0px" viewBox="0 0 100 125" enable-background="new 0 0 100 100" xml:space="preserve"><g><path d="M49.803,11.206c2.742,0,4.971,2.225,4.971,4.969s-2.229,4.963-4.971,4.963c-2.738,0-4.962-2.219-4.962-4.963   S47.065,11.206,49.803,11.206z" fill="#2B4C49"/><path d="M56.358,70.266L56.37,29.29h1.729v16.529c0,3.021,4.245,3.021,4.245,0V28.876c0-3.648-2.967-6.57-6.551-6.57H43.821   c-3.583,0-6.55,2.921-6.55,6.57v16.943c0,3.021,4.245,3.021,4.245,0V29.29h1.737L43.25,70.266h-7.274v17.568h2.592V72.858h22.48   v14.976h2.592V70.266H56.358z M48.928,46.525h1.763l-0.008,23.74h-1.757L48.928,46.525z" fill="#2B4C49"/></g><g><g><path d="M3.805,80.717h9.048c0,0-7.264-10.198-7.416-18.177c-0.069-3.565,0.557-5.32,1.023-6.397    c0.081-0.185,2.521-5.063,7.199-2.425c0,0,0.93,0.544,1.564,1.921c0.406,0.678,0.762,2.399,0.919,4.03    c0.518,4.236,3.419,21.67,3.419,21.67c0.406,2.508-1.474,4.549-3.357,4.549L3.673,85.883c-1.577,0-2.886-0.917-2.886-2.479    C0.787,81.651,2.222,80.717,3.805,80.717z" fill="#2B4C49"/><path d="M18.159,54.258c2.61,0,4.735-2.122,4.735-4.734c0-2.622-2.125-4.74-4.735-4.74c-2.624,0-4.743,2.119-4.743,4.74    C13.416,52.136,15.535,54.258,18.159,54.258z" fill="#2B4C49"/></g><g><path d="M95.998,80.717h-9.049c0,0,7.264-10.198,7.416-18.177c0.069-3.565-0.556-5.32-1.022-6.397    c-0.081-0.185-2.521-5.063-7.199-2.425c0,0-0.93,0.544-1.564,1.921c-0.406,0.678-0.763,2.399-0.919,4.03    c-0.518,4.236-3.419,21.67-3.419,21.67c-0.406,2.508,1.475,4.549,3.356,4.549l12.531-0.005c1.577,0,2.886-0.917,2.886-2.479    C99.015,81.651,97.581,80.717,95.998,80.717z" fill="#2B4C49"/><path d="M81.644,54.258c-2.609,0-4.734-2.122-4.734-4.734c0-2.622,2.125-4.74,4.734-4.74c2.623,0,4.743,2.119,4.743,4.74    C86.387,52.136,84.267,54.258,81.644,54.258z" fill="#2B4C49"/></g><path d="M22.757,75.655h5.506c0,0-5.257-6.708-5.358-11.957c-0.046-2.345,0.371-3.5,0.683-4.207   c0.054-0.122,1.684-3.331,4.807-1.597c0,0,0.62,0.358,1.044,1.266c0.271,0.444,0.509,1.578,0.613,2.649   c0.346,2.788,2.691,14.255,2.691,14.255c0.271,1.649-0.984,2.992-2.242,2.992l-7.833-0.003c-1.052,0-1.927-0.604-1.927-1.631   C20.742,76.271,21.7,75.655,22.757,75.655z" fill="#2B4C49"/><path d="M31.399,58.113c1.742,0,3.161-1.416,3.161-3.159c0-1.751-1.419-3.165-3.161-3.165c-1.751,0-3.167,1.414-3.167,3.165   C28.232,56.697,29.647,58.113,31.399,58.113z" fill="#2B4C49"/><path d="M77.046,75.655H71.54c0,0,5.257-6.708,5.357-11.957c0.047-2.345-0.37-3.5-0.683-4.207   c-0.054-0.122-1.683-3.331-4.808-1.597c0,0-0.619,0.358-1.043,1.266c-0.272,0.444-0.509,1.578-0.614,2.649   c-0.346,2.788-2.69,14.255-2.69,14.255c-0.271,1.649,0.985,2.992,2.242,2.992l7.832-0.003c1.053,0,1.928-0.604,1.928-1.631   C79.062,76.271,78.103,75.655,77.046,75.655z" fill="#2B4C49"/><path d="M68.404,58.113c-1.743,0-3.161-1.416-3.161-3.159c0-1.751,1.418-3.165,3.161-3.165c1.752,0,3.167,1.414,3.167,3.165   C71.571,56.697,70.156,58.113,68.404,58.113z" fill="#2B4C49"/></g></svg>