
<svg width="152px" height="112px" viewBox="0 0 152 112" version="1.1" xmlns="http://www.w3.org/2000/svg" xmlns:xlink="http://www.w3.org/1999/xlink">
    <defs></defs>
    <g id="Welcome" stroke="none" stroke-width="1" fill="none" fill-rule="evenodd">
        <g id="Desktop" transform="translate(-742.000000, -2401.000000)" fill-rule="nonzero">
            <g id="Group-18" transform="translate(742.000000, 2401.000000)">
                <path d="M152,93.3443072 C152,92.4325166 151.260297,91.6933644 150.347826,91.6933644 L145.027826,91.6933644 L142.995652,89.9103461 L142.995652,7.13207299 C142.986568,3.19690409 139.796364,0.00907770381 135.858261,0 L15.9765217,0 C12.0384184,0.00907770381 8.84821491,3.19690409 8.83913043,7.13207299 L8.83913043,91.6933644 L1.65217391,91.6933644 C0.739703457,91.6933644 0,92.4325166 0,93.3443072 L0,93.6910052 C0.0182105159,103.80166 8.22092428,111.990877 18.3391304,111.999961 L133.66087,111.999961 C138.048556,112.009033 142.291392,110.431616 145.606087,107.558925 C146.927461,107.25724 148.136202,106.58749 149.092174,105.627322 C150.508065,104.199239 151.278073,102.254777 151.223478,100.245248 C151.207653,99.9245197 151.174562,99.604875 151.124348,99.2877013 C151.702945,97.4783338 151.998313,95.590501 152,93.6910052 L152,93.3443072 Z M89.5478261,101.797134 L62.3034783,101.797134 C61.3910078,101.797134 60.6513043,101.057982 60.6513043,100.146192 C60.6513043,99.2344011 61.3910078,98.4952488 62.3034783,98.4952488 L89.5478261,98.4952488 C90.4602965,98.4952488 91.2,99.2344011 91.2,100.146192 C91.2,101.057982 90.4602965,101.797134 89.5478261,101.797134 Z M20.4043478,91.6933644 L20.4043478,11.5565998 L131.430435,11.5565998 L131.430435,38.2193263 C125.976223,27.8983421 115.939974,20.7799377 104.390095,19.0404402 C92.8402165,17.3009427 81.1501443,21.1472019 72.893913,29.4032917 C71.6336428,30.6567959 70.4632154,31.9973711 69.3913043,33.4150827 L69.3913043,33.4150827 L63.1791304,29.9811217 C62.590954,29.6591072 61.8663268,29.7243403 61.3452174,30.1462159 L47.7973913,41.1414951 L34.1669565,51.3608312 C33.4369802,51.9079056 33.2890396,52.9427187 33.8365218,53.6721511 C34.3840041,54.4015835 35.4195889,54.549414 36.1495652,54.0023397 L49.8295652,43.7499848 L62.5843478,33.4976299 L67.5408696,36.2547044 C67.0115282,37.0417659 66.5261494,37.8574764 66.0869565,38.6980998 L66.0869565,38.6980998 C65.9935031,38.6901333 65.8995404,38.6901333 65.806087,38.6980998 L58.9991304,38.6980998 C58.08666,38.6980998 57.3469565,39.437252 57.3469565,40.3490426 L57.3469565,84.9244988 C57.3469565,85.8362893 58.08666,86.5754416 58.9991304,86.5754416 L65.8226087,86.5754416 C66.7350792,86.5754416 67.4747826,85.8362893 67.4747826,84.9244988 L67.4747826,74.5070496 L67.4747826,74.5070496 C68.5261426,76.2116746 69.7199666,77.8243452 71.0434783,79.3278026 L71.0434783,84.9244988 C71.0434783,85.8362893 71.7831817,86.5754416 72.6956522,86.5754416 L79.5026087,86.5754416 C83.669458,89.2001479 88.331202,90.9420825 93.1991304,91.6933644 L20.5034783,91.6933644 L20.4043478,91.6933644 Z M64.1704348,67.5565803 L64.1704348,83.2570465 L60.6513043,83.2570465 L60.6513043,41.983476 L64.1704348,41.983476 L64.1704348,43.2381925 C61.4462403,51.1157855 61.4462403,59.6789874 64.1704348,67.5565803 L64.1704348,67.5565803 Z M74.3478261,83.273556 L74.3478261,82.7122354 L74.3478261,82.7122354 C74.5562729,82.9128346 74.7769877,83.1003024 75.0086957,83.273556 L74.3478261,83.273556 L74.3478261,83.273556 Z M80.5434783,83.273556 C80.4929486,83.250177 80.4479132,83.2164256 80.4113043,83.1744994 C78.5476451,82.001487 76.8092771,80.6405956 75.2234783,79.1131801 C74.8104348,78.7004444 74.3973913,78.2711992 74.0008696,77.8419541 L73.786087,77.4622372 C70.9702677,74.2990901 68.7934597,70.6214561 67.3756522,66.6320523 C67.3713231,66.6047066 67.3713231,66.5768509 67.3756522,66.5495052 L67.3756522,66.5495052 C64.8197629,59.3057712 64.8197629,51.4064545 67.3756522,44.1627205 L67.3756522,44.1627205 L67.3756522,44.0801734 C72.3570956,30.1578762 85.8951469,21.1555016 100.670734,21.9400007 C115.44632,22.7244997 127.953465,33.1097251 131.430435,47.4811156 L131.430435,63.264129 C130.014714,69.2650889 126.953914,74.7532733 122.591304,79.1131801 C121.554487,80.1272304 120.450543,81.0703993 119.286957,81.9362923 C118.526957,82.5306317 117.733913,83.0919523 116.924348,83.5872351 C105.784168,90.6754035 91.5200794,90.5784851 80.4773913,83.3395937 L80.5434783,83.273556 Z M131.496522,72.5259182 L131.496522,79.6414818 L128.621739,77.0990298 C129.658891,75.6618681 130.597278,74.1560529 131.430435,72.5919559 L131.496522,72.5259182 Z M104.665217,91.6933644 C107.442109,91.2712371 110.159449,90.52314 112.76087,89.4645916 C114.693913,88.672139 119.369565,86.1627059 120.823478,85.3702534 L121.467826,86.0966682 L126.424348,91.6933644 L104.665217,91.6933644 Z M144.11913,104.455152 L143.73913,104.455152 C142.633895,104.424138 141.591812,103.933408 140.864348,103.101379 L131.19913,92.1721378 L123.186087,83.0919523 L126.490435,79.7900666 L131.826957,84.4952537 L132.173913,84.7428951 L140.137391,91.7924209 L140.434783,91.9905341 L140.434783,91.9905341 L143.210435,94.4504389 L143.474783,94.6650614 L146.58087,97.422136 C147.089694,97.8680934 147.476359,98.4362954 147.704348,99.0730788 C146.925485,101.111611 145.700561,102.950448 144.11913,104.455152 L144.11913,104.455152 Z" id="Shape" fill="#2B4C49"></path>
                <path d="M38.3823529,58 L31.6339869,58 C30.7315609,58 30,58.7436278 30,59.6609393 L30,85.3390607 C30,86.2563722 30.7315609,87 31.6339869,87 L38.3660131,87 C39.2684391,87 40,86.2563722 40,85.3390607 L40,59.6609393 C40.0000448,58.7500753 39.2783914,58.0091086 38.3823529,58 Z M36.748366,83.6781214 L33.2679739,83.6781214 L33.2679739,61.3218786 L36.7320261,61.3218786 L36.7320261,83.6781214 L36.748366,83.6781214 Z" id="Shape" fill="#2B4C49"></path>
                <path d="M52.3660131,51 L45.6339869,51 C44.7315609,51 44,51.7468836 44,52.6682113 L44,85.3317887 C44,86.2531164 44.7315609,87 45.6339869,87 L52.3660131,87 C53.2684391,87 54,86.2531164 54,85.3317887 L54,52.6682113 C54,51.7468836 53.2684391,51 52.3660131,51 Z M50.7320261,83.6635774 L47.2679739,83.6635774 L47.2679739,54.3364226 L50.7320261,54.3364226 L50.7320261,83.6635774 L50.7320261,83.6635774 Z" id="Shape" fill="#2B4C49"></path>
                <path d="M121.024981,77.5163107 C132.33061,65.9522616 133.040979,47.7056286 122.668615,35.2976961 C112.296251,22.8897636 94.2120738,20.3529918 80.8258867,29.4281753 C67.4396997,38.5033589 63.1018864,56.2411494 70.7891602,70.4694425 C70.8188598,70.5261996 70.8518466,70.5811752 70.8879523,70.6340889 C72.3158489,73.2584921 74.1123555,75.664819 76.2227297,77.779745 C76.7660867,78.3230783 77.325909,78.800553 77.869266,79.2944924 C80.112934,81.2219436 82.4777168,82.7559397 85.0152332,83.953987 C85.1185015,84.0210072 85.228961,84.0762345 85.3445405,84.1186335 C89.473657,86.0250896 93.9688172,87.0083631 98.5168303,86.9999464 C100.171567,86.9914193 101.823115,86.8537963 103.456439,86.5883303 C110.111935,85.5619158 116.17234,82.4770675 120.860327,77.779745 L121.024981,77.5163107 Z M70.7891602,59.8332815 C70.3464204,56.9634543 70.3464204,54.0427053 70.7891602,51.1728781 L70.7891602,59.8003522 L70.7891602,59.8332815 Z M77.507028,74.2233816 C76.1684719,72.7078278 74.9980884,71.0516969 74.0163712,69.283988 L74.0163712,47.5671207 L77.507028,47.5671207 L77.507028,74.2233816 Z M91.0744866,82.6862093 C89.8860085,82.3686479 88.7198979,81.9726276 87.5838297,81.5007549 L87.5838297,34.0002529 L91.0744866,34.0002529 L91.0744866,82.702674 L91.0744866,82.6862093 Z M104.65841,83.0319669 L103.209459,83.2954012 L101.167754,83.2954012 L101.167754,37.3919699 L104.65841,37.3919699 L104.65841,83.0484315 L104.65841,83.0319669 Z M118.225869,75.7051997 C117.14059,76.7567038 115.973354,77.7201824 114.735212,78.5865126 L114.735212,43.3521715 L118.225869,43.3521715 L118.225869,75.7051997 L118.225869,75.7051997 Z M113.088676,40.0592424 C112.179319,40.0592424 111.44214,40.7963897 111.44214,41.705707 L111.44214,80.5951994 C110.31366,81.1679836 109.147397,81.6630737 107.951483,82.0770174 L107.951483,35.7455053 C107.951483,34.8361881 107.214304,34.0990408 106.304947,34.0990408 L99.5212174,34.0990408 C98.6118606,34.0990408 97.8746812,34.8361881 97.8746812,35.7455053 L97.8746812,83.6905527 C96.7003053,83.6587371 95.5290249,83.5542612 94.367559,83.3777244 L94.367559,32.3373237 C94.367559,31.4280065 93.6303796,30.6908592 92.7210228,30.6908592 L85.9372935,30.6908592 C85.0279367,30.6908592 84.2907573,31.4280065 84.2907573,32.3373237 L84.2907573,79.821361 C83.0684266,79.1089691 81.9015653,78.3054109 80.8001005,77.4175228 L80.8001005,45.9206562 C80.8001005,45.0113389 80.0629211,44.2741917 79.1535642,44.2741917 L72.7156076,44.2741917 C74.2599693,40.698791 76.4921726,37.5548339 79.2213865,34.9739723 C84.0533282,30.4046812 90.4431493,27.6004127 97.3318366,27.2917667 C108.111444,26.808789 118.220935,32.5215619 123.368293,42.0047103 C128.515651,51.4878587 127.797581,63.0772112 121.518942,71.8524727 L121.518942,41.705707 C121.518942,40.7963897 120.781762,40.0592424 119.872405,40.0592424 L113.088676,40.0592424 Z" id="Shape" fill="#766E6E"></path>
            </g>
        </g>
    </g>
</svg>