<svg width="288" height="288" viewBox="0 0 288 288" version="1.1" xmlns="http://www.w3.org/2000/svg" xmlns:xlink="http://www.w3.org/1999/xlink">
<title>Group</title>
<desc>Created using Figma</desc>
<g id="Canvas" transform="translate(354 509)">
<g id="Group">
<g id="us">
<g id="Welcome">
<g id="Desktop">
<g id="Group 21 Copy 2">
<g id="Oval Copy">
<g id="Vector">
<use xlink:href="#path0_fill" transform="translate(-354 -509)" fill="#D8D8D8" fill-opacity="0.331295"/>
</g>
<g id="Group">
<g id="Vector" filter="url(#filter0_i)">
<use xlink:href="#path0_fill" transform="translate(-354 -509)" fill="#F2F1ED"/>
</g>
</g>
</g>
</g>
</g>
</g>
</g>
<g id="noun_1128301_cc">
<g id="Group">
<g id="Group">
<g id="Group">
<g id="Vector">
<use xlink:href="#path1_fill" transform="translate(-297 -399.8)" fill="#766E6E"/>
<use xlink:href="#path2_stroke" transform="translate(-297 -399.8)" fill="#766E6E"/>
</g>
<g id="Vector">
<use xlink:href="#path3_fill" transform="translate(-288.3 -411.4)" fill="#766E6E"/>
<use xlink:href="#path4_stroke" transform="translate(-288.3 -411.4)" fill="#766E6E"/>
</g>
<g id="Vector">
<use xlink:href="#path5_fill" transform="translate(-218.7 -365)" fill="#766E6E"/>
<use xlink:href="#path6_stroke" transform="translate(-218.7 -365)" fill="#766E6E"/>
</g>
<g id="Vector">
<use xlink:href="#path7_fill" transform="translate(-195.5 -353.4)" fill="#766E6E"/>
<use xlink:href="#path8_stroke" transform="translate(-195.5 -353.4)" fill="#766E6E"/>
</g>
<g id="Vector">
<use xlink:href="#path9_fill" transform="translate(-262.2 -452)" fill="#766E6E"/>
<use xlink:href="#path10_stroke" transform="translate(-262.2 -452)" fill="#766E6E"/>
</g>
<g id="Vector">
<use xlink:href="#path11_fill" transform="translate(-270.9 -440.4)" fill="#766E6E"/>
<use xlink:href="#path12_stroke" transform="translate(-270.9 -440.4)" fill="#766E6E"/>
</g>
<g id="Vector">
<use xlink:href="#path13_fill" transform="translate(-279.6 -330.2)" fill="#766E6E"/>
<use xlink:href="#path14_stroke" transform="translate(-279.6 -330.2)" fill="#766E6E"/>
</g>
</g>
</g>
</g>
</g>
</g>
</g>
<defs>
<filter id="filter0_i" filterUnits="userSpaceOnUse" x="-354" y="-509" width="288" height="289" color-interpolation-filters="sRGB">
<feFlood flood-opacity="0" result="BackgroundImageFix"/>
<feBlend mode="normal" in="SourceGraphic" in2="BackgroundImageFix" result="shape"/>
<feColorMatrix in="SourceAlpha" type="matrix" values="0 0 0 0 0 0 0 0 0 0 0 0 0 0 0 0 0 0 255 0" result="hardAlpha"/>
<feOffset dx="0" dy="1"/>
<feGaussianBlur stdDeviation="1"/>
<feComposite in2="hardAlpha" operator="arithmetic" k2="-1" k3="1"/>
<feColorMatrix type="matrix" values="0 0 0 0 1 0 0 0 0 0.992157 0 0 0 0 0.968627 0 0 0 0.5 0"/>
<feBlend mode="normal" in2="shape" result="effect1_innerShadow"/>
</filter>
<path id="path0_fill" d="M 144 288C 223.529 288 288 223.529 288 144C 288 64.471 223.529 0 144 0C 64.471 0 0 64.471 0 144C 0 223.529 64.471 288 144 288Z"/>
<path id="path1_fill" fill-rule="evenodd" d="M 11.6 5.8C 8.4013 5.8 5.8 8.4013 5.8 11.6L 5.8 110.2C 5.8 113.399 8.4013 116 11.6 116L 136.3 116C 139.499 116 142.1 113.399 142.1 110.2L 142.1 29C 142.1 25.8013 139.499 23.2 136.3 23.2L 56.6109 23.2C 54.7636 23.2 53.0439 22.3706 51.8897 20.9293L 40.6522 6.8817C 40.1012 6.1944 39.2805 5.8 38.3989 5.8L 11.6 5.8ZM 136.3 121.8L 11.6 121.8C 5.2026 121.8 0 116.597 0 110.2L 0 11.6C 0 5.2026 5.2026 0 11.6 0L 38.3989 0C 41.0524 0 43.5232 1.189 45.182 3.2596L 56.4195 17.3072L 136.3 17.4C 142.697 17.4 147.9 22.6026 147.9 29L 147.9 110.2C 147.9 116.597 142.697 121.8 136.3 121.8Z"/>
<path id="path2_stroke" d="M 51.8897 20.9293L 51.1088 21.554L 51.1091 21.5544L 51.8897 20.9293ZM 40.6522 6.8817L 41.4331 6.25702L 41.4324 6.2562L 40.6522 6.8817ZM 45.182 3.2596L 45.9629 2.63493L 45.9624 2.63437L 45.182 3.2596ZM 56.4195 17.3072L 55.6386 17.9319L 55.9384 18.3066L 56.4183 18.3072L 56.4195 17.3072ZM 136.3 17.4L 136.299 18.4L 136.3 18.4L 136.3 17.4ZM 11.6 4.8C 7.84902 4.8 4.8 7.84902 4.8 11.6L 6.8 11.6C 6.8 8.95358 8.95358 6.8 11.6 6.8L 11.6 4.8ZM 4.8 11.6L 4.8 110.2L 6.8 110.2L 6.8 11.6L 4.8 11.6ZM 4.8 110.2C 4.8 113.951 7.84902 117 11.6 117L 11.6 115C 8.95358 115 6.8 112.846 6.8 110.2L 4.8 110.2ZM 11.6 117L 136.3 117L 136.3 115L 11.6 115L 11.6 117ZM 136.3 117C 140.051 117 143.1 113.951 143.1 110.2L 141.1 110.2C 141.1 112.846 138.946 115 136.3 115L 136.3 117ZM 143.1 110.2L 143.1 29L 141.1 29L 141.1 110.2L 143.1 110.2ZM 143.1 29C 143.1 25.249 140.051 22.2 136.3 22.2L 136.3 24.2C 138.946 24.2 141.1 26.3536 141.1 29L 143.1 29ZM 136.3 22.2L 56.6109 22.2L 56.6109 24.2L 136.3 24.2L 136.3 22.2ZM 56.6109 22.2C 55.0684 22.2 53.6354 21.5095 52.6703 20.3042L 51.1091 21.5544C 52.4524 23.2317 54.4588 24.2 56.6109 24.2L 56.6109 22.2ZM 52.6706 20.3046L 41.4331 6.25702L 39.8713 7.50637L 51.1088 21.554L 52.6706 20.3046ZM 41.4324 6.2562C 40.6918 5.33234 39.5842 4.8 38.3989 4.8L 38.3989 6.8C 38.9768 6.8 39.5106 7.05645 39.872 7.5072L 41.4324 6.2562ZM 38.3989 4.8L 11.6 4.8L 11.6 6.8L 38.3989 6.8L 38.3989 4.8ZM 136.3 120.8L 11.6 120.8L 11.6 122.8L 136.3 122.8L 136.3 120.8ZM 11.6 120.8C 5.75488 120.8 1 116.045 1 110.2L -1 110.2C -1 117.15 4.65032 122.8 11.6 122.8L 11.6 120.8ZM 1 110.2L 1 11.6L -1 11.6L -1 110.2L 1 110.2ZM 1 11.6C 1 5.75488 5.75488 1 11.6 1L 11.6 -1C 4.65032 -1 -1 4.65032 -1 11.6L 1 11.6ZM 11.6 1L 38.3989 1L 38.3989 -1L 11.6 -1L 11.6 1ZM 38.3989 1C 40.7482 1 42.9322 2.05064 44.4016 3.88483L 45.9624 2.63437C 44.1143 0.327365 41.3566 -1 38.3989 -1L 38.3989 1ZM 44.4011 3.88428L 55.6386 17.9319L 57.2004 16.6825L 45.9629 2.63493L 44.4011 3.88428ZM 56.4183 18.3072L 136.299 18.4L 136.301 16.4L 56.4207 16.3072L 56.4183 18.3072ZM 136.3 18.4C 142.145 18.4 146.9 23.1549 146.9 29L 148.9 29C 148.9 22.0503 143.25 16.4 136.3 16.4L 136.3 18.4ZM 146.9 29L 146.9 110.2L 148.9 110.2L 148.9 29L 146.9 29ZM 146.9 110.2C 146.9 116.045 142.145 120.8 136.3 120.8L 136.3 122.8C 143.25 122.8 148.9 117.15 148.9 110.2L 146.9 110.2Z"/>
<path id="path3_fill" fill-rule="evenodd" d="M 121.8 34.8C 120.199 34.8 118.9 33.5008 118.9 31.9C 118.9 27.1034 114.997 23.2 110.2 23.2L 56.6399 23.2C 54.7607 23.2 53.0207 22.3503 51.8665 20.8655L 42.4618 8.7725C 40.9915 6.8846 38.7759 5.8 36.3805 5.8L 14.5 5.8C 9.7034 5.8 5.8 9.7034 5.8 14.5C 5.8 16.1008 4.5008 17.4 2.9 17.4C 1.2992 17.4 0 16.1008 0 14.5C 0 6.5047 6.5047 0 14.5 0L 36.3805 0C 40.5768 0 44.4628 1.8995 47.0409 5.2113L 56.4427 17.3043L 110.2 17.4C 118.195 17.4 124.7 23.9047 124.7 31.9C 124.7 33.5008 123.401 34.8 121.8 34.8Z"/>
<path id="path4_stroke" d="M 51.8665 20.8655L 52.656 20.2518L 52.6559 20.2516L 51.8665 20.8655ZM 42.4618 8.7725L 43.2512 8.1586L 43.2508 8.15805L 42.4618 8.7725ZM 47.0409 5.2113L 47.8304 4.59752L 47.83 4.59702L 47.0409 5.2113ZM 56.4427 17.3043L 55.6532 17.9181L 55.9528 18.3034L 56.4409 18.3043L 56.4427 17.3043ZM 110.2 17.4L 110.198 18.4L 110.2 18.4L 110.2 17.4ZM 121.8 33.8C 120.751 33.8 119.9 32.9485 119.9 31.9L 117.9 31.9C 117.9 34.0531 119.647 35.8 121.8 35.8L 121.8 33.8ZM 119.9 31.9C 119.9 26.5511 115.549 22.2 110.2 22.2L 110.2 24.2C 114.444 24.2 117.9 27.6557 117.9 31.9L 119.9 31.9ZM 110.2 22.2L 56.6399 22.2L 56.6399 24.2L 110.2 24.2L 110.2 22.2ZM 56.6399 22.2C 55.0689 22.2 53.6205 21.4925 52.656 20.2518L 51.077 21.4792C 52.4209 23.2081 54.4525 24.2 56.6399 24.2L 56.6399 22.2ZM 52.6559 20.2516L 43.2512 8.1586L 41.6724 9.3864L 51.0771 21.4794L 52.6559 20.2516ZM 43.2508 8.15805C 41.5912 6.02715 39.0846 4.8 36.3805 4.8L 36.3805 6.8C 38.4672 6.8 40.3918 7.74205 41.6728 9.38694L 43.2508 8.15805ZM 36.3805 4.8L 14.5 4.8L 14.5 6.8L 36.3805 6.8L 36.3805 4.8ZM 14.5 4.8C 9.15111 4.8 4.8 9.15111 4.8 14.5L 6.8 14.5C 6.8 10.2557 10.2557 6.8 14.5 6.8L 14.5 4.8ZM 4.8 14.5C 4.8 15.5485 3.94851 16.4 2.9 16.4L 2.9 18.4C 5.05308 18.4 6.8 16.6531 6.8 14.5L 4.8 14.5ZM 2.9 16.4C 1.85148 16.4 1 15.5485 1 14.5L -1 14.5C -1 16.6531 0.746915 18.4 2.9 18.4L 2.9 16.4ZM 1 14.5C 1 7.05698 7.05698 1 14.5 1L 14.5 -1C 5.95242 -1 -1 5.95242 -1 14.5L 1 14.5ZM 14.5 1L 36.3805 1L 36.3805 -1L 14.5 -1L 14.5 1ZM 36.3805 1C 40.2683 1 43.8632 2.75715 46.2518 5.82557L 47.83 4.59702C 45.0624 1.04185 40.8853 -1 36.3805 -1L 36.3805 1ZM 46.2514 5.82508L 55.6532 17.9181L 57.2322 16.6905L 47.8304 4.59752L 46.2514 5.82508ZM 56.4409 18.3043L 110.198 18.4L 110.202 16.4L 56.4445 16.3043L 56.4409 18.3043ZM 110.2 18.4C 117.643 18.4 123.7 24.457 123.7 31.9L 125.7 31.9C 125.7 23.3524 118.748 16.4 110.2 16.4L 110.2 18.4ZM 123.7 31.9C 123.7 32.9485 122.849 33.8 121.8 33.8L 121.8 35.8C 123.953 35.8 125.7 34.0531 125.7 31.9L 123.7 31.9Z"/>
<path id="path5_fill" fill-rule="evenodd" d="M 49.3 5.8L 2.9 5.8C 1.2992 5.8 0 4.5008 0 2.9C 0 1.2992 1.2992 0 2.9 0L 49.3 0C 50.9008 0 52.2 1.2992 52.2 2.9C 52.2 4.5008 50.9008 5.8 49.3 5.8Z"/>
<path id="path6_stroke" d="M 49.3 4.8L 2.9 4.8L 2.9 6.8L 49.3 6.8L 49.3 4.8ZM 2.9 4.8C 1.85148 4.8 1 3.94851 1 2.9L -1 2.9C -1 5.05308 0.746915 6.8 2.9 6.8L 2.9 4.8ZM 1 2.9C 1 1.85148 1.85148 1 2.9 1L 2.9 -1C 0.746915 -1 -1 0.746915 -1 2.9L 1 2.9ZM 2.9 1L 49.3 1L 49.3 -1L 2.9 -1L 2.9 1ZM 49.3 1C 50.3485 1 51.2 1.85148 51.2 2.9L 53.2 2.9C 53.2 0.746915 51.4531 -1 49.3 -1L 49.3 1ZM 51.2 2.9C 51.2 3.94851 50.3485 4.8 49.3 4.8L 49.3 6.8C 51.4531 6.8 53.2 5.05308 53.2 2.9L 51.2 2.9Z"/>
<path id="path7_fill" fill-rule="evenodd" d="M 26.1 5.8L 2.9 5.8C 1.2992 5.8 0 4.5008 0 2.9C 0 1.2992 1.2992 0 2.9 0L 26.1 0C 27.7008 0 29 1.2992 29 2.9C 29 4.5008 27.7008 5.8 26.1 5.8Z"/>
<path id="path8_stroke" d="M 26.1 4.8L 2.9 4.8L 2.9 6.8L 26.1 6.8L 26.1 4.8ZM 2.9 4.8C 1.85148 4.8 1 3.94851 1 2.9L -1 2.9C -1 5.05308 0.746915 6.8 2.9 6.8L 2.9 4.8ZM 1 2.9C 1 1.85148 1.85148 1 2.9 1L 2.9 -1C 0.746915 -1 -1 0.746915 -1 2.9L 1 2.9ZM 2.9 1L 26.1 1L 26.1 -1L 2.9 -1L 2.9 1ZM 26.1 1C 27.1485 1 28 1.85148 28 2.9L 30 2.9C 30 0.746915 28.2531 -1 26.1 -1L 26.1 1ZM 28 2.9C 28 3.94851 27.1485 4.8 26.1 4.8L 26.1 6.8C 28.2531 6.8 30 5.05308 30 2.9L 28 2.9Z"/>
<path id="path9_fill" fill-rule="evenodd" d="M 121.8 34.8C 120.199 34.8 118.9 33.5008 118.9 31.9C 118.9 27.1034 114.997 23.2 110.2 23.2L 56.6399 23.2C 54.7607 23.2 53.0207 22.3503 51.8665 20.8655L 42.4618 8.7725C 40.9915 6.8846 38.7759 5.8 36.3805 5.8L 14.5 5.8C 9.7034 5.8 5.8 9.7034 5.8 14.5C 5.8 16.1008 4.5008 17.4 2.9 17.4C 1.2992 17.4 0 16.1008 0 14.5C 0 6.5047 6.5047 0 14.5 0L 36.3805 0C 40.5768 0 44.4628 1.8995 47.0409 5.2113L 56.4427 17.3043L 110.2 17.4C 118.195 17.4 124.7 23.9047 124.7 31.9C 124.7 33.5008 123.401 34.8 121.8 34.8Z"/>
<path id="path10_stroke" d="M 51.8665 20.8655L 52.656 20.2518L 52.6559 20.2516L 51.8665 20.8655ZM 42.4618 8.7725L 43.2512 8.1586L 43.2508 8.15806L 42.4618 8.7725ZM 47.0409 5.2113L 47.8304 4.59752L 47.83 4.59702L 47.0409 5.2113ZM 56.4427 17.3043L 55.6532 17.9181L 55.9528 18.3034L 56.4409 18.3043L 56.4427 17.3043ZM 110.2 17.4L 110.198 18.4L 110.2 18.4L 110.2 17.4ZM 121.8 33.8C 120.751 33.8 119.9 32.9485 119.9 31.9L 117.9 31.9C 117.9 34.0531 119.647 35.8 121.8 35.8L 121.8 33.8ZM 119.9 31.9C 119.9 26.5511 115.549 22.2 110.2 22.2L 110.2 24.2C 114.444 24.2 117.9 27.6557 117.9 31.9L 119.9 31.9ZM 110.2 22.2L 56.6399 22.2L 56.6399 24.2L 110.2 24.2L 110.2 22.2ZM 56.6399 22.2C 55.0689 22.2 53.6205 21.4925 52.656 20.2518L 51.077 21.4792C 52.4209 23.2081 54.4525 24.2 56.6399 24.2L 56.6399 22.2ZM 52.6559 20.2516L 43.2512 8.1586L 41.6724 9.3864L 51.0771 21.4794L 52.6559 20.2516ZM 43.2508 8.15806C 41.5912 6.02715 39.0846 4.8 36.3805 4.8L 36.3805 6.8C 38.4672 6.8 40.3918 7.74205 41.6728 9.38694L 43.2508 8.15806ZM 36.3805 4.8L 14.5 4.8L 14.5 6.8L 36.3805 6.8L 36.3805 4.8ZM 14.5 4.8C 9.15111 4.8 4.8 9.15111 4.8 14.5L 6.8 14.5C 6.8 10.2557 10.2557 6.8 14.5 6.8L 14.5 4.8ZM 4.8 14.5C 4.8 15.5485 3.94851 16.4 2.9 16.4L 2.9 18.4C 5.05308 18.4 6.8 16.6531 6.8 14.5L 4.8 14.5ZM 2.9 16.4C 1.85148 16.4 1 15.5485 1 14.5L -1 14.5C -1 16.6531 0.746915 18.4 2.9 18.4L 2.9 16.4ZM 1 14.5C 1 7.05698 7.05698 1 14.5 1L 14.5 -1C 5.95242 -1 -1 5.95242 -1 14.5L 1 14.5ZM 14.5 1L 36.3805 1L 36.3805 -1L 14.5 -1L 14.5 1ZM 36.3805 1C 40.2683 1 43.8632 2.75715 46.2518 5.82558L 47.83 4.59702C 45.0624 1.04185 40.8853 -1 36.3805 -1L 36.3805 1ZM 46.2514 5.82508L 55.6532 17.9181L 57.2322 16.6905L 47.8304 4.59752L 46.2514 5.82508ZM 56.4409 18.3043L 110.198 18.4L 110.202 16.4L 56.4445 16.3043L 56.4409 18.3043ZM 110.2 18.4C 117.643 18.4 123.7 24.457 123.7 31.9L 125.7 31.9C 125.7 23.3524 118.748 16.4 110.2 16.4L 110.2 18.4ZM 123.7 31.9C 123.7 32.9485 122.849 33.8 121.8 33.8L 121.8 35.8C 123.953 35.8 125.7 34.0531 125.7 31.9L 123.7 31.9Z"/>
<path id="path11_fill" fill-rule="evenodd" d="M 136.3 121.8L 118.9 121.8C 117.299 121.8 116 120.501 116 118.9C 116 117.299 117.299 116 118.9 116L 136.3 116C 139.499 116 142.1 113.399 142.1 110.2L 142.1 29C 142.1 25.8013 139.499 23.2 136.3 23.2L 56.6109 23.2C 54.7636 23.2 53.0439 22.3706 51.8897 20.9293L 40.6522 6.8817C 40.1012 6.1944 39.2805 5.8 38.3989 5.8L 11.6 5.8C 8.4013 5.8 5.8 8.4013 5.8 11.6L 5.8 31.9C 5.8 33.5008 4.5008 34.8 2.9 34.8C 1.2992 34.8 0 33.5008 0 31.9L 0 11.6C 0 5.2026 5.2026 0 11.6 0L 38.3989 0C 41.0524 0 43.5232 1.189 45.182 3.2596L 56.4195 17.3072L 136.3 17.4C 142.697 17.4 147.9 22.6026 147.9 29L 147.9 110.2C 147.9 116.597 142.697 121.8 136.3 121.8Z"/>
<path id="path12_stroke" d="M 51.8897 20.9293L 51.1088 21.554L 51.1091 21.5544L 51.8897 20.9293ZM 40.6522 6.8817L 41.4331 6.25702L 41.4324 6.2562L 40.6522 6.8817ZM 45.182 3.2596L 45.9629 2.63492L 45.9624 2.63437L 45.182 3.2596ZM 56.4195 17.3072L 55.6386 17.9319L 55.9384 18.3066L 56.4183 18.3072L 56.4195 17.3072ZM 136.3 17.4L 136.299 18.4L 136.3 18.4L 136.3 17.4ZM 136.3 120.8L 118.9 120.8L 118.9 122.8L 136.3 122.8L 136.3 120.8ZM 118.9 120.8C 117.851 120.8 117 119.949 117 118.9L 115 118.9C 115 121.053 116.747 122.8 118.9 122.8L 118.9 120.8ZM 117 118.9C 117 117.851 117.851 117 118.9 117L 118.9 115C 116.747 115 115 116.747 115 118.9L 117 118.9ZM 118.9 117L 136.3 117L 136.3 115L 118.9 115L 118.9 117ZM 136.3 117C 140.051 117 143.1 113.951 143.1 110.2L 141.1 110.2C 141.1 112.846 138.946 115 136.3 115L 136.3 117ZM 143.1 110.2L 143.1 29L 141.1 29L 141.1 110.2L 143.1 110.2ZM 143.1 29C 143.1 25.249 140.051 22.2 136.3 22.2L 136.3 24.2C 138.946 24.2 141.1 26.3536 141.1 29L 143.1 29ZM 136.3 22.2L 56.6109 22.2L 56.6109 24.2L 136.3 24.2L 136.3 22.2ZM 56.6109 22.2C 55.0684 22.2 53.6354 21.5095 52.6703 20.3042L 51.1091 21.5544C 52.4524 23.2317 54.4588 24.2 56.6109 24.2L 56.6109 22.2ZM 52.6706 20.3046L 41.4331 6.25703L 39.8713 7.50638L 51.1088 21.554L 52.6706 20.3046ZM 41.4324 6.2562C 40.6918 5.33235 39.5842 4.8 38.3989 4.8L 38.3989 6.8C 38.9768 6.8 39.5106 7.05645 39.872 7.5072L 41.4324 6.2562ZM 38.3989 4.8L 11.6 4.8L 11.6 6.8L 38.3989 6.8L 38.3989 4.8ZM 11.6 4.8C 7.84902 4.8 4.8 7.84902 4.8 11.6L 6.8 11.6C 6.8 8.95358 8.95358 6.8 11.6 6.8L 11.6 4.8ZM 4.8 11.6L 4.8 31.9L 6.8 31.9L 6.8 11.6L 4.8 11.6ZM 4.8 31.9C 4.8 32.9485 3.94852 33.8 2.9 33.8L 2.9 35.8C 5.05308 35.8 6.8 34.0531 6.8 31.9L 4.8 31.9ZM 2.9 33.8C 1.85148 33.8 1 32.9485 1 31.9L -1 31.9C -1 34.0531 0.746915 35.8 2.9 35.8L 2.9 33.8ZM 1 31.9L 1 11.6L -1 11.6L -1 31.9L 1 31.9ZM 1 11.6C 1 5.75488 5.75488 1 11.6 1L 11.6 -1C 4.65032 -1 -1 4.65032 -1 11.6L 1 11.6ZM 11.6 1L 38.3989 1L 38.3989 -1L 11.6 -1L 11.6 1ZM 38.3989 1C 40.7482 1 42.9322 2.05064 44.4016 3.88483L 45.9624 2.63437C 44.1143 0.327363 41.3566 -1 38.3989 -1L 38.3989 1ZM 44.4011 3.88428L 55.6386 17.9319L 57.2004 16.6825L 45.9629 2.63492L 44.4011 3.88428ZM 56.4183 18.3072L 136.299 18.4L 136.301 16.4L 56.4207 16.3072L 56.4183 18.3072ZM 136.3 18.4C 142.145 18.4 146.9 23.1549 146.9 29L 148.9 29C 148.9 22.0503 143.25 16.4 136.3 16.4L 136.3 18.4ZM 146.9 29L 146.9 110.2L 148.9 110.2L 148.9 29L 146.9 29ZM 146.9 110.2C 146.9 116.045 142.145 120.8 136.3 120.8L 136.3 122.8C 143.25 122.8 148.9 117.15 148.9 110.2L 146.9 110.2Z"/>
<path id="path13_fill" fill-rule="evenodd" d="M 5.8 29L 52.2 29L 52.2 5.8L 5.8 5.8L 5.8 29ZM 55.1 34.8L 2.9 34.8C 1.2992 34.8 0 33.5008 0 31.9L 0 2.9C 0 1.2992 1.2992 0 2.9 0L 55.1 0C 56.7008 0 58 1.2992 58 2.9L 58 31.9C 58 33.5008 56.7008 34.8 55.1 34.8Z"/>
<path id="path14_stroke" d="M 5.8 29L 4.8 29L 4.8 30L 5.8 30L 5.8 29ZM 52.2 29L 52.2 30L 53.2 30L 53.2 29L 52.2 29ZM 52.2 5.8L 53.2 5.8L 53.2 4.8L 52.2 4.8L 52.2 5.8ZM 5.8 5.8L 5.8 4.8L 4.8 4.8L 4.8 5.8L 5.8 5.8ZM 5.8 30L 52.2 30L 52.2 28L 5.8 28L 5.8 30ZM 53.2 29L 53.2 5.8L 51.2 5.8L 51.2 29L 53.2 29ZM 52.2 4.8L 5.8 4.8L 5.8 6.8L 52.2 6.8L 52.2 4.8ZM 4.8 5.8L 4.8 29L 6.8 29L 6.8 5.8L 4.8 5.8ZM 55.1 33.8L 2.9 33.8L 2.9 35.8L 55.1 35.8L 55.1 33.8ZM 2.9 33.8C 1.85148 33.8 1 32.9485 1 31.9L -1 31.9C -1 34.0531 0.746915 35.8 2.9 35.8L 2.9 33.8ZM 1 31.9L 1 2.9L -1 2.9L -1 31.9L 1 31.9ZM 1 2.9C 1 1.85148 1.85148 1 2.9 1L 2.9 -1C 0.746915 -1 -1 0.746915 -1 2.9L 1 2.9ZM 2.9 1L 55.1 1L 55.1 -1L 2.9 -1L 2.9 1ZM 55.1 1C 56.1485 1 57 1.85148 57 2.9L 59 2.9C 59 0.746915 57.2531 -1 55.1 -1L 55.1 1ZM 57 2.9L 57 31.9L 59 31.9L 59 2.9L 57 2.9ZM 57 31.9C 57 32.9485 56.1485 33.8 55.1 33.8L 55.1 35.8C 57.2531 35.8 59 34.0531 59 31.9L 57 31.9Z"/>
</defs>
</svg>
