<svg width="103px" height="103px" viewBox="0 0 103 103" version="1.1" xmlns="http://www.w3.org/2000/svg" xmlns:xlink="http://www.w3.org/1999/xlink">
    <desc>Created with Sketch.</desc>
    <defs></defs>
    <g id="Welcome" stroke="none" stroke-width="1" fill="none" fill-rule="evenodd">
        <g id="Desktop" transform="translate(-783.000000, -17351.000000)" fill-rule="nonzero" fill="#FFF9E7">
            <g id="noun_1025029_cc" transform="translate(783.000000, 17351.000000)">
                <g id="Group">
                    <g id="Shape">
                        <g>
                            <polygon points="53.2166667 33.5503617 53.2166667 49.1617283 72.25965 43.1877283"></polygon>
                            <polygon points="49.7833333 49.174775 49.7833333 33.4483917 29.43225 42.9140917"></polygon>
                            <polygon points="48.8747017 52.4891433 27.8730017 46.0258933 38.300035 69.6746933"></polygon>
                            <polygon points="67.52165 65.0941117 82.7433333 80.315795 102.61375 37.2635117 78.1461 44.940445"></polygon>
                            <polygon points="23.53035 44.6903267 0.367366667 37.5644433 18.82325 101.32316 36.1135167 73.2264767"></polygon>
                            <polygon points="24.5311667 41.4061717 49.7833333 29.6607383 49.7833333 0.813871667 1.29436667 34.256255"></polygon>
                            <polygon points="64.9148917 67.3405417 39.2524417 74.677575 22.0737583 102.592292 80.2275583 82.654925"></polygon>
                            <polygon points="51.8235917 54.2509583 41.918425 70.3429917 62.137325 64.5646917"></polygon>
                            <polygon points="53.2166667 0.81473 53.2166667 29.70108 76.9513 41.71603 101.400067 34.0442467"></polygon>
                            <polygon points="54.7170333 52.2896667 64.9809833 62.5536167 73.4939333 46.3980667"></polygon>
                        </g>
                    </g>
                </g>
            </g>
        </g>
    </g>
</svg>