
<svg width="60px" height="60px" viewBox="0 0 60 60" version="1.1" xmlns="http://www.w3.org/2000/svg" xmlns:xlink="http://www.w3.org/1999/xlink">
    <!-- Generator: Sketch 48.2 (47327) - http://www.bohemiancoding.com/sketch -->
    <desc>Created with Sketch.</desc>
    <defs></defs>
    <g id="Welcome" stroke="none" stroke-width="1" fill="none" fill-rule="evenodd">
        <g id="Desktop" transform="translate(-195.000000, -16121.000000)" fill="#000000" fill-rule="nonzero">
            <g id="methods" transform="translate(225.000000, 16151.000000) scale(-1, 1) translate(-225.000000, -16151.000000) translate(195.000000, 16121.000000)">
                <path d="M56,28 C56,12.561 43.439,0 28,0 C12.561,0 0,12.561 0,28 L0,40 C0,40.553 0.448,41 1,41 L9,41 L9,52 C9,52.553 9.448,53 10,53 L26,53 L26,58 L23,58 L23,60 L60,60 L60,58 L56,58 L56,28 Z M27,51 L11,51 L11,48 L15,48 C17.757,48 20,45.757 20,43 L18,43 C18,44.654 16.654,46 15,46 L11,46 L11,41 L13,41 L13,39 L2,39 L2,28 C2,13.663 13.664,2 28,2 C42.336,2 54,13.663 54,28 L54,58 L28,58 L28,52 C28,51.447 27.552,51 27,51 Z" id="Shape"></path>
                <path d="M24.5,16.5 C21.743,16.5 19.5,18.743 19.5,21.5 C19.5,24.257 21.743,26.5 24.5,26.5 C27.257,26.5 29.5,24.257 29.5,21.5 C29.5,18.743 27.257,16.5 24.5,16.5 Z M24.5,24.5 C22.846,24.5 21.5,23.154 21.5,21.5 C21.5,19.846 22.846,18.5 24.5,18.5 C26.154,18.5 27.5,19.846 27.5,21.5 C27.5,23.154 26.154,24.5 24.5,24.5 Z" id="Shape"></path>
                <rect id="Rectangle-path" x="40" y="44" width="2" height="2"></rect>
                <path d="M32.966,52.5 L33.849,53.349 C35.844,55.059 38.383,56 41,56 C47.065,56 52,51.065 52,45 C52,43.256 51.601,41.591 50.813,40.05 C50.801,40.023 50.783,39.983 50.783,39.982 L40.032,15.93 L39.017,13.679 C38.998,13.623 38.974,13.569 38.945,13.516 C36.038,8.263 30.503,5 24.5,5 C15.402,5 8,12.402 8,21.5 C8,26.104 9.94,30.528 13.345,33.656 L32.89,52.424 C32.896,52.43 32.961,52.495 32.966,52.5 Z M14.677,32.164 C11.705,29.434 10,25.546 10,21.5 C10,13.505 16.505,7 24.5,7 C29.752,7 34.596,9.842 37.16,14.422 C37.163,14.429 37.166,14.436 37.168,14.441 L48.955,40.794 L48.995,40.885 C49.003,40.904 49.012,40.921 49.021,40.94 C49.67,42.2 50,43.566 50,45 C50,49.963 45.962,54 41,54 C38.86,54 36.783,53.229 35.194,51.87 L34.37,51.076 C34.364,51.07 34.299,51.004 34.293,50.999 L14.735,32.214 L14.677,32.164 Z" id="Shape"></path>
                <path d="M35.107,27.863 L33.361,26.117 C33.632,25.604 33.856,25.063 34.033,24.5 L36.5,24.5 C37.052,24.5 37.5,24.053 37.5,23.5 L37.5,19.5 C37.5,18.947 37.052,18.5 36.5,18.5 L34.034,18.5 C33.857,17.937 33.632,17.396 33.362,16.883 L35.108,15.137 C35.499,14.746 35.499,14.114 35.108,13.723 L32.278,10.893 C31.903,10.518 31.239,10.518 30.864,10.893 L29.118,12.639 C28.605,12.368 28.064,12.144 27.501,11.966 L27.501,9.5 C27.501,8.947 27.053,8.5 26.501,8.5 L22.501,8.5 C21.949,8.5 21.501,8.947 21.501,9.5 L21.501,11.966 C20.938,12.144 20.397,12.368 19.884,12.639 L18.138,10.893 C17.95,10.705 17.695,10.6 17.43,10.6 C17.165,10.6 16.91,10.705 16.723,10.893 L13.893,13.723 C13.502,14.114 13.502,14.746 13.893,15.137 L15.639,16.883 C15.368,17.396 15.144,17.937 14.967,18.5 L12.5,18.5 C11.948,18.5 11.5,18.947 11.5,19.5 L11.5,23.5 C11.5,24.053 11.948,24.5 12.5,24.5 L14.966,24.5 C15.143,25.063 15.368,25.604 15.638,26.117 L13.892,27.863 C13.501,28.254 13.501,28.886 13.892,29.277 L16.722,32.107 C17.097,32.482 17.761,32.482 18.136,32.107 L19.882,30.361 C20.395,30.632 20.936,30.856 21.499,31.034 L21.499,33.5 C21.499,34.053 21.947,34.5 22.499,34.5 L26.499,34.5 C27.051,34.5 27.499,34.053 27.499,33.5 L27.499,31.034 C28.062,30.856 28.603,30.632 29.116,30.361 L30.862,32.107 C31.05,32.295 31.304,32.4 31.569,32.4 C31.834,32.4 32.089,32.295 32.276,32.107 L35.106,29.277 C35.498,28.887 35.498,28.254 35.107,27.863 Z M31.403,26.987 L32.986,28.57 L31.57,29.986 L29.987,28.403 C29.655,28.07 29.136,28.014 28.739,28.269 C27.999,28.744 27.171,29.089 26.276,29.294 C25.821,29.398 25.5,29.803 25.5,30.269 L25.5,32.499 L23.5,32.499 L23.5,30.269 C23.5,29.803 23.178,29.399 22.724,29.294 C21.829,29.09 21,28.744 20.26,28.27 C19.864,28.014 19.344,28.071 19.012,28.404 L17.429,29.987 L16.013,28.571 L17.596,26.988 C17.929,26.655 17.985,26.135 17.73,25.74 C17.254,25.001 16.909,24.172 16.703,23.276 C16.6,22.822 16.196,22.5 15.73,22.5 L13.5,22.5 L13.5,20.5 L15.73,20.5 C16.196,20.5 16.6,20.178 16.705,19.725 C16.911,18.829 17.256,18 17.732,17.261 C17.986,16.865 17.93,16.346 17.598,16.013 L16.015,14.43 L17.431,13.014 L19.014,14.597 C19.347,14.931 19.866,14.988 20.262,14.731 C21.002,14.256 21.83,13.911 22.725,13.706 C23.18,13.602 23.501,13.197 23.501,12.731 L23.501,10.5 L25.501,10.5 L25.501,12.73 C25.501,13.196 25.823,13.6 26.277,13.705 C27.171,13.91 28,14.256 28.74,14.73 C29.136,14.987 29.655,14.93 29.988,14.596 L31.571,13.013 L32.987,14.429 L31.404,16.012 C31.071,16.345 31.015,16.865 31.27,17.26 C31.746,17.999 32.091,18.828 32.297,19.724 C32.4,20.178 32.804,20.5 33.27,20.5 L35.5,20.5 L35.5,22.5 L33.27,22.5 C32.804,22.5 32.4,22.822 32.295,23.275 C32.089,24.171 31.744,25 31.268,25.739 C31.014,26.135 31.07,26.654 31.403,26.987 Z" id="Shape"></path>
                <path d="M36.112,48.474 L34.636,49.95 L36.05,51.364 L37.525,49.888 C38.265,50.413 39.107,50.761 40,50.911 L40,53 L42,53 L42,50.911 C42.893,50.762 43.734,50.414 44.475,49.888 L45.95,51.364 L47.364,49.95 L45.889,48.474 C46.414,47.733 46.762,46.892 46.911,45.999 L49,45.999 L49,43.999 L46.911,43.999 C46.762,43.108 46.414,42.267 45.888,41.525 L47.364,40.049 L45.95,38.635 L44.475,40.111 C43.735,39.586 42.893,39.238 42,39.088 L42,37 L40,37 L40,39.089 C39.109,39.238 38.268,39.586 37.526,40.112 L36.051,38.636 L34.637,40.05 L36.112,41.526 C35.587,42.267 35.239,43.108 35.09,44.001 L33,44.001 L33,46.001 L35.089,46.001 C35.238,46.891 35.585,47.732 36.112,48.474 Z M38.163,42.171 C38.926,41.416 39.934,41 41,41 C42.066,41 43.074,41.416 43.829,42.163 C44.584,42.927 45,43.935 45,45 C45,46.063 44.586,47.069 43.833,47.832 C43.827,47.838 43.819,47.842 43.813,47.848 C42.284,49.338 39.675,49.325 38.171,47.837 C37.416,47.073 37,46.065 37,45 C37,43.935 37.416,42.927 38.163,42.171 Z" id="Shape"></path>
            </g>
        </g>
    </g>
</svg>