
<svg width="291px" height="291px" viewBox="0 0 291 291" version="1.1" xmlns="http://www.w3.org/2000/svg" xmlns:xlink="http://www.w3.org/1999/xlink">
    <defs>
        <circle id="path-1" cx="145.5" cy="145.5" r="145.5"></circle>
        <filter x="-0.5%" y="-0.5%" width="101.0%" height="101.0%" filterUnits="objectBoundingBox" id="filter-2">
            <feGaussianBlur stdDeviation="1" in="SourceAlpha" result="shadowBlurInner1"></feGaussianBlur>
            <feOffset dx="0" dy="1" in="shadowBlurInner1" result="shadowOffsetInner1"></feOffset>
            <feComposite in="shadowOffsetInner1" in2="SourceAlpha" operator="arithmetic" k2="-1" k3="1" result="shadowInnerInner1"></feComposite>
            <feColorMatrix values="0 0 0 0 1   0 0 0 0 0.992156863   0 0 0 0 0.968627451  0 0 0 0.5 0" type="matrix" in="shadowInnerInner1"></feColorMatrix>
        </filter>
    </defs>
    <g id="Welcome" stroke="none" stroke-width="1" fill="none" fill-rule="evenodd">
        <g id="Desktop" transform="translate(-97.000000, -741.000000)">
            <g id="Group-20" transform="translate(97.000000, 741.000000)">
                <g id="Oval">
                    <use fill-opacity="0.33129529" fill="#D8D8D8" fill-rule="evenodd" xlink:href="#path-1"></use>
                    <use fill="black" fill-opacity="1" filter="url(#filter-2)" xlink:href="#path-1"></use>
                </g>
                <g id="noun_563259_cc" transform="translate(57.000000, 68.000000)" fill-rule="nonzero" fill="#766E6E">
                    <path d="M131.13161,36.3065461 C137.595314,36.3065461 142.854133,31.0351249 142.854133,24.5538351 C142.854133,18.0725452 137.593222,12.8011241 131.13161,12.8011241 C124.669998,12.8011241 119.409087,18.0725452 119.409087,24.5538351 C119.409087,26.9211519 120.11612,29.1228194 121.323096,30.9680265 L102.350347,46.6690613 C100.595315,45.6164545 98.5516134,45.0020844 96.3614846,45.0020844 C90.1550737,45.0020844 85.0740585,49.8625276 84.6745221,55.9831634 L66.7706896,61.1665178 C64.6495907,58.1261198 61.1374357,56.132038 57.1650817,56.132038 C50.6992859,56.132038 45.4404665,61.4034591 45.4404665,67.884749 C45.4404665,71.8225886 47.3900368,75.305417 50.3645957,77.4399861 L47.9694691,89.8238418 C41.5329587,89.857391 36.3076084,95.1141343 36.3076084,101.572359 C36.3076084,103.098849 36.6088296,104.554046 37.1401502,105.893918 L30.668079,111.094047 C28.6641216,109.494169 26.1351189,108.531725 23.3802004,108.531725 C16.9144046,108.531725 11.6555853,113.803146 11.6555853,120.284436 C11.6555853,126.765726 16.9164965,132.037147 23.3802004,132.037147 C29.8439044,132.037147 35.1027238,126.765726 35.1027238,120.284436 C35.1027238,119.23812 34.9521132,118.229547 34.6948201,117.26291 L41.8320881,111.52809 C43.6331396,112.660376 45.7542385,113.32507 48.0343154,113.32507 C54.5001111,113.32507 59.7568387,108.053649 59.7568387,101.572359 C59.7568387,97.6995211 57.8721146,94.2691134 54.9812283,92.1282538 L57.3993648,79.624879 C63.6497038,79.5011663 68.7098008,74.4541056 68.8750541,68.1971761 L86.504859,63.0935011 C88.592489,66.3456786 92.228061,68.5075064 96.3635764,68.5075064 C102.82728,68.5075064 108.0861,63.2360853 108.0861,56.7547954 C108.0861,55.1402392 107.759777,53.6011688 107.169885,52.2004888 L127.211551,35.6145934 C128.437354,36.0528301 129.753105,36.3065461 131.13161,36.3065461 Z M131.13161,20.1400159 C133.558114,20.1400159 135.532786,22.1194198 135.532786,24.5538351 C135.532786,26.9882503 133.558114,28.9676543 131.13161,28.9676543 C128.705106,28.9676543 126.730434,26.9882503 126.730434,24.5538351 C126.730434,22.1194198 128.705106,20.1400159 131.13161,20.1400159 Z M23.373925,124.698256 C20.9453294,124.698256 18.9706574,122.718852 18.9706574,120.284436 C18.9706574,117.850021 20.9453294,115.870617 23.373925,115.870617 C25.8004288,115.870617 27.7751008,117.850021 27.7751008,120.284436 C27.7751008,122.718852 25.8025206,124.698256 23.373925,124.698256 Z M48.0280399,105.986178 C45.5994443,105.986178 43.6247723,104.006774 43.6247723,101.572359 C43.6247723,99.1379439 45.5994443,97.1585399 48.0280399,97.1585399 C50.4545437,97.1585399 52.4292157,99.1379439 52.4292157,101.572359 C52.4292157,104.006774 50.4566355,105.986178 48.0280399,105.986178 Z M57.1629898,72.2964714 C54.7343943,72.2964714 52.7597222,70.3170674 52.7597222,67.884749 C52.7597222,65.4524306 54.7343943,63.4709298 57.1629898,63.4709298 C59.5894936,63.4709298 61.5641656,65.4503338 61.5641656,67.884749 C61.5641656,70.3191642 59.5894936,72.2964714 57.1629898,72.2964714 Z M96.3593928,61.1686146 C93.9307972,61.1686146 91.9561252,59.1892107 91.9561252,56.7547954 C91.9561252,54.3203802 93.9307972,52.3409762 96.3593928,52.3409762 C98.7858966,52.3409762 100.760569,54.3203802 100.760569,56.7547954 C100.760569,59.1892107 98.7858966,61.1686146 96.3593928,61.1686146 Z M146.646591,143.146133 C146.646591,145.171667 145.008701,146.815579 142.985918,146.815579 L113.24242,146.815579 L113.40349,149.983883 C123.021649,151.636182 127.324509,159.958485 128.284652,164.581987 C128.508476,165.663949 128.238632,166.787848 127.542058,167.64545 C126.847576,168.503052 125.803761,169 124.703467,169 L58.6439939,169 C57.5583426,169 56.5312621,168.51773 55.8346882,167.68529 C55.1402061,166.850753 54.8473522,165.752016 55.0397991,164.680538 C55.8911672,159.937517 59.9785709,151.405531 69.4754046,149.696618 L69.6239234,146.813482 L10.0197871,146.813482 C4.28612604,146.813482 0,140.669781 0,135.178193 L0,9.18829251 C0,3.77848086 4.12087276,0 10.0197871,0 L164.14252,0 C170.033067,0 174.310826,3.86445073 174.310826,9.18829251 L174.310826,117.648726 C174.310826,119.67426 172.672936,121.318172 170.650152,121.318172 C168.627369,121.318172 166.989479,119.67426 166.989479,117.648726 L166.989479,9.18829251 C166.989479,7.51921884 164.998072,7.33889178 164.14252,7.33889178 L10.0197871,7.33889178 C8.22919464,7.33889178 7.32134755,7.96164917 7.32134755,9.18829251 L7.32134755,135.18029 C7.32134755,137.310665 9.05127738,139.476687 10.0197871,139.476687 L73.4791358,139.476687 C74.4811145,139.476687 75.4412569,139.889762 76.1336472,140.619457 C76.8260375,141.349153 77.1879213,142.330467 77.135626,143.334847 L76.6273153,153.252835 C76.5269082,155.202883 74.9203954,156.733567 72.9708251,156.733567 C68.1973065,156.733567 65.4884079,159.241371 63.9823021,161.663205 L119.120416,161.663205 C117.505536,159.358793 114.689955,157.033413 109.912253,157.033413 C107.962683,157.033413 106.35617,155.50273 106.255763,153.550584 L105.734901,143.33275 C105.684698,142.32837 106.046582,141.347056 106.73688,140.61736 C107.427178,139.887665 108.387321,139.476687 109.391391,139.476687 L142.988009,139.476687 C145.008701,139.476687 146.646591,141.120599 146.646591,143.146133 Z M182.002425,141.296732 L165.297201,124.551478 C165.113122,124.366957 164.910216,124.203405 164.694759,124.062917 C163.366457,123.203218 162.820494,123.012407 162.613404,122.939018 C162.230603,122.804821 161.780863,122.712561 161.266277,122.662237 L160.22037,122.112869 L154.059979,116.061428 C156.900662,111.316311 158.454879,105.468262 158.454879,99.4294027 C158.454879,81.0591082 143.536065,66.1129308 125.199227,66.1129308 C116.319478,66.1129308 107.968958,69.5789846 101.689334,75.8736569 C95.4097094,82.1683292 91.9519416,90.5388595 91.9519416,99.4398868 C91.9498498,117.793407 106.881215,132.727003 125.238971,132.727003 C131.851194,132.727003 137.329654,131.37455 141.933735,128.598352 L148.108769,134.490434 L148.681926,135.58288 C148.742589,135.989665 148.828353,136.350319 148.939219,136.669036 C149.004065,136.853557 149.177686,137.344214 149.934922,138.585536 C150.085533,138.835058 150.265429,139.065709 150.472518,139.271198 L167.248863,156.087744 C168.602267,157.446488 170.445155,158.192958 172.436561,158.192958 C174.883983,158.192958 177.417169,157.058575 179.385566,155.085461 L180.761979,153.70575 C182.349666,152.116355 183.441592,150.095015 183.839037,148.01706 C184.336889,145.414899 183.667508,142.963709 182.002425,141.296732 Z M99.2711973,99.4398868 C99.2711973,92.499392 101.967545,85.971972 106.864481,81.0633018 C111.763508,76.1546316 118.273232,73.4518226 125.199227,73.4518226 C139.500956,73.4518226 151.133532,85.1059828 151.133532,99.4294027 C151.133532,104.47227 149.706915,109.479491 147.22184,113.169905 C146.813936,113.777985 146.558735,114.098799 146.516899,114.15122 C146.475063,114.199447 146.447869,114.256061 146.410216,114.306385 C146.376747,114.350418 146.334911,114.386064 146.303534,114.432194 C145.914457,114.987853 144.648909,116.696767 143.441933,117.906635 C141.944194,119.407963 140.745585,120.521378 140.233091,120.991067 C139.936053,121.1672 139.50514,121.4314 138.975911,121.787861 C135.342431,124.243244 130.978908,125.386015 125.241063,125.386015 C110.920507,125.388111 99.2711973,113.746532 99.2711973,99.4398868 Z M175.586832,148.514008 L174.208327,149.895816 C173.549406,150.558413 172.844465,150.854066 172.436561,150.854066 L172.42401,150.898099 L155.969805,134.402367 C155.944703,134.362528 155.923785,134.322688 155.900775,134.282848 C155.900775,134.266074 155.898683,134.255589 155.898683,134.251396 C155.865214,133.737673 155.725062,133.238629 155.486596,132.783617 L154.308905,130.540013 C154.122733,130.187747 153.882175,129.864835 153.591412,129.590151 L147.7176,123.985335 C148.004178,123.70436 148.301216,123.410804 148.61708,123.094183 C148.970596,122.73982 149.30947,122.366585 149.639977,121.995447 L155.482412,127.73446 C155.737613,127.986079 156.030467,128.197859 156.348423,128.365605 L158.578296,129.535634 C159.111709,129.814512 159.578183,129.988548 160.260114,129.952902 C160.260114,129.952902 160.264298,129.950805 160.285216,129.952902 C160.327052,129.978064 160.364705,130.001129 160.404449,130.024194 L176.680851,146.341696 C176.685034,146.719125 176.417282,147.681568 175.586832,148.514008 Z" id="Shape"></path>
                </g>
            </g>
        </g>
    </g>
</svg>