
<svg width="148px" height="136px" viewBox="0 0 148 136" version="1.1" xmlns="http://www.w3.org/2000/svg" xmlns:xlink="http://www.w3.org/1999/xlink">
    <defs></defs>
    <g id="Welcome" stroke="none" stroke-width="1" fill="none" fill-rule="evenodd">
        <g id="Desktop" transform="translate(-435.000000, -2399.000000)" fill-rule="nonzero" fill="#204848">
            <g id="noun_875982_cc" transform="translate(435.000000, 2399.000000)">
                <path d="M148,101.865966 L148,10.7227332 C148,4.82522996 143.168077,0 137.262394,0 L10.7376058,0 C4.83192261,0 0,4.82522996 0,10.7227332 L0,101.865966 L73.3736397,101.865966 L73.3736397,116.162943 L56.0145103,133.498029 L58.5199516,136 L73.3736397,121.166886 L73.3736397,134.749014 L76.9528416,134.749014 L76.9528416,121.345598 L91.6275695,136 L94.1330109,133.498029 L76.9528416,116.341656 L76.9528416,101.865966 L148,101.865966 Z M3.57920193,12.5098555 L55.1197098,12.5098555 L55.1197098,8.93561104 L3.93712213,8.93561104 C4.83192261,5.89750329 7.51632406,3.57424442 10.9165659,3.57424442 L137.262394,3.57424442 C140.662636,3.57424442 143.347037,5.89750329 144.241838,8.93561104 L92.3434099,8.93561104 L92.3434099,12.5098555 L144.599758,12.5098555 L144.599758,98.2917214 L3.57920193,98.2917214 L3.57920193,12.5098555 Z" id="Shape"></path>
                <rect id="Rectangle-path" x="65" y="9" width="18" height="4"></rect>
                <rect id="Rectangle-path" x="9" y="20" width="4" height="4"></rect>
                <rect id="Rectangle-path" x="9" y="27" width="4" height="4"></rect>
                <path d="M113.311927,63.4460784 L113.311927,61.2990196 C113.491743,60.4044118 113.67156,57.3627451 111.693578,54.6789216 C110.075229,52.7107843 107.377982,51.6372549 103.781651,51.6372549 L77.5284404,51.6372549 L77.5284404,45.375 C84.3614679,44.4803922 89.5761468,38.754902 89.5761468,31.7769608 C89.5761468,24.0833333 83.2825688,18 75.7302752,18 C67.9981651,18 61.8844037,24.2622549 61.8844037,31.7769608 C61.8844037,38.754902 67.2788991,44.6593137 74.1119266,45.375 L74.1119266,51.6372549 L48.5779817,51.6372549 C44.9816514,51.6372549 42.2844037,52.7107843 40.666055,54.6789216 C38.6880734,57.1838235 38.8678899,60.4044118 39.0477064,61.2990196 L39.0477064,63.4460784 C32.3944954,64.1617647 27,70.0661765 27,77.0441176 C27,84.7377451 33.293578,90.8210784 40.8458716,90.8210784 C48.3981651,90.8210784 54.6917431,84.5588235 54.6917431,77.0441176 C54.6917431,70.0661765 49.4770642,64.3406863 42.6440367,63.4460784 L42.6440367,61.120098 L42.6440367,60.7622549 C42.6440367,60.7622549 42.2844037,58.4362745 43.5431193,57.004902 C44.4422018,55.9313725 46.240367,55.3946078 48.5779817,55.3946078 L73.9321101,55.3946078 L73.9321101,63.4460784 C67.0990826,64.1617647 61.7045872,70.0661765 61.7045872,77.2230392 C61.7045872,84.9166667 67.9981651,91 75.5504587,91 C83.2825688,91 89.3963303,84.7377451 89.3963303,77.2230392 C89.3963303,70.245098 84.1816514,64.5196078 77.5284404,63.625 L77.5284404,55.3946078 L103.961468,55.3946078 C106.299083,55.3946078 108.097248,55.9313725 108.99633,57.004902 C110.255046,58.6151961 109.895413,60.7622549 109.895413,60.7622549 L109.895413,63.2671569 C102.882569,63.9828431 97.3082569,69.8872549 97.3082569,77.0441176 C97.3082569,84.7377451 103.601835,90.8210784 111.154128,90.8210784 C118.886239,90.8210784 125,84.5588235 125,77.0441176 C125,70.245098 119.965138,64.5196078 113.311927,63.4460784 Z M51.2752294,77.0441176 C51.2752294,82.7696078 46.6,87.2426471 41.0256881,87.2426471 C35.4513761,87.2426471 30.5963303,82.5906863 30.5963303,77.0441176 C30.5963303,71.497549 35.2715596,66.8455882 40.8458716,66.8455882 C46.4201835,66.8455882 51.2752294,71.3186275 51.2752294,77.0441176 Z M65.3009174,31.7769608 C65.3009174,26.0514706 69.9761468,21.5784314 75.5504587,21.5784314 C81.1247706,21.5784314 85.8,26.2303922 85.8,31.7769608 C85.8,37.502451 81.1247706,41.9754902 75.5504587,41.9754902 C69.9761468,41.9754902 65.3009174,37.3235294 65.3009174,31.7769608 Z M85.6201835,77.0441176 C85.6201835,82.7696078 80.9449541,87.2426471 75.3706422,87.2426471 C69.7963303,87.2426471 65.1211009,82.5906863 65.1211009,77.0441176 C65.1211009,71.497549 69.7963303,66.8455882 75.3706422,66.8455882 C80.9449541,66.8455882 85.6201835,71.3186275 85.6201835,77.0441176 Z M111.154128,87.2426471 C105.4,87.2426471 100.904587,82.5906863 100.904587,77.0441176 C100.904587,71.497549 105.579817,66.8455882 111.154128,66.8455882 C116.72844,66.8455882 121.40367,71.497549 121.40367,77.0441176 C121.40367,82.5906863 116.72844,87.2426471 111.154128,87.2426471 Z" id="Shape"></path>
                <path d="M82,32 C82,28.15 78.85,25 75,25 C71.15,25 68,28.15 68,32 C68,35.85 71.15,39 75,39 C78.85,39 82,35.85 82,32 Z M71.5,32 C71.5,30.075 73.075,28.5 75,28.5 C76.925,28.5 78.5,30.075 78.5,32 C78.5,33.925 76.925,35.5 75,35.5 C73.075,35.5 71.5,33.925 71.5,32 Z" id="Shape"></path>
            </g>
        </g>
    </g>
</svg>