<svg xmlns="http://www.w3.org/2000/svg" xmlns:xlink="http://www.w3.org/1999/xlink" version="1.1" x="0px" y="0px" viewBox="0 0 65 81.25" enable-background="new 0 0 65 65" xml:space="preserve" stroke-width="5" fill="#214848"><g><path d="M47.3,36.8c-1.2-0.3-2.3-0.5-3.5-0.5c-0.1,0-0.3,0-0.4,0c-0.1,0-0.3,0-0.4,0c-1.1,0-2.3,0.2-3.5,0.5   c-5.3,1.4-9.1,5.3-9.3,5.4l-0.5,0.5l0.5,0.5c0.1,0.1,2.1,2.1,5.2,3.8c2.7,1.4,5.3,2.2,7.9,2.2c0,0,0,0,0.1,0c0,0,0,0,0.1,0   c2.6,0,5.2-0.7,7.9-2.2c3.1-1.7,5.1-3.7,5.2-3.8l0.5-0.5l-0.5-0.5C56.4,42,52.6,38.2,47.3,36.8z M43.4,47.7   C43.4,47.7,43.4,47.7,43.4,47.7C43.4,47.7,43.4,47.7,43.4,47.7c-2.8,0-5-2.2-5-5c0-2.7,2.2-4.9,4.9-5c0,0,0.1,0,0.1,0   c2.7,0,4.9,2.3,4.9,5C48.4,45.5,46.2,47.7,43.4,47.7z M31.9,42.7c1-0.9,3.4-2.8,6.4-3.9c-0.8,1.1-1.3,2.5-1.3,3.9   c0,1.5,0.5,2.9,1.4,4c-0.7-0.3-1.4-0.6-2.1-1C34.2,44.6,32.7,43.4,31.9,42.7z M50.7,45.7c-0.7,0.4-1.4,0.7-2.1,1   c0.8-1.1,1.4-2.5,1.4-4c0-1.5-0.5-2.8-1.3-3.9c3,1.2,5.3,3,6.4,3.9C54.2,43.4,52.6,44.6,50.7,45.7z"/><path d="M43.4,40.5c-1.2,0-2.2,1-2.2,2.2c0,1.2,1,2.2,2.2,2.2c1.2,0,2.2-1,2.2-2.2C45.6,41.5,44.6,40.5,43.4,40.5z M43.4,43.4   c-0.4,0-0.7-0.3-0.7-0.7S43,42,43.4,42c0.4,0,0.7,0.3,0.7,0.7S43.8,43.4,43.4,43.4z"/><path d="M37.1,25.1l1.6,6.8l6.4,0c0.3,1.3,1.5,2.2,2.9,2.2c1.6,0,3-1.3,3-3c0-1.6-1.3-3-3-3c-1.4,0-2.5,0.9-2.9,2.2l-5.2,0   l-2.6-11.1l-2.8,9.3l-6.5,0l-2.3,7.2l-4.2-18.5L18,28.4l-5.3,0c-0.3-1.3-1.5-2.2-2.9-2.2c-1.6,0-3,1.3-3,3s1.3,3,3,3   c1.4,0,2.5-0.9,2.9-2.2l6.4,0l2.3-7l4.2,18.6l3.6-11.4l6.5,0L37.1,25.1z M48,29.7c0.8,0,1.5,0.7,1.5,1.5c0,0.8-0.7,1.5-1.5,1.5   s-1.5-0.7-1.5-1.5C46.6,30.3,47.2,29.7,48,29.7z M9.7,30.6c-0.8,0-1.5-0.7-1.5-1.5s0.7-1.5,1.5-1.5c0.8,0,1.5,0.7,1.5,1.5   S10.6,30.6,9.7,30.6z"/><rect x="52" y="10.8" width="1.5" height="1.5"/><rect x="48.2" y="10.8" width="1.5" height="1.5"/><rect x="55.8" y="10.8" width="1.5" height="1.5"/><path d="M61.7,51.3V9.8c0-1.5-1.2-2.8-2.8-2.8H6c-1.5,0-2.8,1.2-2.8,2.8v41.5h-3.5v3l2.8,3.6h60l2.8-3.6v-3H61.7z M6,8.6H59   c0.7,0,1.3,0.6,1.3,1.3v4.4H4.8V9.8C4.8,9.1,5.4,8.6,6,8.6z M4.8,15.8h55.4v35.5H4.8V15.8z M63.8,53.8l-2,2.7H3.3l-2-2.7v-1h62.5   V53.8z"/><rect x="9.1" y="10.8" width="34.6" height="1.5" stroke-width="5"/></g></svg>