
<svg width="239px" height="190px" viewBox="0 0 239 190" version="1.1" xmlns="http://www.w3.org/2000/svg" xmlns:xlink="http://www.w3.org/1999/xlink">
    <defs>
        <rect id="path-1" x="-25" y="97" width="291" height="9" rx="4.5"></rect>
    </defs>
    <g id="Welcome" stroke="none" stroke-width="1" fill="none" fill-rule="evenodd">
        <g id="Desktop" transform="translate(-714.000000, -4160.000000)">
            <g id="Group-23" transform="translate(713.000000, 4160.000000)">
                <g id="noun_484211_cc-copy-2" transform="translate(6.000000, 0.000000)" fill-rule="nonzero" fill="#766E6E">
                    <path d="M94.4417427,145.276808 L94.4417427,146.154613 C94.4417427,147.032419 95.1195542,147.690773 96.2492401,147.690773 L124.717325,147.690773 C125.621074,147.690773 126.524823,147.032419 126.524823,146.154613 L126.524823,145.276808 C126.524823,143.082294 128.33232,141.326683 130.591692,141.326683 L182.783181,141.326683 C185.042553,141.326683 186.850051,143.082294 186.850051,145.276808 C186.850051,147.471322 185.042553,149.226933 182.783181,149.226933 L133.98075,149.226933 C132.625127,152.957606 129.010132,155.591022 124.943262,155.591022 L96.2492401,155.591022 C91.9564336,155.591022 88.3414387,152.957606 87.2117528,149.226933 L38.4093212,149.226933 C36.1499493,149.226933 34.3424519,147.471322 34.3424519,145.276808 C34.3424519,143.082294 36.1499493,141.326683 38.4093212,141.326683 L90.3748734,141.326683 C92.6342452,141.546135 94.4417427,143.301746 94.4417427,145.276808 Z M20.3343465,176 L202.891591,176 C213.962513,176 223,167.221945 223,156.468828 L223,146.154613 C223,143.9601 221.192503,142.204489 218.933131,142.204489 L206.506586,142.204489 L206.506586,107.092269 C206.506586,104.897756 204.699088,103.142145 202.439716,103.142145 C200.180344,103.142145 198.372847,104.897756 198.372847,107.092269 C198.372847,113.377208 198.372847,118.090912 198.372847,121.233381 C198.372847,126.722666 198.372847,134.956593 198.372847,145.935162 C198.372847,148.129676 200.180344,149.885287 202.439716,149.885287 L214.866261,149.885287 L214.866261,156.468828 C214.866261,163.052369 209.443769,168.319202 202.665653,168.319202 L20.3343465,168.319202 C13.556231,168.319202 8.1337386,163.052369 8.1337386,156.468828 L8.1337386,149.885287 L20.5602837,149.885287 C22.8196555,149.885287 24.627153,148.129676 24.627153,145.935162 C24.627153,111.0063 24.627153,84.8096529 24.627153,67.3452217 C24.627153,61.3527397 24.627153,52.3640165 24.627153,40.3790524 C24.627153,37.5261845 26.8865248,35.3316708 29.8237082,35.3316708 L76.5927052,35.3316708 C78.852077,35.3316708 80.6595745,33.5760599 80.6595745,31.3815461 C80.6595745,29.1870324 78.852077,27.4314214 76.5927052,27.4314214 L29.597771,27.4314214 C22.3677812,27.4314214 16.4934144,33.1371571 16.4934144,40.159601 L16.4934144,141.985037 L4.0668693,141.985037 C1.80749747,141.985037 0,143.740648 0,145.935162 L0,156.249377 C0.225937183,167.221945 9.26342452,176 20.3343465,176 Z M190.690983,70.2244389 C192.49848,72.8578554 195.435664,74.8329177 199.050659,74.8329177 L213.284701,74.8329177 C218.707194,74.8329177 223,70.6633416 223,65.3965087 L223,14.7032419 C223,9.43640898 218.707194,5.26683292 213.284701,5.26683292 C211.025329,5.26683292 209.217832,7.02244389 209.217832,9.21695761 C209.217832,11.4114713 211.025329,13.1670823 213.284701,13.1670823 C214.18845,13.1670823 215.092199,14.0448878 215.092199,14.9226933 L215.092199,65.6159601 C215.092199,66.4937656 214.18845,67.3715711 213.284701,67.3715711 L198.824721,67.3715711 C197.920973,67.3715711 197.017224,66.4937656 197.017224,65.6159601 L197.017224,17.5561097 C197.017224,7.90024938 188.883485,0 178.942249,0 L126.75076,0 C114.550152,0 106.868288,6.1446384 105.512665,16.8977556 L98.508612,59.9102244 C98.508612,60.1296758 98.508612,60.3491272 98.508612,60.5685786 L98.508612,61.0074813 C98.508612,70.6633416 106.642351,78.563591 116.583587,78.563591 L128.558257,78.563591 C130.817629,78.563591 132.625127,76.80798 132.625127,74.6134663 C132.625127,72.4189526 130.817629,70.6633416 128.558257,70.6633416 L116.583587,70.6633416 C110.935157,70.6633416 106.416413,66.2743142 106.416413,60.7880299 L113.420466,17.7755611 C114.324215,10.9725686 118.842958,7.46134663 126.75076,7.46134663 L179.168186,7.46134663 C184.816616,7.46134663 189.33536,11.8503741 189.33536,17.3366584 L189.33536,62.5436409 C189.109422,62.5436409 188.883485,62.5436409 188.657548,62.7630923 C187.527862,62.9825436 163.126646,70.0049875 163.126646,91.5112219 L163.126646,109.286783 C160.641337,109.506234 157.026342,109.506234 154.315096,107.531172 C151.377913,105.55611 150.02229,101.825436 150.02229,96.3391521 L150.02229,74.8329177 C150.02229,72.638404 148.214792,70.882793 145.95542,70.882793 C143.696049,70.882793 142.114488,72.638404 142.114488,74.8329177 L142.114488,96.3391521 C142.114488,104.458853 144.599797,110.38404 149.570415,113.895262 C153.18541,116.528678 157.25228,117.187032 160.867275,117.187032 C164.934144,117.187032 168.097264,116.309227 168.323202,116.089776 C169.904762,115.650873 171.034448,114.114713 171.034448,112.359102 L171.034448,91.5112219 C170.808511,75.9301746 189.787234,70.4438903 190.690983,70.2244389 C190.690983,70.2244389 190.690983,70.2244389 190.690983,70.2244389 Z" id="Shape"></path>
                </g>
                <g id="Rectangle-7" opacity="1" transform="translate(120.500000, 101.500000) rotate(36.000000) translate(-120.500000, -101.500000) ">
                    <use fill="#2B4C49" fill-rule="evenodd" xlink:href="#path-1"></use>
                    <rect stroke="none" stroke-width="1" x="-24.5" y="97.5" width="290" height="8" rx="4"></rect>
                </g>
            </g>
        </g>
    </g>
</svg>