
<svg width="107px" height="88px" viewBox="0 0 107 88" version="1.1" xmlns="http://www.w3.org/2000/svg" xmlns:xlink="http://www.w3.org/1999/xlink">
    <defs></defs>
    <g id="Welcome" stroke="none" stroke-width="1" fill="none" fill-rule="evenodd">
        <g id="Desktop" transform="translate(-574.000000, -6819.000000)" fill="#766E6E">
            <g id="Group-32" transform="translate(574.000000, 6819.000000)">
                <g id="noun_484211_cc-copy-3" transform="translate(2.000000, 0.000000)" fill-rule="nonzero">
                    <path d="M43.621074,68.5112219 L43.621074,68.925187 C43.621074,69.3391521 43.9341439,69.6496259 44.4559271,69.6496259 L57.6048632,69.6496259 C58.0222898,69.6496259 58.4397163,69.3391521 58.4397163,68.925187 L58.4397163,68.5112219 C58.4397163,67.4763092 59.2745694,66.6483791 60.3181358,66.6483791 L84.4245187,66.6483791 C85.4680851,66.6483791 86.3029382,67.4763092 86.3029382,68.5112219 C86.3029382,69.5461347 85.4680851,70.3740648 84.4245187,70.3740648 L61.8834853,70.3740648 C61.2573455,72.1334165 59.5876393,73.3753117 57.7092199,73.3753117 L44.4559271,73.3753117 C42.473151,73.3753117 40.8034448,72.1334165 40.2816616,70.3740648 L17.7406282,70.3740648 C16.6970618,70.3740648 15.8622087,69.5461347 15.8622087,68.5112219 C15.8622087,67.4763092 16.6970618,66.6483791 17.7406282,66.6483791 L41.7426545,66.6483791 C42.7862209,66.7518703 43.621074,67.5798005 43.621074,68.5112219 Z M9.39209726,83 L93.7122594,83 C98.8257345,83 103,78.8603491 103,73.7892768 L103,68.925187 C103,67.8902743 102.165147,67.0623441 101.121581,67.0623441 L95.3819656,67.0623441 L95.3819656,50.5037406 C95.3819656,49.4688279 94.5471125,48.6408978 93.5035461,48.6408978 C92.4599797,48.6408978 91.6251266,49.4688279 91.6251266,50.5037406 L91.6251266,68.8216958 C91.6251266,69.8566085 92.4599797,70.6845387 93.5035461,70.6845387 L99.2431611,70.6845387 L99.2431611,73.7892768 C99.2431611,76.894015 96.7386018,79.3778055 93.6079027,79.3778055 L9.39209726,79.3778055 C6.26139818,79.3778055 3.75683891,76.894015 3.75683891,73.7892768 L3.75683891,70.6845387 L9.4964539,70.6845387 C10.5400203,70.6845387 11.3748734,69.8566085 11.3748734,68.8216958 L11.3748734,19.042394 C11.3748734,17.6970075 12.4184397,16.6620948 13.775076,16.6620948 L35.3768997,16.6620948 C36.4204661,16.6620948 37.2553191,15.8341646 37.2553191,14.7992519 C37.2553191,13.7643392 36.4204661,12.936409 35.3768997,12.936409 L13.6707194,12.936409 C10.331307,12.936409 7.61803445,15.627182 7.61803445,18.9389027 L7.61803445,66.9588529 L1.87841945,66.9588529 C0.83485309,66.9588529 0,67.786783 0,68.8216958 L0,73.6857855 C0.104356636,78.8603491 4.27862209,83 9.39209726,83 Z M88.077001,33.117207 C88.9118541,34.3591022 90.2684904,35.2905237 91.9381966,35.2905237 L98.5126646,35.2905237 C101.017224,35.2905237 103,33.3241895 103,30.840399 L103,6.93391521 C103,4.45012469 101.017224,2.48379052 98.5126646,2.48379052 C97.4690983,2.48379052 96.6342452,3.3117207 96.6342452,4.34663342 C96.6342452,5.38154613 97.4690983,6.20947631 98.5126646,6.20947631 C98.9300912,6.20947631 99.3475177,6.6234414 99.3475177,7.03740648 L99.3475177,30.9438903 C99.3475177,31.3578554 98.9300912,31.7718204 98.5126646,31.7718204 L91.8338399,31.7718204 C91.4164134,31.7718204 90.9989868,31.3578554 90.9989868,30.9438903 L90.9989868,8.27930175 C90.9989868,3.72568579 87.2421479,0 82.6504559,0 L58.5440729,0 C52.9088146,0 49.360689,2.89775561 48.7345491,7.96882793 L45.4994934,28.2531172 C45.4994934,28.3566085 45.4994934,28.4600998 45.4994934,28.563591 L45.4994934,28.7705736 C45.4994934,33.3241895 49.2563323,37.0498753 53.8480243,37.0498753 L59.378926,37.0498753 C60.4224924,37.0498753 61.2573455,36.2219451 61.2573455,35.1870324 C61.2573455,34.1521197 60.4224924,33.3241895 59.378926,33.3241895 L53.8480243,33.3241895 C51.2391084,33.3241895 49.1519757,31.2543641 49.1519757,28.6670823 L52.3870314,8.38279302 C52.804458,5.17456359 54.8915907,3.51870324 58.5440729,3.51870324 L82.7548126,3.51870324 C85.3637285,3.51870324 87.4508612,5.58852868 87.4508612,8.17581047 L87.4508612,29.4950125 C87.3465046,29.4950125 87.2421479,29.4950125 87.1377913,29.5985037 C86.6160081,29.701995 75.3454914,33.0137157 75.3454914,43.1558603 L75.3454914,51.5386534 C74.1975684,51.6421446 72.5278622,51.6421446 71.2755826,50.7107232 C69.9189463,49.7793017 69.2928065,48.0199501 69.2928065,45.4326683 L69.2928065,35.2905237 C69.2928065,34.255611 68.4579534,33.4276808 67.414387,33.4276808 C66.3708207,33.4276808 65.6403242,34.255611 65.6403242,35.2905237 L65.6403242,45.4326683 C65.6403242,49.2618454 66.7882472,52.0561097 69.0840932,53.7119701 C70.7537994,54.9538653 72.6322188,55.2643392 74.301925,55.2643392 C76.1803445,55.2643392 77.6413374,54.8503741 77.745694,54.7468828 C78.4761905,54.5399002 78.9979737,53.8154613 78.9979737,52.9875312 L78.9979737,43.1558603 C78.893617,35.80798 87.6595745,33.2206983 88.077001,33.117207 C88.077001,33.117207 88.077001,33.117207 88.077001,33.117207 Z" id="Shape"></path>
                </g>
                <path d="M3.63141918,7.52553622 L105.788928,83.9868783 L105.788928,83.9868783 C106.380567,84.4296993 106.774899,85.0869275 106.887198,85.8173492 L106.985407,86.4561221 L106.985407,86.4561221 C107.034805,86.7774236 106.957726,87.1053643 106.77037,87.3710191 L106.77037,87.3710191 L106.77037,87.3710191 C106.583574,87.6358797 106.298122,87.8145034 105.978247,87.8666953 L105.372124,87.9655924 L105.372124,87.9655924 C104.665286,88.0809226 103.941951,87.9036115 103.368581,87.4744638 L1.21107178,11.0131217 L1.21107178,11.0131217 C0.619433013,10.5703007 0.225100542,9.91307249 0.112801616,9.18265079 L0.0145932661,8.54387789 L0.0145932661,8.54387789 C-0.0348053325,8.22257644 0.0422735464,7.89463569 0.229629789,7.62898087 L0.229629789,7.62898087 L0.229629789,7.62898087 C0.416425848,7.36412034 0.701878385,7.18549663 1.02175317,7.13330473 L1.6278758,7.03440762 L1.6278758,7.03440762 C2.33471392,6.91907742 3.05804894,7.09638854 3.63141918,7.52553622 Z" id="Rectangle-7-Copy" opacity="0.680197011"></path>
            </g>
        </g>
    </g>
</svg>