
<svg width="288px" height="288px" viewBox="0 0 288 288" version="1.1" xmlns="http://www.w3.org/2000/svg" xmlns:xlink="http://www.w3.org/1999/xlink">
    <defs>
        <circle id="path-1" cx="144" cy="144" r="144"></circle>
        <filter x="-0.5%" y="-0.5%" width="101.0%" height="101.0%" filterUnits="objectBoundingBox" id="filter-2">
            <feGaussianBlur stdDeviation="1" in="SourceAlpha" result="shadowBlurInner1"></feGaussianBlur>
            <feOffset dx="0" dy="1" in="shadowBlurInner1" result="shadowOffsetInner1"></feOffset>
            <feComposite in="shadowOffsetInner1" in2="SourceAlpha" operator="arithmetic" k2="-1" k3="1" result="shadowInnerInner1"></feComposite>
            <feColorMatrix values="0 0 0 0 1   0 0 0 0 0.992156863   0 0 0 0 0.968627451  0 0 0 0.5 0" type="matrix" in="shadowInnerInner1"></feColorMatrix>
        </filter>
    </defs>
    <g id="Welcome" stroke="none" stroke-width="1" fill="none" fill-rule="evenodd">
        <g id="Desktop" transform="translate(-385.000000, -16091.000000)">
            <g id="Group-35" transform="translate(385.000000, 16091.000000)">
                <g id="Oval-Copy">
                    <use fill-opacity="0.33129529" fill="#D8D8D8" fill-rule="evenodd" xlink:href="#path-1"></use>
                    <use fill="black" fill-opacity="1" filter="url(#filter-2)" xlink:href="#path-1"></use>
                </g>
                <g id="noun_Word-of-Mouth_1796676" transform="translate(48.000000, 47.000000)" fill="#766E6E" fill-rule="nonzero" stroke="#766E6E">
                    <g id="Group">
                        <path d="M175.033333,61.95 L77.1333333,61.95 C75.4948886,61.95 74.1666667,63.27076 74.1666667,64.9 L74.1666667,78.9538 L60.7365667,105.66605 C59.4081579,108.307942 59.5501227,111.445431 61.1117609,113.95802 C62.6733992,116.470608 65.4320208,118 68.4024333,118 L74.1666667,118 L74.1666667,133.3164 C73.7638023,131.756987 72.9519837,130.331816 71.8141,129.1864 C68.151261,125.704809 62.3820724,125.704809 58.7192333,129.1864 L53.4,134.4787 L53.4,82.6 C53.4155661,79.1024374 51.3493481,75.9268106 48.1346163,74.5074885 C44.9198846,73.0881663 41.165273,73.6938642 38.5666667,76.051 C35.2128079,72.9828553 30.0538588,72.9828553 26.7,76.051 C23.3461412,72.9828553 18.1871921,72.9828553 14.8333333,76.051 C12.234727,73.6938642 8.48011543,73.0881663 5.26538368,74.5074885 C2.05065194,75.9268106 -0.0155661407,79.1024374 2.63476036e-15,82.6 L2.63476036e-15,159.3 C0.000168024303,160.082325 0.312836855,160.832546 0.869233333,161.38565 L5.93333333,166.4213 L5.93333333,174.05 C5.93333333,175.67924 7.26155524,177 8.9,177 L44.5,177 C46.1384448,177 47.4666667,175.67924 47.4666667,174.05 L47.4666667,166.4213 L71.8141,142.21065 C72.9519837,141.065234 73.7638023,139.640063 74.1666667,138.08065 L74.1666667,147.63865 C74.1715725,154.075862 79.4173539,159.293493 85.8909333,159.3 C98.1313896,159.314199 110.245732,156.841699 121.490933,152.03415 L125.768867,150.21105 L123.431133,144.78895 L119.156167,146.61205 C108.648296,151.103619 97.3285008,153.413484 85.8909333,153.4 C82.6940448,153.396748 80.1032705,150.820528 80.1,147.6416 L80.1,115.05 C80.1,113.42076 78.7717781,112.1 77.1333333,112.1 L68.4024333,112.1 C67.4880931,112.100069 66.6389522,111.629217 66.1584343,110.855692 C65.6779164,110.082167 65.6345887,109.116348 66.0439333,108.30335 L79.8033333,80.96865 C80.0034903,80.5578442 80.105043,80.1064539 80.1,79.65 L80.1,67.85 L172.066667,67.85 L172.066667,79.001 C172.075977,95.4045439 164.867885,110.991103 152.338333,121.66095 C151.680112,122.220788 151.300809,123.038711 151.3,123.9 L151.3,171.1 L109.766667,171.1 L109.766667,165.2 L103.833333,165.2 L103.833333,174.05 C103.833333,175.67924 105.161555,177 106.8,177 L154.266667,177 C155.905111,177 157.233333,175.67924 157.233333,174.05 L157.233333,125.23635 C170.456762,113.465329 178.009777,96.6491364 178,79.001 L178,64.9 C178,63.27076 176.671778,61.95 175.033333,61.95 Z M67.6192333,138.03935 L42.4025667,163.11435 C41.8461702,163.667454 41.5335014,164.417675 41.5333333,165.2 L41.5333333,171.1 L11.8666667,171.1 L11.8666667,165.2 C11.8664986,164.417675 11.5538298,163.667454 10.9974333,163.11435 L5.93333333,158.0787 L5.93333333,82.6 C5.93333333,80.97076 7.26155524,79.65 8.9,79.65 C10.5384448,79.65 11.8666667,80.97076 11.8666667,82.6 L11.8666667,118 L17.8,118 L17.8,82.6 C17.8,80.97076 19.1282219,79.65 20.7666667,79.65 C22.4051114,79.65 23.7333333,80.97076 23.7333333,82.6 L23.7333333,118 L29.6666667,118 L29.6666667,82.6 C29.6666667,80.97076 30.9948886,79.65 32.6333333,79.65 C34.2717781,79.65 35.6,80.97076 35.6,82.6 L35.6,118 L41.5333333,118 L41.5333333,82.6 C41.5333333,80.97076 42.8615552,79.65 44.5,79.65 C46.1384448,79.65 47.4666667,80.97076 47.4666667,82.6 L47.4666667,132.75 L35.6,132.75 C34.8132554,132.750167 34.0587951,133.061079 33.5025667,133.61435 L18.6692333,148.36435 C18.1128369,148.917454 17.800168,149.667675 17.8,150.45 L17.8,165.2 L23.7333333,165.2 L23.7333333,151.6713 L36.8282,138.65 L47.4666667,138.65 L47.4666667,141.6 C47.4669228,142.792968 48.1897249,143.868355 49.2981248,144.32485 C50.4065247,144.781345 51.682317,144.529078 52.5307667,143.68565 L62.9141,133.36065 C64.230418,132.110217 66.3029153,132.110217 67.6192333,133.36065 C68.9127694,134.655001 68.9127694,136.744999 67.6192333,138.03935 Z" id="Shape"></path>
                        <path d="M162.908567,2.1649349e-15 L109.742933,2.1649349e-15 C101.56808,0.0129983485 94.9447677,6.60042024 94.9333333,14.72935 L94.9333333,56.05 L100.866667,56.05 L100.866667,14.72935 C100.878078,9.85889335 104.844964,5.9129747 109.742933,5.9 L154.266667,5.9 L154.266667,56.05 L160.2,56.05 L160.2,29.5 L175.033333,29.5 C176.671778,29.5 178,28.17924 178,26.55 L178,15.00665 C177.990191,6.72274942 171.239269,0.00975342526 162.908567,2.1649349e-15 Z M172.066667,23.6 L160.2,23.6 L160.2,5.9 L162.908567,5.9 C167.963735,5.90650084 172.060129,9.97988128 172.066667,15.00665 L172.066667,23.6 Z" id="Shape"></path>
                        <rect id="Rectangle-path" x="106.8" y="35.4" width="41.5333333" height="5.9"></rect>
                        <rect id="Rectangle-path" x="106.8" y="17.7" width="41.5333333" height="5.9"></rect>
                    </g>
                </g>
                <rect id="Rectangle-3" fill="#766E6E" transform="translate(143.490517, 145.806255) rotate(39.000000) translate(-143.490517, -145.806255) " x="11.9905175" y="142.158156" width="263" height="7.29619936" rx="3.64809968"></rect>
            </g>
        </g>
    </g>
</svg>