
<svg width="165px" height="166px" viewBox="0 0 165 166" version="1.1" xmlns="http://www.w3.org/2000/svg" xmlns:xlink="http://www.w3.org/1999/xlink">
    <defs></defs>
    <g id="Welcome" stroke="none" stroke-width="1" fill="none" fill-rule="evenodd">
        <g id="Desktop" transform="translate(-91.000000, -3069.000000)" fill-rule="nonzero">
            <g id="Group-22" transform="translate(91.000000, 3069.000000)">
                <path d="M140.12075,81.8841379 C150.1555,74.9048276 156.75,63.2855172 156.75,50.137931 C156.75,35.0593103 148.0875,21.5337931 134.563,15.1862069 C133.68025,9.98068966 129.184,6 123.75,6 C119.57,6 115.973,8.37793103 114.11125,11.8289655 C94.71825,13.92 79.75,30.4055172 79.75,50.137931 C79.75,68.4441379 92.52375,83.782069 109.593,87.737931 C101.31,94.1793103 96.25,104.176552 96.25,114.965517 L96.25,127.37931 L82.5,127.37931 C74.91825,127.37931 68.75,133.566897 68.75,141.172414 C68.75,144.289655 69.82525,147.136552 71.5715,149.448276 L16.5,149.448276 L16.5,91.5172414 C16.5,83.9117241 10.33175,77.7241379 2.75,77.7241379 C1.232,77.7241379 0,78.9572414 0,80.4827586 L0,163.241379 C0,164.766897 1.232,166 2.75,166 L88,166 C89.518,166 90.75,164.766897 90.75,163.241379 C90.75,160.124138 89.67475,157.277241 87.9285,154.965517 L96.25,154.965517 L96.25,166 L101.75,166 L101.75,154.965517 L131.88725,154.965517 C136.664,154.965517 140.88525,152.529655 143.37675,148.827586 C144.8755,146.609655 145.75,143.933793 145.75,141.05931 L145.75,102.551724 L140.25,102.551724 L140.25,141.05931 C140.25,141.638621 140.19225,142.201379 140.0795,142.747586 C139.2985,146.568276 135.9215,149.448276 131.88725,149.448276 L99,149.448276 L82.5,149.448276 C77.9515,149.448276 74.25,145.735172 74.25,141.172414 C74.25,136.609655 77.9515,132.896552 82.5,132.896552 L99,132.896552 L121,132.896552 C121.92125,132.896552 122.8095,132.424828 123.31825,131.655172 C123.68125,131.106207 123.827,130.430345 123.75,129.776552 L123.75,102.551724 L118.25,102.551724 L118.25,127.37931 L101.75,127.37931 L101.75,114.965517 C101.75,103.746207 108.251,93.5282759 118.3655,88.7586207 C119.60575,88.7558621 120.83775,88.6868966 122.0615,88.5655172 C122.48775,88.5241379 122.8975,88.4413793 123.31825,88.3862069 C124.11575,88.2786207 124.916,88.1765517 125.70525,88.0193103 C126.29925,87.9006897 126.874,87.7406897 127.45975,87.5972414 C128.05375,87.4510345 128.64775,87.3131034 129.2335,87.1393103 C129.8825,86.9462069 130.515,86.7117241 131.15025,86.4855172 C131.53525,86.3475862 131.92575,86.24 132.308,86.0910345 C147.60075,86.9682759 159.5,99.542069 159.5,114.965517 L159.5,166 L165,166 L165,114.965517 C165,99.2193103 154.56925,86.0027586 140.12075,81.8841379 Z M5.5,160.482759 L5.5,83.7131034 C8.701,84.8524138 11,87.92 11,91.5172414 L11,152.206897 C11,153.732414 12.232,154.965517 13.75,154.965517 L77,154.965517 C80.586,154.965517 83.644,157.271724 84.77975,160.482759 L5.5,160.482759 Z M116.71275,37.9475862 C121.1925,35.8234483 126.3075,35.8234483 130.78725,37.9475862 C136.36975,40.6041379 140.25,46.2951724 140.25,52.8965517 C140.25,62.0248276 132.84975,69.4482759 123.75,69.4482759 C114.65025,69.4482759 107.25,62.0248276 107.25,52.8965517 C107.25,46.2951724 111.13025,40.6041379 116.71275,37.9475862 Z M123.75,11.5172414 C126.78325,11.5172414 129.25,13.9917241 129.25,17.0344828 L129.25,31.5365517 C129.1565,31.5117241 129.06025,31.5034483 128.9695,31.4813793 C128.315,31.3213793 127.6495,31.1917241 126.973,31.0924138 C126.75575,31.0593103 126.54125,31.017931 126.324,30.9931034 C125.477,30.8937931 124.62175,30.8275862 123.75,30.8275862 C122.87825,30.8275862 122.023,30.8937931 121.176,30.9931034 C120.95875,31.017931 120.74425,31.0593103 120.527,31.0924138 C119.8505,31.1917241 119.185,31.3213793 118.5305,31.4813793 C118.437,31.5034483 118.34075,31.5117241 118.25,31.5365517 L118.25,17.0344828 C118.25,16.7393103 118.29125,16.4551724 118.338,16.1737931 C118.393,15.8896552 118.47,15.5917241 118.57725,15.2772414 C118.591,15.2386207 118.591,15.1972414 118.602,15.1558621 C119.36925,13.04 121.37675,11.5172414 123.75,11.5172414 Z M85.25,50.137931 C85.25,33.8896552 97.0805,20.1793103 112.75,17.5393103 L112.75,33.8151724 C106.18575,37.6386207 101.75,44.7503448 101.75,52.8993103 C101.75,65.0675862 111.61975,74.9682759 123.75,74.9682759 C135.88025,74.9682759 145.75,65.0675862 145.75,52.8993103 C145.75,44.7531034 141.31425,37.6386207 134.75,33.8151724 L134.75,21.4648276 C144.89475,27.3241379 151.25,38.1710345 151.25,50.137931 C151.25,64.24 142.39775,76.2758621 129.98975,81.0372414 C129.2775,81.3103448 128.568,81.5834483 127.842,81.8041379 C127.47075,81.9172414 127.08575,81.9972414 126.70625,82.0965517 C126.05175,82.2703448 125.4,82.4551724 124.73725,82.5903448 C124.21475,82.6951724 123.67575,82.7558621 123.14225,82.8358621 C122.60325,82.9158621 122.06975,83.0206897 121.528,83.0758621 C120.7965,83.1475862 120.05125,83.1641379 119.30875,83.1889655 C118.95675,83.2 118.61025,83.2413793 118.25825,83.2413793 C118.173,83.2358621 117.95575,83.2275862 117.85675,83.2248276 C99.84425,83.0068966 85.25,68.2593103 85.25,50.137931 Z" id="Shape" fill="#2B4C49"></path>
                <path d="M123.5,66 C129.84225,66 135,60.84225 135,54.5 C135,48.15775 129.84225,43 123.5,43 C117.15775,43 112,48.15775 112,54.5 C112,60.84225 117.15775,66 123.5,66 Z M123.5,48.75 C126.671125,48.75 129.25,51.328875 129.25,54.5 C129.25,57.671125 126.671125,60.25 123.5,60.25 C120.328875,60.25 117.75,57.671125 117.75,54.5 C117.75,51.328875 120.328875,48.75 123.5,48.75 Z" id="Shape" fill="#8A8C84"></path>
                <path d="M71.5643524,70 L27.7390796,70 C26.2271076,70 25,71.2132857 25,72.7142857 L25,105.285714 C25,106.786714 26.2271076,108 27.7390796,108 L71.5643524,108 C73.0763243,108 74.3034319,106.786714 74.3034319,105.285714 L74.3034319,99.8707143 L87.3085816,85.3737143 C88.0234814,84.5757143 88.2015216,83.433 87.7605298,82.4612857 C87.3167989,81.4841429 86.3389475,80.8571429 85.2597501,80.8571429 L74.3034319,80.8571429 L74.3034319,72.7142857 C74.3034319,71.2132857 73.0763243,70 71.5643524,70 Z M79.15982,86.2857143 L69.5155209,97.037 C69.07179,97.5337143 68.8252728,98.1742857 68.8252728,98.8392857 L68.8252728,102.571429 L30.4781591,102.571429 L30.4781591,75.4285714 L68.8252728,75.4285714 L68.8252728,83.5714286 C68.8252728,85.0724286 70.0523805,86.2857143 71.5643524,86.2857143 L79.15982,86.2857143 Z" id="Shape" fill="#2B4C49"></path>
                <path d="M18.88925,54.85975 C19.1725,54.95325 19.464,55 19.75,55 C20.60525,55 21.43025,54.5985 21.961,53.889 L33.357,38.5 L69.25,38.5 C70.768,38.5 72,37.27075 72,35.75 L72,2.75 C72,1.22925 70.768,0 69.25,0 L8.75,0 C7.232,0 6,1.22925 6,2.75 L6,35.75 C6,37.27075 7.232,38.5 8.75,38.5 L17,38.5 L17,52.25 C17,53.438 17.76175,54.4885 18.88925,54.85975 Z M11.5,33 L11.5,5.5 L66.5,5.5 L66.5,33 L31.971,33 C31.09925,33 30.27975,33.4125 29.76,34.111 L22.5,43.9175 L22.5,35.75 C22.5,34.22925 21.268,33 19.75,33 L11.5,33 Z" id="Shape" fill="#2B4C49"></path>
                <rect id="Rectangle-path" fill="#8A8C84" x="17" y="10" width="43" height="6"></rect>
                <rect id="Rectangle-path" fill="#8A8C84" x="17" y="23" width="8" height="6"></rect>
                <rect id="Rectangle-path" fill="#8A8C84" x="31" y="23" width="31" height="6"></rect>
                <rect id="Rectangle-path" fill="#8A8C84" x="35" y="79" width="28" height="6"></rect>
                <rect id="Rectangle-path" fill="#8A8C84" x="35" y="93" width="28" height="6"></rect>
            </g>
        </g>
    </g>
</svg>