
<svg width="182px" height="175px" viewBox="0 0 182 175" version="1.1" xmlns="http://www.w3.org/2000/svg" xmlns:xlink="http://www.w3.org/1999/xlink">
    <!-- Generator: Sketch 47.1 (45422) - http://www.bohemiancoding.com/sketch -->
    <desc>Created with Sketch.</desc>
    <defs></defs>
    <g id="Welcome" stroke="none" stroke-width="1" fill="none" fill-rule="evenodd">
        <g id="Desktop" transform="translate(-82.000000, -3757.000000)">
            <g id="Group-34" transform="translate(83.000000, 3758.000000)">
                <g id="Group-33" fill-rule="nonzero">
                    <g id="Group-31">
                        <g id="noun_1262177_cc">
                            <path d="M1.45012817,173 L47.8542298,173 C48.6547005,173 49.3043579,172.376897 49.3043579,171.609146 L49.3043579,145.182917 L82.657306,145.182917 C83.4577767,145.182917 84.1074341,144.559815 84.1074341,143.792063 L84.1074341,113.193272 L95.7084595,113.193272 C96.1942525,113.193272 96.6495927,112.959609 96.9178664,112.57017 C97.1875903,112.180731 97.2339944,111.688368 97.0425775,111.258594 L76.2390387,64.3673382 C85.5590124,63.282472 92.8082032,55.6605914 92.8082032,46.4322742 C92.8082032,45.6645228 92.1585458,45.0414201 91.358075,45.0414201 L1.45012817,45.0414201 C0.649657422,45.0414201 0,45.6645228 0,46.4322742 L0,83.9853357 L0,171.609146 C0,172.376897 0.649657422,173 1.45012817,173 Z M82.657306,110.411564 C81.8568352,110.411564 81.2071778,111.034667 81.2071778,111.802418 L81.2071778,142.401209 L29.0025635,142.401209 L29.0025635,145.182917 L46.4041016,145.182917 L46.4041016,170.218292 L2.90025635,170.218292 L2.90025635,85.317774 C2.95536122,85.3136014 3.00901596,85.3024746 3.06557096,85.2969112 C3.32224365,85.2746575 3.57311582,85.2343227 3.82543813,85.2009422 C4.13721568,85.1606075 4.44899324,85.1216636 4.75352016,85.0646385 C5.00729259,85.0173495 5.25526451,84.9561519 5.50468655,84.8991269 C5.8005127,84.8323659 6.09633885,84.764214 6.38491435,84.6821537 C6.63288627,84.6112201 6.87505768,84.5291597 7.11867921,84.4484902 C7.40000408,84.3553029 7.67842869,84.2607249 7.95250291,84.1550199 C8.19177406,84.0618327 8.4252447,83.9603004 8.66016546,83.8573772 C8.92698904,83.7405454 9.19091237,83.620932 9.45048531,83.4915825 C9.67815544,83.3775325 9.90147518,83.2565282 10.1233448,83.134133 C10.3756671,82.9950476 10.623639,82.8517896 10.8672605,82.7001865 C11.0818795,82.5666645 11.2921481,82.42897 11.5009666,82.2871028 C11.7373374,82.1257638 11.969358,81.9602521 12.1955779,81.7877862 C12.3956956,81.6361831 12.5929131,81.4817983 12.7857801,81.3218501 C13.0047495,81.141039 13.2179183,80.9532737 13.4267368,80.7627267 C13.610903,80.5944334 13.7936192,80.4247492 13.9690847,80.2481107 C14.1706525,80.0478277 14.3635196,79.8405904 14.5534864,79.6305715 C14.7202511,79.4469787 14.8855657,79.263386 15.0436297,79.0742298 C15.2263458,78.8544749 15.3989111,78.6277656 15.5700262,78.3996656 C15.7164892,78.2035551 15.8644022,78.0102264 16.0021644,77.8071617 C16.1645788,77.5693256 16.3153921,77.3231445 16.4662054,77.0755724 C16.5923666,76.869726 16.7199779,76.6652705 16.8374382,76.4538606 C16.9795508,76.1965526 17.1057119,75.9322903 17.2333232,75.668028 C17.3362823,75.4538365 17.4450419,75.2438175 17.5378501,75.0254534 C17.6582108,74.7472826 17.7582696,74.4607667 17.8626789,74.1756416 C17.9409858,73.9586683 18.0279935,73.7458676 18.0975996,73.5261127 C18.1947582,73.2215156 18.2687147,72.9071826 18.3484718,72.5956313 C18.4006764,72.3856123 18.464482,72.178375 18.509436,71.9655744 C18.5833926,71.6136883 18.6312468,71.253457 18.6805511,70.8932258 C18.7052033,70.7110239 18.7443568,70.5329946 18.7632085,70.3494019 C18.8212136,69.8014053 18.8516663,69.2464545 18.8516663,68.6859403 L18.8516663,64.5133779 L73.1517158,64.5133779 L93.5158657,110.411564 L82.657306,110.411564 Z M89.8426911,47.8231284 C89.1118265,55.5660133 82.3397279,61.6565635 74.0957492,61.7247154 C74.0938157,61.7247154 55.1957453,61.7270335 17.4015381,61.7316697 C16.6010673,61.7316697 15.9514099,62.3547723 15.9514099,63.1225238 L15.9514099,68.6859403 C15.9514099,69.1504856 15.9253076,69.6108583 15.8789035,70.0642768 C15.8629521,70.2186616 15.8310493,70.3702647 15.8107475,70.5232586 C15.7701439,70.8195105 15.7295403,71.1143716 15.6700851,71.4050601 C15.6323817,71.5844803 15.5816272,71.7583371 15.5366733,71.9349756 C15.4728676,72.1922836 15.4105121,72.4495916 15.3307551,72.6999453 C15.2727499,72.8849289 15.2016937,73.0629583 15.1364379,73.2437693 C15.0508803,73.4788236 14.9667729,73.7152688 14.8681642,73.9433689 C14.7898573,74.1269617 14.7013994,74.3036001 14.6158419,74.4830203 C14.5114326,74.6999936 14.4070234,74.9183577 14.2910132,75.1297675 C14.1938546,75.3077968 14.0879952,75.4802627 13.983586,75.6527286 C13.8603251,75.8557933 13.7356141,76.0560763 13.6036524,76.2521868 C13.4890923,76.421871 13.3672815,76.5859918 13.2454707,76.7501126 C13.1048083,76.9378779 12.9612456,77.1242523 12.8118824,77.3050634 C12.6813709,77.4636207 12.5450588,77.6180055 12.4072967,77.7723903 C12.2506828,77.9462471 12.0897186,78.1159313 11.924404,78.2828338 C11.777941,78.4302643 11.6285778,78.5735223 11.4763144,78.7153894 C11.3037491,78.8739468 11.1268335,79.0269408 10.9470176,79.177153 C10.7875035,79.310675 10.6250891,79.4428061 10.4597745,79.5693739 C10.2712579,79.7126318 10.0783908,79.8489356 9.88262351,79.9838484 C9.71150839,80.102071 9.54039326,80.2202936 9.36347762,80.3315619 C9.16045968,80.4595205 8.95019109,80.5777431 8.73992251,80.6945749 C8.55865649,80.7961072 8.37884059,80.8990304 8.19322419,80.9936085 C7.97425483,81.1048768 7.74658471,81.2036275 7.52181484,81.3051598 C7.33474831,81.3886111 7.1491319,81.474844 6.95771498,81.551341 C6.71844383,81.6459191 6.47192204,81.7265886 6.22685038,81.808649 C6.03833372,81.8712375 5.85271731,81.9407802 5.66130039,81.9964143 C5.39302668,82.0743022 5.11895246,82.1354997 4.84487823,82.1980882 C4.66796259,82.2398138 4.49249709,82.2884937 4.31268119,82.3232651 C3.96900081,82.3886352 3.61951992,82.4345334 3.26858891,82.476259 C3.15112852,82.4901675 3.0365684,82.5152029 2.91765789,82.5263298 C2.91475763,82.5263298 2.91040725,70.958596 2.90460673,47.8231284 L89.8426911,47.8231284 Z" id="Shape" stroke="#2B4C49" stroke-width="2" fill="#2B4C49"></path>
                            <path d="M57.2727273,121.202367 L57.2727273,123.352071 C57.2727273,129.279522 62.0893636,134.100592 68.0113636,134.100592 C73.9333636,134.100592 78.75,129.279522 78.75,123.352071 L78.75,121.202367 C78.75,120.411276 78.1085455,119.769231 77.3181818,119.769231 L58.7045455,119.769231 C57.9141818,119.769231 57.2727273,120.411276 57.2727273,121.202367 Z M60.1363636,122.635503 L75.8863636,122.635503 L75.8863636,123.352071 C75.8863636,127.698773 72.3540682,131.23432 68.0113636,131.23432 C63.6686591,131.23432 60.1363636,127.698773 60.1363636,123.352071 L60.1363636,122.635503 Z" id="Shape" stroke="#2B4C49" stroke-width="2" fill="#2B4C49"></path>
                            <path d="M72.6136364,81.5096154 L72.6136364,80.8698225 L69.75,80.8698225 L69.75,81.5096154 C69.75,85.3905991 66.2177045,88.5473373 61.875,88.5473373 C57.5322955,88.5473373 54,85.3905991 54,81.5096154 L54,80.8698225 L51.1363636,80.8698225 L51.1363636,81.5096154 C51.1363636,86.8019822 55.953,91.1065089 61.875,91.1065089 C67.797,91.1065089 72.6136364,86.8019822 72.6136364,81.5096154 Z" id="Shape" stroke="#2B4C49" stroke-width="2" fill="#2B4C49"></path>
                            <path d="M178.977273,131.206718 C178.977273,129.519663 178.29225,127.931518 177.04847,126.739016 C175.806141,125.545122 174.151637,124.887574 172.39409,124.887574 C170.767162,124.887574 169.244728,125.471287 168.038682,126.502188 C165.554024,124.384661 161.815427,124.384661 159.33222,126.503581 C156.847562,124.386055 153.108964,124.386055 150.624306,126.503581 C148.04241,124.302468 144.089017,124.365158 141.61597,126.739016 L132.095318,135.877814 C130.810901,133.91353 128.541038,132.599828 125.951885,132.599828 L108.536058,132.599828 C108.151458,132.599828 107.781372,132.746104 107.509975,133.008009 L88.6428295,151.118431 C88.3699816,151.378942 88.2175931,151.734185 88.2175931,152.103359 L88.2175931,170.213781 L83.8636364,170.213781 L83.8636364,173 L118.69529,173 L118.69529,170.213781 L115.792652,170.213781 L115.792652,163.824982 L128.00405,152.103359 L159.33222,152.103359 C159.716819,152.103359 160.086906,151.957083 160.358302,151.695178 L177.04847,135.67442 C178.29225,134.481918 178.977273,132.893774 178.977273,131.206718 Z M165.957491,128.449755 L155.828736,138.172265 L151.225152,138.172265 L161.083962,128.708873 C162.414821,127.431392 164.51488,127.354771 165.957491,128.449755 Z M157.249577,128.449755 L147.120823,138.172265 L142.517239,138.172265 L152.376048,128.708873 C153.706908,127.431392 155.806966,127.354771 157.249577,128.449755 Z M143.668135,128.708873 C144.956906,127.471792 147.120823,127.396564 148.540212,128.451148 L138.412909,138.172265 L133.809325,138.172265 L143.668135,128.708873 Z M174.996305,133.704563 L158.731374,149.31714 L127.403204,149.31714 C127.018604,149.31714 126.648518,149.463417 126.377121,149.725321 L113.315251,162.263306 C113.042403,162.523817 112.890015,162.87906 112.890015,163.248234 L112.890015,170.213781 L91.1202309,170.213781 L91.1202309,152.680106 L109.136904,135.386046 L125.951885,135.386046 C128.352366,135.386046 130.305842,137.261172 130.305842,139.565375 C130.305842,141.869577 128.352366,143.744703 125.951885,143.744703 L111.438696,143.744703 L111.438696,146.530922 L125.951885,146.530922 C129.45682,146.530922 132.388484,144.13338 133.061896,140.958484 L156.429582,140.958484 C156.814182,140.958484 157.184268,140.812207 157.455665,140.550303 L169.791875,128.708873 C171.182239,127.374274 173.605941,127.374274 174.996305,128.708873 C176.431659,130.086658 176.431659,132.326778 174.996305,133.704563 Z" id="Shape" stroke="#2B4C49" stroke-width="2" fill="#2B4C49"></path>
                            <path d="M89.798541,14.3620426 L89.798541,34.4777285 C89.798541,38.2799324 93.0617871,41.3732742 97.07283,41.3732742 L117.440839,41.3732742 L117.440839,55.1643655 L114.531124,55.1643655 C110.520081,55.1643655 107.256835,58.2577073 107.256835,62.0599112 L107.256835,87.6920337 L97.4991033,96.9417187 C97.083014,97.3361439 96.9578962,97.9291608 97.1833992,98.4449476 C97.4089022,98.9593554 97.9399253,99.295858 98.5276878,99.295858 L152.357426,99.295858 C156.368469,99.295858 159.631715,96.2025162 159.631715,92.4003123 L159.631715,84.1256575 L178.544867,84.1256575 C179.132629,84.1256575 179.663653,83.7891548 179.889155,83.2747471 C180.114658,82.7589603 179.989541,82.1659434 179.573451,81.7715182 L172.725436,75.2800514 L172.725436,38.6150559 C172.725436,34.812852 169.46219,31.7195102 165.451147,31.7195102 L147.992853,31.7195102 L147.992853,6.89554569 C147.992853,3.0933418 144.729607,0 140.718564,0 L78.1596786,0 C77.571916,0 77.0408929,0.33650263 76.81539,0.850910339 C76.589887,1.36669716 76.7150048,1.95971409 77.1310941,2.3541393 L89.798541,14.3620426 Z M156.722,92.4003123 C156.722,94.6813588 154.763761,96.5376397 152.357426,96.5376397 L102.039715,96.5376397 L109.740277,89.238015 C110.01379,88.9801216 110.16655,88.6284488 110.16655,88.2629849 L110.16655,62.0599112 C110.16655,59.7788647 112.124789,57.9225838 114.531124,57.9225838 L118.895697,57.9225838 L152.357426,57.9225838 C154.763761,57.9225838 156.722,59.7788647 156.722,62.0599112 L156.722,82.7465483 L156.722,92.4003123 Z M169.81572,38.6150559 L169.81572,75.8510026 C169.81572,76.2164666 169.96848,76.5681394 170.241993,76.8260328 L175.03284,81.3674392 L159.631715,81.3674392 L159.631715,62.0599112 C159.631715,58.2577073 156.368469,55.1643655 152.357426,55.1643655 L120.350555,55.1643655 L120.350555,39.994165 L120.350555,38.6150559 C120.350555,36.3340094 122.308793,34.4777285 124.715128,34.4777285 L146.537995,34.4777285 L165.451147,34.4777285 C167.857481,34.4777285 169.81572,36.3340094 169.81572,38.6150559 Z M140.718564,2.75821828 C143.124899,2.75821828 145.083137,4.61449918 145.083137,6.89554569 L145.083137,31.7195102 L124.715128,31.7195102 C120.704085,31.7195102 117.440839,34.812852 117.440839,38.6150559 L97.07283,38.6150559 C94.6664952,38.6150559 92.7082566,36.758775 92.7082566,34.4777285 L92.7082566,13.7910914 C92.7082566,13.4256275 92.5554965,13.0739546 92.2819833,12.8160612 L81.6717053,2.75821828 L140.718564,2.75821828 Z" id="Shape" stroke="#2B4C49" stroke-width="2" fill="#2B4C49"></path>
                            <path d="M101.863642,26.6153846 L114.95454,26.6153846 C115.537085,26.6153846 116.077084,26.3115932 116.369993,25.8191313 C116.662902,25.3266694 116.664538,24.7190865 116.374902,24.2234268 L109.829453,13.0311108 C109.248545,12.0349946 107.569637,12.0349946 106.988728,13.0311108 L100.443279,24.2234268 C100.153643,24.7190865 100.15528,25.3266694 100.448189,25.8191313 C100.741097,26.3115932 101.281097,26.6153846 101.863642,26.6153846 Z M108.409091,17.0475533 L112.135088,23.41758 L104.683094,23.41758 L108.409091,17.0475533 Z" id="Shape" stroke="#766E6E" fill="#766E6E"></path>
                            <path d="M127.443274,25.8682975 L120.897825,14.6759815 C120.608189,14.1803218 120.609825,13.5727389 120.902734,13.080277 C121.195643,12.5878151 121.735642,12.2840237 122.318187,12.2840237 L135.409085,12.2840237 C135.99163,12.2840237 136.53163,12.5878151 136.824539,13.080277 C137.117448,13.5727389 137.119084,14.1803218 136.829448,14.6759815 L130.283999,25.8682975 C129.70309,26.8644136 128.024183,26.8644136 127.443274,25.8682975 Z M125.13764,15.4818282 L128.863636,21.851855 L132.589633,15.4818282 L125.13764,15.4818282 Z" id="Shape" stroke="#766E6E" fill="#766E6E"></path>
                            <polygon id="Shape" stroke="#766E6E" fill="#766E6E" points="153.071676 51.183432 157.5 47.3842323 161.928324 51.183432 164.659091 48.8406198 160.230767 45.0414201 164.659091 41.2422205 161.928324 38.8994083 157.5 42.6986079 153.071676 38.8994083 150.340909 41.2422205 154.769233 45.0414201 150.340909 48.8406198"></polygon>
                        </g>
                    </g>
                </g>
                <polyline id="Line-4" stroke="#766E6E" stroke-width="4" stroke-linecap="square" points="119 69 144.99861 69 149 69"></polyline>
                <polyline id="Line-4-Copy" stroke="#766E6E" stroke-width="4" stroke-linecap="square" points="119 78 144.99861 78 149 78"></polyline>
                <polyline id="Line-4-Copy-3" stroke="#766E6E" stroke-width="4" stroke-linecap="square" points="119 87 133.732546 87 136 87"></polyline>
            </g>
        </g>
    </g>
</svg>