
<svg width="109px" height="103px" viewBox="0 0 109 103" version="1.1" xmlns="http://www.w3.org/2000/svg" xmlns:xlink="http://www.w3.org/1999/xlink">
    <defs></defs>
    <g id="Welcome" stroke="none" stroke-width="1" fill="none" fill-rule="evenodd">
        <g id="Desktop" transform="translate(-807.000000, -7679.000000)" fill-rule="nonzero" fill="#766E6E">
            <g id="noun_1262177_cc-copy-2" transform="translate(807.000000, 7679.000000)">
                <path d="M0.880592454,103 L29.059551,103 C29.545638,103 29.9401434,102.625043 29.9401434,102.163043 L29.9401434,86.2608696 L50.1937699,86.2608696 C50.6798569,86.2608696 51.0743623,85.885913 51.0743623,85.423913 L51.0743623,67.0108696 L58.119102,67.0108696 C58.4141004,67.0108696 58.6906065,66.8702609 58.8535161,66.635913 C59.0173063,66.4015652 59.0454852,66.1052826 58.929247,65.846663 L46.2962677,37.6295109 C51.9558354,36.9766848 56.3579171,32.390163 56.3579171,26.8369565 C56.3579171,26.3749565 55.9634116,26 55.4773246,26 L0.880592454,26 C0.394505419,26 0,26.3749565 0,26.8369565 L0,49.4347826 L0,102.163043 C0,102.625043 0.394505419,103 0.880592454,103 Z M50.1937699,65.3369565 C49.7076829,65.3369565 49.3131774,65.711913 49.3131774,66.173913 L49.3131774,84.5869565 L17.6118491,84.5869565 L17.6118491,86.2608696 L28.1789585,86.2608696 L28.1789585,101.326087 L1.76118491,101.326087 L1.76118491,50.236587 C1.79464742,50.2340761 1.82722934,50.2273804 1.86157245,50.2240326 C2.01743731,50.2106413 2.16977981,50.1863696 2.32300289,50.1662826 C2.51233027,50.1420109 2.70165765,50.1185761 2.88658206,50.0842609 C3.04068574,50.0558043 3.19126705,50.0189783 3.34272896,49.984663 C3.52236982,49.9444891 3.70201068,49.9034783 3.87724858,49.8540978 C4.02782989,49.811413 4.17488883,49.7620326 4.32282836,49.7134891 C4.49366329,49.657413 4.66273704,49.6005 4.82916902,49.5368913 C4.97446677,49.4808152 5.11624216,49.4197174 5.25889814,49.3577826 C5.42092715,49.2874783 5.58119497,49.2155 5.73882102,49.137663 C5.87707404,49.0690326 6.01268528,48.9962174 6.14741592,48.9225652 C6.30063901,48.8388696 6.45122032,48.752663 6.59915985,48.6614348 C6.72948753,48.581087 6.85717344,48.4982283 6.98397875,48.4128587 C7.12751532,48.3157717 7.26841012,48.2161739 7.40578254,48.1123913 C7.5273043,48.021163 7.64706487,47.9282609 7.76418367,47.8320109 C7.89715313,47.7232065 8.02660022,47.6102174 8.15340553,47.4955543 C8.26524078,47.3942826 8.37619542,47.2921739 8.48274711,47.1858804 C8.60514946,47.0653587 8.72226826,46.9406522 8.83762587,46.8142717 C8.938894,46.7037935 9.03928154,46.5933152 9.13526612,46.4794891 C9.24622077,46.34725 9.35101127,46.2108261 9.45492118,46.0735652 C9.54386102,45.9555543 9.63368145,45.8392174 9.71733773,45.7170217 C9.81596409,45.5739022 9.9075457,45.4257609 9.99912732,45.2767826 C10.0757389,45.152913 10.153231,45.0298804 10.224559,44.902663 C10.310857,44.7478261 10.3874686,44.5888043 10.4649607,44.4297826 C10.5274828,44.3008913 10.5935272,44.1745109 10.6498851,44.0431087 C10.7229743,43.8757174 10.7837352,43.7033043 10.8471379,43.5317283 C10.8946898,43.401163 10.9475254,43.2731087 10.9897938,43.1408696 C11.0487935,42.9575761 11.0937037,42.7684239 11.1421363,42.5809457 C11.1738377,42.4545652 11.2125837,42.3298587 11.2398821,42.2018043 C11.2847923,41.9900543 11.3138519,41.7732826 11.343792,41.5565109 C11.3587621,41.4468696 11.3825381,41.3397391 11.3939858,41.2292609 C11.4292095,40.8995 11.4477019,40.5655543 11.4477019,40.2282609 L11.4477019,37.7173913 L44.4214864,37.7173913 L56.7876462,65.3369565 L50.1937699,65.3369565 Z M54.5571055,27.673913 C54.1132869,32.33325 50.0009201,35.9982826 44.994752,36.0392935 C44.9929909,36.0392935 44.9912297,36.0384565 44.9894685,36.0384565 L10.5671095,36.0434783 C10.0810224,36.0434783 9.686517,36.4184348 9.686517,36.8804348 L9.686517,40.2282609 C9.686517,40.5078043 9.67066633,40.784837 9.64248737,41.0576848 C9.63280086,41.150587 9.61342782,41.2418152 9.60109953,41.3338804 C9.57644294,41.5121522 9.55178635,41.689587 9.51568206,41.8645109 C9.49278666,41.9724783 9.46196592,42.0770978 9.43466755,42.1833913 C9.39592149,42.3382283 9.35805601,42.4930652 9.30962343,42.6437174 C9.27439973,42.7550326 9.2312507,42.862163 9.19162404,42.9709674 C9.13966908,43.112413 9.08859472,43.2546957 9.02871443,43.3919565 C8.98116244,43.5024348 8.9274463,43.6087283 8.87549135,43.7166957 C8.81208869,43.8472609 8.74868603,43.978663 8.67823864,44.1058804 C8.61923894,44.2130109 8.55495569,44.3167935 8.49155304,44.4205761 C8.41670268,44.5427717 8.34097173,44.6632935 8.26083781,44.7813043 C8.19127101,44.883413 8.11730124,44.9821739 8.04333148,45.0809348 C7.95791401,45.1939239 7.87073536,45.3060761 7.78003433,45.4148804 C7.70078101,45.5102935 7.61800532,45.6031957 7.53434904,45.6960978 C7.43924505,45.8007174 7.34149929,45.9028261 7.24111175,46.0032609 C7.15217191,46.0919783 7.06147089,46.1781848 6.96900868,46.2635543 C6.86421818,46.3589674 6.7567859,46.4510326 6.64759244,46.5414239 C6.55072727,46.6217717 6.45210091,46.7012826 6.35171337,46.7774457 C6.23723635,46.8636522 6.12011756,46.9456739 6.00123758,47.0268587 C5.89732767,47.098 5.79341776,47.1691413 5.68598548,47.2360978 C5.56270253,47.3130978 5.43501663,47.3842391 5.30733072,47.4545435 C5.19725666,47.5156413 5.0880632,47.5775761 4.97534737,47.6344891 C4.84237791,47.7014457 4.70412489,47.7608696 4.56763306,47.8219674 C4.45403663,47.8721848 4.3413208,47.9240761 4.2250826,47.9701087 C4.07978484,48.0270217 3.93008412,48.0755652 3.781264,48.1249457 C3.66678698,48.1626087 3.55407115,48.2044565 3.43783294,48.2379348 C3.27492334,48.2848043 3.10849136,48.3216304 2.94205939,48.3592935 C2.83462711,48.3844022 2.72807542,48.4136957 2.61888196,48.4346196 C2.41018155,48.4739565 2.19795877,48.5015761 1.98485539,48.5266848 C1.9135274,48.5350543 1.8439606,48.5501196 1.77175202,48.5568152 C1.76911024,48.5568152 1.76646846,48.5568152 1.76382669,48.5568152 L1.76382669,27.673913 L54.5571055,27.673913 Z" id="Shape"></path>
                <path d="M34,72.8 L34,74 C34,77.3088 36.9154667,80 40.5,80 C44.0845333,80 47,77.3088 47,74 L47,72.8 C47,72.3584 46.6117333,72 46.1333333,72 L34.8666667,72 C34.3882667,72 34,72.3584 34,72.8 Z M35.7333333,73.6 L45.2666667,73.6 L45.2666667,74 C45.2666667,76.4264 43.1286,78.4 40.5,78.4 C37.8714,78.4 35.7333333,76.4264 35.7333333,74 L35.7333333,73.6 Z" id="Shape"></path>
                <path d="M43,47.375 L43,47 L41.2666667,47 L41.2666667,47.375 C41.2666667,49.64975 39.1286,51.5 36.5,51.5 C33.8714,51.5 31.7333333,49.64975 31.7333333,47.375 L31.7333333,47 L30,47 L30,47.375 C30,50.477 32.9154667,53 36.5,53 C40.0845333,53 43,50.477 43,47.375 Z" id="Shape"></path>
                <path d="M107,77.8088951 C107,76.7920141 106.589478,75.8347521 105.844101,75.1159659 C105.099594,74.3963401 104.108078,74 103.05481,74 C102.079819,74 101.16745,74.3518358 100.444687,74.9732164 C98.9556732,73.696867 96.7151947,73.696867 95.2270508,74.9740561 C93.7380371,73.6977067 91.4975586,73.6977067 90.0085449,74.9740561 C88.4612579,73.6473245 86.0920563,73.6851112 84.6100006,75.1159659 L78.9044342,80.6244209 C78.1347046,79.440439 76.7744141,78.6485986 75.2227783,78.6485986 L64.7857666,78.6485986 C64.5552826,78.6485986 64.3334961,78.7367674 64.1708527,78.8946317 L52.86409,89.8107772 C52.7005768,89.9678017 52.6092529,90.1819261 52.6092529,90.4044475 L52.6092529,101.320593 L50,101.320593 L50,103 L70.8740234,103 L70.8740234,101.320593 L69.1345215,101.320593 L69.1345215,97.4697128 L76.4526062,90.4044475 L95.2270508,90.4044475 C95.4575348,90.4044475 95.6793213,90.3162787 95.8419647,90.1584144 L105.844101,80.5018242 C106.589478,79.783038 107,78.825776 107,77.8088951 Z M99.197464,76.1471218 L93.1274719,82.0074126 L90.3686218,82.0074126 L96.2768402,76.3033067 C97.0744019,75.5332986 98.3329315,75.4871149 99.197464,76.1471218 Z M93.9789581,76.1471218 L87.9089661,82.0074126 L85.150116,82.0074126 L91.0583344,76.3033067 C91.855896,75.5332986 93.1144257,75.4871149 93.9789581,76.1471218 Z M85.8398285,76.3033067 C86.6121674,75.55765 87.9089661,75.512306 88.7595825,76.1479615 L82.6904602,82.0074126 L79.9316101,82.0074126 L85.8398285,76.3033067 Z M104.614273,79.3144834 L94.8669739,88.7250405 L76.0925293,88.7250405 C75.8620453,88.7250405 75.6402588,88.8132094 75.4776154,88.9710737 L67.6498566,96.5284051 C67.4863434,96.6854297 67.3950195,96.8995541 67.3950195,97.1220755 L67.3950195,101.320593 L54.3487549,101.320593 L54.3487549,90.7520848 L65.1458435,80.3280056 L75.2227783,80.3280056 C76.6613464,80.3280056 77.8320313,81.4582465 77.8320313,82.8471161 C77.8320313,84.2359856 76.6613464,85.3662265 75.2227783,85.3662265 L66.5252686,85.3662265 L66.5252686,87.0456335 L75.2227783,87.0456335 C77.3232269,87.0456335 79.0801239,85.6005038 79.4836884,83.6868196 L93.4875488,83.6868196 C93.7180328,83.6868196 93.9398193,83.5986507 94.1024628,83.4407864 L101.495346,76.3033067 C102.328568,75.4988707 103.781052,75.4988707 104.614273,76.3033067 C105.474457,77.1337735 105.474457,78.4840167 104.614273,79.3144834 Z" id="Shape"></path>
                <rect id="Rectangle-path" x="47" y="101" width="2" height="2"></rect>
                <rect id="Rectangle-path" x="43" y="101" width="2" height="2"></rect>
                <rect id="Rectangle-path" x="40" y="101" width="2" height="2"></rect>
                <path d="M53.8592783,8.53369444 L53.8592783,20.4861111 C53.8592783,22.7453194 55.8179439,24.5833333 58.2254522,24.5833333 L70.4507391,24.5833333 L70.4507391,32.7777778 L68.7042696,32.7777778 C66.2967613,32.7777778 64.3380957,34.6157917 64.3380957,36.875 L64.3380957,52.1051944 L58.48131,57.6012083 C58.2315648,57.8355694 58.1564667,58.1879306 58.291818,58.4944028 C58.4271694,58.8000556 58.7459001,59 59.098687,59 L91.4083739,59 C93.8158822,59 95.7745478,57.1619861 95.7745478,54.9027778 L95.7745478,49.9861111 L107.1266,49.9861111 C107.479387,49.9861111 107.798117,49.7861667 107.933469,49.4805139 C108.06882,49.1740417 107.993722,48.8216806 107.743977,48.5873194 L103.633661,44.7301944 L103.633661,22.9444444 C103.633661,20.6852361 101.674995,18.8472222 99.2674869,18.8472222 L88.7886695,18.8472222 L88.7886695,4.09722222 C88.7886695,1.83801389 86.8300039,0 84.4224956,0 L46.8734,0 C46.5206132,0 46.2018825,0.199944444 46.0665311,0.505597222 C45.9311797,0.812069444 46.0062779,1.16443056 46.2560231,1.39879167 L53.8592783,8.53369444 Z M94.0280782,54.9027778 C94.0280782,56.2581389 92.8527042,57.3611111 91.4083739,57.3611111 L61.2066757,57.3611111 L65.8287074,53.0237917 C65.9928756,52.8705556 66.0845652,52.6615972 66.0845652,52.4444444 L66.0845652,36.875 C66.0845652,35.5196389 67.2599393,34.4166667 68.7042696,34.4166667 L71.3239739,34.4166667 L91.4083739,34.4166667 C92.8527042,34.4166667 94.0280782,35.5196389 94.0280782,36.875 L94.0280782,49.1666667 L94.0280782,54.9027778 Z M101.887191,22.9444444 L101.887191,45.0694444 C101.887191,45.2865972 101.978881,45.4955556 102.143049,45.6487917 L105.018611,48.3472222 L95.7745478,48.3472222 L95.7745478,36.875 C95.7745478,34.6157917 93.8158822,32.7777778 91.4083739,32.7777778 L72.1972087,32.7777778 L72.1972087,23.7638889 L72.1972087,22.9444444 C72.1972087,21.5890833 73.3725827,20.4861111 74.816913,20.4861111 L87.9154348,20.4861111 L99.2674869,20.4861111 C100.711817,20.4861111 101.887191,21.5890833 101.887191,22.9444444 Z M84.4224956,1.63888889 C85.866826,1.63888889 87.0422,2.74186111 87.0422,4.09722222 L87.0422,18.8472222 L74.816913,18.8472222 C72.4094048,18.8472222 70.4507391,20.6852361 70.4507391,22.9444444 L58.2254522,22.9444444 C56.7811219,22.9444444 55.6057479,21.8414722 55.6057479,20.4861111 L55.6057479,8.19444444 C55.6057479,7.97729167 55.5140582,7.76833333 55.3498901,7.61509722 L48.9813888,1.63888889 L84.4224956,1.63888889 Z" id="Shape"></path>
                <path d="M6,4.67087239 L4.62495492,3 C4.04399567,3.47801009 3.49657411,4.00576784 3,4.56921413 L4.62170934,6 C5.04255319,5.52415285 5.50667147,5.07642394 6,4.67087239 Z" id="Shape"></path>
                <path d="M10,1.59592668 L9.66569888,0 C9.09995852,0.114867617 8.54002489,0.275356415 8,0.478207739 L8.59311489,2 C9.04852758,1.82810591 9.52218996,1.69205703 10,1.59592668 Z" id="Shape"></path>
                <path d="M12,21.9086538 L11.769378,20 C11.2133971,20.0673077 10.6421053,20.0932692 10.077512,20.0692308 L10,21.9903846 C10.1626794,21.9971154 10.3253589,22 10.4889952,22 C10.9942584,22 11.5033493,21.9692308 12,21.9086538 Z" id="Shape"></path>
                <path d="M2,16.1743889 C2.40646567,16.8168552 2.86850708,17.4308646 3.37195786,18 L5,16.5454214 C4.57391936,16.0638453 4.18270977,15.5428676 3.83835815,15 L2,16.1743889 Z" id="Shape"></path>
                <path d="M2,12.5685393 C1.8762072,12.0552809 1.79192274,11.5276404 1.74978051,11 L0,11.1447191 C0.049165935,11.7694382 0.148375768,12.3932584 0.29499561,13 L2,12.5685393 Z" id="Shape"></path>
                <path d="M8,19.5768645 C7.57599077,19.4185693 7.16198538,19.2245053 6.76875721,19 L6,20.3181126 C6.46479415,20.5829528 6.95421316,20.8120244 7.45517507,21 L8,19.5768645 Z" id="Shape"></path>
                <path d="M22,6.50097618 C21.8289017,5.98633346 21.6138728,5.48184303 21.3618497,5 L20,5.73252636 C20.2134875,6.13939867 20.394605,6.56579461 20.539499,7 L22,6.50097618 Z" id="Shape"></path>
                <path d="M19,16.1082283 L20.1762974,17 C20.4839897,16.5878428 20.7615017,16.1475167 21,15.6893996 L19.6963563,15 C19.4946632,15.3869533 19.2605815,15.7598221 19,16.1082283 Z" id="Shape"></path>
                <path d="M14,0.351629503 C13.413929,0.187821612 12.8094612,0.0694682676 12.2032413,0 L12,1.70325901 C12.5124836,1.76157804 13.0240911,1.8619211 13.5190539,2 L14,0.351629503 Z" id="Shape"></path>
                <path d="M23,11.0459662 L23,11 L21.1317142,11.0459662 C21.1317142,11.6022514 21.0878094,12.1594747 21,12.7016886 L22.8449323,13 C22.947688,12.3592871 23,11.7016886 23,11.0459662 Z" id="Shape"></path>
                <path d="M18,19.2221397 L17.1461769,18 C16.7841079,18.2488856 16.398051,18.4702823 16,18.6582467 L16.643928,20 C17.1154423,19.7786033 17.5712144,19.5163447 18,19.2221397 Z" id="Shape"></path>
                <path d="M20,3.42945007 C19.4513788,2.90846599 18.8570392,2.42655572 18.2322206,2 L17,3.7897974 C17.527939,4.1512301 18.0319303,4.55824891 18.4967344,5 L20,3.42945007 Z" id="Shape"></path>
                <path d="M2,6.63470134 L0.5272,6 C0.3096,6.52255181 0.132,7.06542056 0,7.61560341 L1.5544,8 C1.6664,7.53433564 1.816,7.07517269 2,6.63470134 Z" id="Shape"></path>
                <path d="M34.8000027,12 L41.1999973,12 C41.4847971,12 41.7487968,11.8304187 41.8919967,11.5555184 C42.0351966,11.2806181 42.0359966,10.9414554 41.8943967,10.66477 L38.6943994,4.41703623 C38.4103997,3.86098792 37.5896003,3.86098792 37.3056006,4.41703623 L34.1056033,10.66477 C33.9640034,10.9414554 33.9648034,11.2806181 34.1080033,11.5555184 C34.2512032,11.8304187 34.5152029,12 34.8000027,12 Z M38,6.65908013 L39.8215985,10.2149332 L36.1784015,10.2149332 L38,6.65908013 Z" id="Shape"></path>
                <path d="M99.3056006,93.3649067 L96.1056033,98.8316738 C95.9640034,99.0737735 95.9648034,99.3705408 96.1080033,99.6110786 C96.2512032,99.8516163 96.5152029,100 96.8000027,100 L103.199997,100 C103.484797,100 103.748797,99.8516163 103.891997,99.6110786 C104.035197,99.3705408 104.035997,99.0737735 103.894397,98.8316738 L100.694399,93.3649067 C100.4104,92.8783644 99.5896003,92.8783644 99.3056006,93.3649067 Z M98.1784015,98.4380665 L100,95.3266951 L101.821598,98.4380665 L98.1784015,98.4380665 Z" id="Shape"></path>
                <path d="M28.4344283,21.7656059 C28.5904205,21.921602 28.7952102,22 29,22 C29.2047898,22 29.4095795,21.921602 29.5655717,21.7656059 L32.7654117,18.5656859 C33.0781961,18.2528937 33.0781961,17.7473063 32.7654117,17.4345141 L29.5655717,14.2345941 C29.2527874,13.921802 28.7472126,13.921802 28.4344283,14.2345941 L25.2345883,17.4345141 C24.9218039,17.7473063 24.9218039,18.2528937 25.2345883,18.5656859 L28.4344283,21.7656059 Z M29,15.9313517 L31.0686966,18.0001 L29,20.0688483 L26.9313034,18.0001 L29,15.9313517 Z" id="Shape"></path>
                <path d="M46.5,20 C48.43025,20 50,18.6545 50,17 C50,15.3455 48.43025,14 46.5,14 C44.56975,14 43,15.3455 43,17 C43,18.6545 44.56975,20 46.5,20 Z M46.5,15.5 C47.465125,15.5 48.25,16.17275 48.25,17 C48.25,17.82725 47.465125,18.5 46.5,18.5 C45.534875,18.5 44.75,17.82725 44.75,17 C44.75,16.17275 45.534875,15.5 46.5,15.5 Z" id="Shape"></path>
                <polygon id="Shape" points="96.3350418 6 98.5 4.14432155 100.664958 6 102 4.85567845 99.8350418 3 102 1.14432155 100.664958 0 98.5 1.85567845 96.3350418 0 95 1.14432155 97.1649582 3 95 4.85567845"></polygon>
                <path d="M104.5,10 C102.56975,10 101,11.3455 101,13 C101,14.6545 102.56975,16 104.5,16 C106.43025,16 108,14.6545 108,13 C108,11.3455 106.43025,10 104.5,10 Z M104.5,14.5 C103.534875,14.5 102.75,13.82725 102.75,13 C102.75,12.17275 103.534875,11.5 104.5,11.5 C105.465125,11.5 106.25,12.17275 106.25,13 C106.25,13.82725 105.465125,14.5 104.5,14.5 Z" id="Shape"></path>
                <rect id="Rectangle-path" x="63" y="67" width="2" height="2"></rect>
                <rect id="Rectangle-path" x="67" y="67" width="2" height="2"></rect>
                <rect id="Rectangle-path" x="70" y="67" width="2" height="2"></rect>
                <rect id="Rectangle-path" x="74" y="67" width="23" height="2"></rect>
                <rect id="Rectangle-path" x="83" y="63" width="2" height="2"></rect>
                <rect id="Rectangle-path" x="86" y="63" width="2" height="2"></rect>
                <rect id="Rectangle-path" x="90" y="63" width="19" height="2"></rect>
                <rect id="Rectangle-path" x="70" y="43" width="8" height="2"></rect>
                <rect id="Rectangle-path" x="81" y="43" width="10" height="2"></rect>
                <rect id="Rectangle-path" x="70" y="47" width="4" height="2"></rect>
                <rect id="Rectangle-path" x="77" y="47" width="8" height="2"></rect>
                <rect id="Rectangle-path" x="86" y="47" width="6" height="2"></rect>
                <rect id="Rectangle-path" x="70" y="52" width="8" height="2"></rect>
                <rect id="Rectangle-path" x="81" y="52" width="10" height="2"></rect>
                <rect id="Rectangle-path" x="84" y="39" width="7" height="2"></rect>
                <rect id="Rectangle-path" x="70" y="39" width="12" height="2"></rect>
                <rect id="Rectangle-path" x="94" y="24" width="4" height="2"></rect>
                <rect id="Rectangle-path" x="77" y="24" width="15" height="2"></rect>
                <rect id="Rectangle-path" x="77" y="28" width="7" height="2"></rect>
                <rect id="Rectangle-path" x="86" y="28" width="12" height="2"></rect>
                <rect id="Rectangle-path" x="78" y="9" width="4" height="2"></rect>
                <rect id="Rectangle-path" x="62" y="9" width="15" height="2"></rect>
                <rect id="Rectangle-path" x="62" y="14" width="7" height="2"></rect>
                <rect id="Rectangle-path" x="70" y="14" width="12" height="2"></rect>
                <rect id="Rectangle-path" x="62" y="5" width="4" height="2"></rect>
                <rect id="Rectangle-path" x="69" y="5" width="15" height="2"></rect>
            </g>
        </g>
    </g>
</svg>