
<svg width="104px" height="104px" viewBox="0 0 104 104" version="1.1" xmlns="http://www.w3.org/2000/svg" xmlns:xlink="http://www.w3.org/1999/xlink">
    <defs></defs>
    <g id="Welcome" stroke="none" stroke-width="1" fill="none" fill-rule="evenodd">
        <g id="Desktop" transform="translate(-304.000000, -7679.000000)" fill="#766E6E">
            <g id="noun_542323_cc-copy" transform="translate(304.000000, 7679.000000)">
                <g id="Group">
                    <path d="M26,0.148719709 C25.0427461,0.148814493 24.2667624,0.917277003 24.2666667,1.86525277 L24.2666667,38.0532578 L12.2755207,38.0532578 C9.35074435,38.0532578 6.93333333,40.4274152 6.93333333,43.3235498 L6.93333333,89.408439 L1.73333333,89.408439 C0.776079462,89.4085339 9.58258672e-05,90.1769964 0,91.1249721 C0,97.7353409 5.33631141,103.140704 11.9369793,103.140704 L92.0630221,103.140704 C98.6636907,103.140704 104,97.7353409 104,91.1249721 C103.999904,90.1769964 103.223921,89.4085339 102.266667,89.408439 L97.0666667,89.408439 L97.0666667,43.3235498 C97.0666667,40.4274152 94.6493669,38.0532578 91.7244779,38.0532578 L79.7197925,38.0532578 L79.7197925,23.1811068 L79.7197925,16.1138182 C79.7197646,16.0262651 79.7129732,15.9388424 79.6994779,15.8523153 C79.7825534,15.3183591 79.6069655,14.7768253 79.2255221,14.39058 L65.3859371,0.658315463 C65.0554401,0.32729161 64.6033667,0.14337493 64.1333333,0.148719709 C64.0971604,0.149834325 64.0610316,0.152070461 64.025,0.155424831 C63.9732179,0.150878508 63.9212555,0.148641206 63.8692704,0.148719709 L26,0.148719709 Z M27.7333333,3.58178584 L62.4203112,3.58178584 L62.4203112,15.5975173 C62.420407,16.545493 63.1963907,17.3139555 64.1536445,17.3140503 L76.2531259,17.3140503 L76.2531259,23.1811068 L76.2531259,51.4703771 L76.2531259,68.8100423 L48.5265629,68.8100423 L32.0531259,68.8100423 L27.7333333,68.8100423 L27.7333333,3.58178584 Z M65.8869779,6.01577617 L73.8223963,13.8809842 L65.8869779,13.8809842 L65.8869779,6.01577617 Z M32.7843741,7.01485197 C31.8270806,7.06299312 31.0904489,7.87053726 31.1390612,8.81855229 C31.1876735,9.76656733 32.0031214,10.4960592 32.9604149,10.4479181 L36.4270816,10.4479181 C37.0521839,10.4566729 37.6336226,10.1314318 37.9487537,9.59673595 C38.2638847,9.0620401 38.2638847,8.40072996 37.9487537,7.86603411 C37.6336226,7.33133826 37.0521839,7.00609715 36.4270816,7.01485197 L32.9604149,7.01485197 C32.9017725,7.0118994 32.8430165,7.0118994 32.7843741,7.01485197 Z M43.1911445,7.01485197 C42.233851,7.06299408 41.4972201,7.87053899 41.5458334,8.81855401 C41.5944466,9.76656903 42.4098952,10.4960602 43.3671888,10.4479181 L57.1729184,10.4479181 C57.7980207,10.4566729 58.3794594,10.1314318 58.6945905,9.59673595 C59.0097215,9.0620401 59.0097215,8.40072996 58.6945905,7.86603411 C58.3794594,7.33133826 57.7980207,7.00609715 57.1729184,7.01485197 L43.3671888,7.01485197 C43.3085453,7.01189928 43.2497881,7.01189928 43.1911445,7.01485197 Z M32.7843741,13.8809842 C31.8270806,13.9291254 31.0904489,14.7366695 31.1390612,15.6846846 C31.1876735,16.6326996 32.0031214,17.3621915 32.9604149,17.3140503 L36.4270816,17.3140503 C37.0521839,17.3228052 37.6336226,16.9975641 37.9487537,16.4628682 C38.2638847,15.9281724 38.2638847,15.2668622 37.9487537,14.7321664 C37.6336226,14.1974705 37.0521839,13.8722294 36.4270816,13.8809842 L32.9604149,13.8809842 C32.9017725,13.8780317 32.8430165,13.8780317 32.7843741,13.8809842 Z M43.1911445,13.8809842 C42.233851,13.9291263 41.4972201,14.7366712 41.5458333,15.6846863 C41.5944466,16.6327013 42.4098952,17.3621924 43.3671888,17.3140503 L57.1729184,17.3140503 C57.7980207,17.3228052 58.3794594,16.9975641 58.6945905,16.4628682 C59.0097215,15.9281724 59.0097215,15.2668622 58.6945905,14.7321664 C58.3794594,14.1974705 57.7980207,13.8722294 57.1729184,13.8809842 L43.3671888,13.8809842 C43.3085453,13.8780315 43.2497881,13.8780315 43.1911445,13.8809842 L43.1911445,13.8809842 Z M46.7796888,24.1868877 C40.1076104,24.1868877 34.6665765,29.5888173 34.6666667,36.2026188 C34.6667624,37.1505946 35.4427461,37.9190571 36.4,37.9191519 L46.7796888,37.9191519 C47.7369427,37.9190571 48.5129264,37.1505946 48.5130221,36.2026188 L48.5130221,25.9034208 C48.5129264,24.955445 47.7369427,24.1869825 46.7796888,24.1868877 L46.7796888,24.1868877 Z M53.0088555,26.2453864 C52.0516015,26.2454812 51.2756178,27.0139437 51.2755221,27.9619195 L51.2755221,40.6615812 L38.4786445,40.6615812 C37.5213906,40.661676 36.7454069,41.4301385 36.7453112,42.3781143 C36.7452453,48.8975069 40.7117221,54.7879514 46.7864592,57.2837905 C52.8611824,59.7796296 59.8640675,58.4016724 64.5125,53.790378 C69.1609776,49.1794268 70.5553645,42.2329814 68.0401037,36.2093236 C65.5247909,30.1860098 59.5845189,26.2453864 53.0088555,26.2453864 Z M45.0463555,28.330706 L45.0463555,34.4860858 L38.8442704,34.4860858 C39.5824347,31.3022602 41.8401915,29.0657255 45.0463555,28.330706 Z M54.7421888,30.2014586 C59.1519968,30.8441289 63.0954757,33.3449792 64.8375,37.5168412 C66.8213901,42.2678614 65.7263464,47.7274768 62.0614592,51.3630938 C58.3966067,54.9987108 52.9008411,56.0790315 48.1135408,54.1122279 C43.907968,52.3840224 41.3797765,48.4742098 40.7333333,44.0946474 L53.0088555,44.0946474 C53.9661094,44.0945526 54.7420931,43.3260901 54.7421888,42.3781143 L54.7421888,30.2014586 Z M12.2755207,41.4863239 L24.2666667,41.4863239 L24.2666667,44.7785794 L15.6,44.7785794 C14.6427461,44.7786741 13.8667623,45.5471366 13.8666667,46.4951124 L13.8666667,84.2588398 C13.8667623,85.2068156 14.6427461,85.9752782 15.6,85.9753729 L33.8,85.9753729 L71.2901037,85.9753729 L81.7239592,85.9753729 L88.4,85.9753729 C89.3572539,85.9752782 90.1332377,85.2068156 90.1333333,84.2588398 L90.1333333,46.4951124 C90.1332377,45.5471366 89.3572539,44.7786741 88.4,44.7785794 L79.7197925,44.7785794 L79.7197925,41.4863239 L91.7244779,41.4863239 C92.8007773,41.4863239 93.6,42.2812709 93.6,43.3235498 L93.6,89.408439 L10.4,89.408439 L10.4,43.3235498 C10.4,42.2812709 11.1995211,41.4863239 12.2755207,41.4863239 Z M17.3333333,48.2116455 L24.2666667,48.2116455 L24.2666667,70.5265753 C24.2667624,71.4745511 25.0427461,72.2430136 26,72.2431084 L32.0531259,72.2431084 L48.5265629,72.2431084 L77.9864592,72.2431084 C78.9437131,72.2430136 79.7196968,71.4745511 79.7197925,70.5265753 L79.7197925,51.4703771 L79.7197925,48.2116455 L86.6666667,48.2116455 L86.6666667,82.5423068 L81.7239592,82.5423068 L71.2901037,82.5423068 L33.8,82.5423068 L17.3333333,82.5423068 L17.3333333,48.2116455 Z M39.6906259,61.9506148 C38.7333323,61.9987559 37.9967006,62.8063001 38.0453129,63.7543151 C38.0939253,64.7023302 38.9093731,65.4318221 39.8666667,65.3836809 L64.1333333,65.3836809 C64.7584356,65.3924357 65.3398744,65.0671946 65.6550054,64.5324988 C65.9701364,63.9978029 65.9701364,63.3364928 65.6550054,62.8017969 C65.3398744,62.2671011 64.7584356,61.94186 64.1333333,61.9506148 L39.8666667,61.9506148 C39.8080243,61.9476622 39.7492683,61.9476622 39.6906259,61.9506148 L39.6906259,61.9506148 Z M4.16406259,92.8415052 L41.0312517,92.8415052 L41.0312517,93.8003502 C41.0312517,96.1822115 42.9912531,98.1922614 45.4052075,98.1922614 L58.5947925,98.1922614 C61.0087469,98.1922614 62.9687517,96.1822115 62.9687483,93.8003502 L62.9687483,92.8415052 L99.8359371,92.8415052 C98.9727891,96.6731503 96.1048747,99.7076374 92.0630221,99.7076374 L11.9369793,99.7076374 C7.89512464,99.7076374 5.02721197,96.6731503 4.16406259,92.8415052 Z M44.4979184,92.8415052 L59.5020816,92.8415052 L59.5020816,93.8003502 C59.5020816,94.3832849 59.1036576,94.7591953 58.5947925,94.7591953 L45.4052075,94.7591953 C44.8963424,94.7591953 44.4979115,94.3836282 44.4979184,93.8003502 L44.4979184,92.8415052 Z" id="Shape"></path>
                </g>
            </g>
        </g>
    </g>
</svg>