
<svg width="83px" height="84px" viewBox="0 0 83 84" version="1.1" xmlns="http://www.w3.org/2000/svg" xmlns:xlink="http://www.w3.org/1999/xlink">
    <defs></defs>
    <g id="Welcome" stroke="none" stroke-width="1" fill="none" fill-rule="evenodd">
        <g id="Desktop" transform="translate(-816.000000, -6492.000000)" fill="#766E6E">
            <g id="noun_542323_cc" transform="translate(816.000000, 6492.000000)">
                <g id="Group">
                    <path d="M20.75,0.993868518 C19.9860377,0.993944276 19.3667431,1.6081601 19.3666667,2.36585708 L19.3666667,31.290164 L9.79680983,31.290164 C7.46261328,31.290164 5.53333333,33.1877778 5.53333333,35.5025969 L5.53333333,72.337274 L1.38333333,72.337274 C0.619371109,72.3373498 7.64764132e-05,72.9515656 0,73.7092626 C0,78.9927905 4.25878699,83.3131825 9.52662767,83.3131825 L73.4733734,83.3131825 C78.7412147,83.3131825 83,78.9927905 83,73.7092626 C82.9999235,72.9515656 82.3806289,72.3373498 81.6166667,72.337274 L77.4666667,72.337274 L77.4666667,35.5025969 C77.4666667,33.1877778 75.5374755,31.290164 73.2031891,31.290164 L63.6225267,31.290164 L63.6225267,19.4031683 L63.6225267,13.754434 C63.6225044,13.6844547 63.6170844,13.6145796 63.6063141,13.5454203 C63.6726148,13.1186404 63.5324821,12.6858039 63.2280609,12.3770862 L52.1830075,1.40117762 C51.9192455,1.13659726 51.5584561,0.989596549 51.1833333,0.993868518 C51.1544645,0.994759406 51.125631,0.996546703 51.096875,0.99922778 C51.0555489,0.995594 51.0140789,0.993805772 50.9725908,0.993868518 L20.75,0.993868518 Z M22.1333333,3.73784565 L49.8162099,3.73784565 L49.8162099,13.3417656 C49.8162864,14.0994626 50.435581,14.7136783 51.1995432,14.7137542 L60.8558601,14.7137542 L60.8558601,19.4031683 L60.8558601,42.0141836 L60.8558601,55.8734112 L38.72793,55.8734112 L25.5808601,55.8734112 L22.1333333,55.8734112 L22.1333333,3.73784565 Z M52.5828766,5.68328263 L58.9159509,11.9697771 L52.5828766,11.9697771 L52.5828766,5.68328263 Z M26.1644524,6.48182278 C25.4004585,6.52030099 24.8125698,7.16575394 24.8513662,7.9234823 C24.8901625,8.68121067 25.5409526,9.26427812 26.3049465,9.22579992 L29.0716132,9.22579992 C29.5704929,9.23279746 30.0345258,8.97283912 30.2860245,8.54546804 C30.5375233,8.11809696 30.5375233,7.58952575 30.2860245,7.16215467 C30.0345258,6.73478358 29.5704929,6.47482525 29.0716132,6.48182278 L26.3049465,6.48182278 C26.2581454,6.47946286 26.2112536,6.47946286 26.1644524,6.48182278 Z M34.4698557,6.48182278 C33.7058618,6.52030176 33.1179737,7.16575532 33.1567709,7.92348367 C33.195568,8.68121203 33.8463587,9.26427887 34.6103526,9.22579992 L45.6283868,9.22579992 C46.1272665,9.23279746 46.5912994,8.97283912 46.8427981,8.54546804 C47.0942969,8.11809696 47.0942969,7.58952575 46.8427981,7.16215467 C46.5912994,6.73478358 46.1272665,6.47482525 45.6283868,6.48182278 L34.6103526,6.48182278 C34.5635505,6.47946277 34.5166578,6.47946277 34.4698557,6.48182278 Z M26.1644524,11.9697771 C25.4004585,12.0082553 24.8125698,12.6537082 24.8513662,13.4114366 C24.8901625,14.1691649 25.5409526,14.7522324 26.3049465,14.7137542 L29.0716132,14.7137542 C29.5704929,14.7207517 30.0345258,14.4607934 30.2860245,14.0334223 C30.5375233,13.6060512 30.5375233,13.07748 30.2860245,12.6501089 C30.0345258,12.2227379 29.5704929,11.9627795 29.0716132,11.9697771 L26.3049465,11.9697771 C26.2581454,11.9674171 26.2112536,11.9674171 26.1644524,11.9697771 Z M34.4698557,11.9697771 C33.7058618,12.008256 33.1179737,12.6537096 33.1567708,13.4114379 C33.195568,14.1691663 33.8463587,14.7522331 34.6103526,14.7137542 L45.6283868,14.7137542 C46.1272665,14.7207517 46.5912994,14.4607934 46.8427981,14.0334223 C47.0942969,13.6060512 47.0942969,13.07748 46.8427981,12.6501089 C46.5912994,12.2227379 46.1272665,11.9627795 45.6283868,11.9697771 L34.6103526,11.9697771 C34.5635505,11.967417 34.5166578,11.967417 34.4698557,11.9697771 L34.4698557,11.9697771 Z M37.3337901,20.2070677 C32.0089583,20.2070677 27.6665947,24.5247157 27.6666667,29.8109874 C27.6667431,30.5686844 28.2860377,31.1829002 29.05,31.182976 L37.3337901,31.182976 C38.0977524,31.1829002 38.717047,30.5686844 38.7171234,29.8109874 L38.7171234,21.5790563 C38.717047,20.8213593 38.0977524,20.2071435 37.3337901,20.2070677 L37.3337901,20.2070677 Z M42.3051443,21.8523822 C41.541182,21.852458 40.9218873,22.4666738 40.9218109,23.2243708 L40.9218109,33.3749417 L30.7089182,33.3749417 C29.944956,33.3750175 29.3256613,33.9892333 29.3255849,34.7469303 C29.3255323,39.9577429 32.4910859,44.6658506 37.3391934,46.660722 C42.1872898,48.6555934 47.7761308,47.5542213 51.4859375,43.8685112 C55.1957802,40.1830755 56.3086082,34.6309287 54.3012366,29.8163464 C52.2938235,25.0020391 47.5530295,21.8523822 42.3051443,21.8523822 Z M35.9504568,23.519134 L35.9504568,28.4389988 L31.0007158,28.4389988 C31.5898277,25.8942344 33.3916913,24.1066195 35.9504568,23.519134 Z M43.6884776,25.014387 C47.2078436,25.5280598 50.3550431,27.5269365 51.7453125,30.8614175 C53.3286094,34.6588075 52.4546803,39.0225625 49.5298184,41.9284343 C46.6049842,44.8343061 42.2189405,45.6977836 38.3983066,44.1257591 C35.041936,42.744441 33.0242447,39.6194105 32.5083333,36.1189189 L42.3051443,36.1189189 C43.0691065,36.1188431 43.6884012,35.5046273 43.6884776,34.7469303 L43.6884776,25.014387 Z M9.79680983,34.0341411 L19.3666667,34.0341411 L19.3666667,36.6655713 L12.45,36.6655713 C11.6860377,36.665647 11.066743,37.2798628 11.0666667,38.0375598 L11.0666667,68.2213083 C11.066743,68.9790053 11.6860377,69.5932211 12.45,69.5932969 L26.975,69.5932969 L56.8949866,69.5932969 L65.2220059,69.5932969 L70.55,69.5932969 C71.3139623,69.5932211 71.933257,68.9790053 71.9333333,68.2213083 L71.9333333,38.0375598 C71.933257,37.2798628 71.3139623,36.665647 70.55,36.6655713 L63.6225267,36.6655713 L63.6225267,34.0341411 L73.2031891,34.0341411 C74.0621588,34.0341411 74.7,34.6695255 74.7,35.5025969 L74.7,72.337274 L8.3,72.337274 L8.3,35.5025969 C8.3,34.6695255 8.93807938,34.0341411 9.79680983,34.0341411 Z M13.8333333,39.4095484 L19.3666667,39.4095484 L19.3666667,57.2453998 C19.3667431,58.0030967 19.9860377,58.6173126 20.75,58.6173883 L25.5808601,58.6173883 L38.72793,58.6173883 L62.2391934,58.6173883 C63.0031557,58.6173126 63.6224503,58.0030967 63.6225267,57.2453998 L63.6225267,42.0141836 L63.6225267,39.4095484 L69.1666667,39.4095484 L69.1666667,66.8493197 L65.2220059,66.8493197 L56.8949866,66.8493197 L26.975,66.8493197 L13.8333333,66.8493197 L13.8333333,39.4095484 Z M31.6761726,50.3908159 C30.9121787,50.4292941 30.3242899,51.0747471 30.3630863,51.8324754 C30.4018827,52.5902038 31.0526728,53.1732712 31.8166667,53.134793 L51.1833333,53.134793 C51.682213,53.1417906 52.1462459,52.8818322 52.3977447,52.4544612 C52.6492435,52.0270901 52.6492435,51.4985189 52.3977447,51.0711478 C52.1462459,50.6437767 51.682213,50.3838184 51.1833333,50.3908159 L31.8166667,50.3908159 C31.7698655,50.388456 31.7229737,50.388456 31.6761726,50.3908159 L31.6761726,50.3908159 Z M3.32324226,75.0812511 L32.7460951,75.0812511 L32.7460951,75.8476357 C32.7460951,77.751407 34.310327,79.3579974 36.2368483,79.3579974 L46.7631517,79.3579974 C48.689673,79.3579974 50.2539076,77.751407 50.2539049,75.8476357 L50.2539049,75.0812511 L79.6767575,75.0812511 C78.987899,78.143804 76.6990827,80.5692054 73.4733734,80.5692054 L9.52662767,80.5692054 C6.30091678,80.5692054 4.01210186,78.143804 3.32324226,75.0812511 Z M35.5127618,75.0812511 L47.4872382,75.0812511 L47.4872382,75.8476357 C47.4872382,76.313563 47.1692652,76.6140203 46.7631517,76.6140203 L36.2368483,76.6140203 C35.8307348,76.6140203 35.5127563,76.3138374 35.5127618,75.8476357 L35.5127618,75.0812511 Z" id="Shape"></path>
                </g>
            </g>
        </g>
    </g>
</svg>