
<svg width="203px" height="202px" viewBox="0 0 203 202" version="1.1" xmlns="http://www.w3.org/2000/svg" xmlns:xlink="http://www.w3.org/1999/xlink">
    <defs></defs>
    <g id="Welcome" stroke="none" stroke-width="1" fill="none" fill-rule="evenodd">
        <g id="Desktop" transform="translate(-86.000000, -9271.000000)" fill="#2B4C49">
            <g id="noun_542323_cc-copy-2" transform="translate(86.000000, 9271.000000)">
                <g id="Group">
                    <path d="M50.75,0.290524332 C48.881514,0.290709491 47.3668535,1.79190296 47.3666667,3.64377605 L47.3666667,74.337136 L23.9608722,74.337136 C18.2519337,74.337136 13.5333333,78.9750587 13.5333333,84.632665 L13.5333333,174.659614 L3.38333333,174.659614 C1.51484741,174.659799 0.000187044722,176.160992 0,178.012865 C0,190.926238 10.4160694,201.485627 23.3000653,201.485627 L179.699937,201.485627 C192.583935,201.485627 203,190.926238 203,178.012865 C202.999813,176.160992 201.485153,174.659799 199.616667,174.659614 L189.466667,174.659614 L189.466667,84.632665 C189.466667,78.9750587 184.748284,74.337136 179.039125,74.337136 L155.606903,74.337136 L155.606903,45.2843512 L155.606903,31.4783849 C155.606848,31.3073497 155.593592,31.1365693 155.56725,30.9675384 C155.729407,29.9244536 155.386673,28.8665658 154.642125,28.1120347 L127.628319,1.28602093 C126.983215,0.639364994 126.100802,0.280083292 125.183333,0.290524332 C125.112727,0.292701735 125.042206,0.297070033 124.971875,0.303622803 C124.8708,0.29474155 124.769374,0.290370976 124.667903,0.290524332 L50.75,0.290524332 Z M54.1333333,6.99702776 L121.839646,6.99702776 L121.839646,30.4697898 C121.839833,32.3216628 123.354493,33.8228561 125.222979,33.8230415 L148.840236,33.8230415 L148.840236,45.2843512 L148.840236,100.547513 L148.840236,134.420593 L94.720118,134.420593 L62.5652361,134.420593 L54.1333333,134.420593 L54.1333333,6.99702776 Z M128.606313,11.7518341 L144.095639,27.1165381 L128.606313,27.1165381 L128.606313,11.7518341 Z M63.9925764,13.7035312 C62.124013,13.7975751 60.6861646,15.3751146 60.7810522,17.2270644 C60.8759397,19.0790142 62.4676311,20.5040785 64.3361945,20.4100346 L71.1028612,20.4100346 C72.3230127,20.4271372 73.4579365,19.7917779 74.073048,18.7472481 C74.6881595,17.7027184 74.6881595,16.4108474 74.073048,15.3663177 C73.4579365,14.321788 72.3230127,13.6864286 71.1028612,13.7035312 L64.3361945,13.7035312 C64.2217291,13.6977633 64.1070419,13.6977633 63.9925764,13.7035312 Z M84.3057917,13.7035312 C82.4372284,13.7975769 80.9993815,15.375118 81.0942709,17.2270677 C81.1891603,19.0790175 82.7808532,20.5040803 84.6494166,20.4100346 L111.597139,20.4100346 C112.81729,20.4271372 113.952214,19.7917779 114.567326,18.7472481 C115.182437,17.7027184 115.182437,16.4108474 114.567326,15.3663177 C113.952214,14.321788 112.81729,13.6864286 111.597139,13.7035312 L84.6494166,13.7035312 C84.5349489,13.6977631 84.4202594,13.6977631 84.3057917,13.7035312 Z M63.9925764,27.1165381 C62.124013,27.2105819 60.6861646,28.7881215 60.7810522,30.6400713 C60.8759397,32.492021 62.4676311,33.9170854 64.3361945,33.8230415 L71.1028612,33.8230415 C72.3230127,33.8401441 73.4579365,33.2047847 74.073048,32.160255 C74.6881595,31.1157253 74.6881595,29.8238543 74.073048,28.7793245 C73.4579365,27.7347948 72.3230127,27.0994355 71.1028612,27.1165381 L64.3361945,27.1165381 C64.2217291,27.1107702 64.1070419,27.1107702 63.9925764,27.1165381 Z M84.3057917,27.1165381 C82.4372283,27.2105838 80.9993814,28.7881248 81.0942708,30.6400746 C81.1891602,32.4920244 82.7808532,33.9170872 84.6494166,33.8230415 L111.597139,33.8230415 C112.81729,33.8401441 113.952214,33.2047847 114.567326,32.160255 C115.182437,31.1157253 115.182437,29.8238543 114.567326,28.7793245 C113.952214,27.7347948 112.81729,27.0994355 111.597139,27.1165381 L84.6494166,27.1165381 C84.5349489,27.11077 84.4202594,27.11077 84.3057917,27.1165381 L84.3057917,27.1165381 Z M91.3103541,47.2491468 C78.2869703,47.2491468 67.6664907,57.80183 67.6666667,70.7219082 C67.6668535,72.5737813 69.181514,74.0749747 71.05,74.0751599 L91.3103541,74.0751599 C93.1788401,74.0749747 94.6935006,72.5737813 94.6936874,70.7219082 L94.6936874,50.6023986 C94.6935006,48.7505255 93.1788401,47.249332 91.3103541,47.2491468 L91.3103541,47.2491468 Z M103.469208,51.2704293 C101.600722,51.2706145 100.086062,52.771808 100.085875,54.6236811 L100.085875,79.4325026 L75.1073542,79.4325026 C73.2388682,79.4326878 71.7242077,80.9338813 71.7240209,82.7857543 C71.7238923,95.5214044 79.4661499,107.028403 91.3235694,111.904031 C103.180962,116.779659 116.850055,114.087816 125.923438,105.07964 C134.996908,96.0721357 137.718644,82.5022369 132.809049,70.735006 C127.899352,58.968447 116.304398,51.2704293 103.469208,51.2704293 Z M87.9270208,55.3441064 L87.9270208,67.3686565 L75.8210278,67.3686565 C77.2618677,61.1490452 81.6688353,56.7799688 87.9270208,55.3441064 Z M106.852542,58.9986263 C115.460148,60.2540844 123.157515,65.1395019 126.557813,73.2892449 C130.430213,82.570375 128.292772,93.2357475 121.139194,100.337935 C113.985684,107.440122 103.258372,109.550531 93.9139306,105.708375 C85.704976,102.332321 80.7701407,94.6944925 79.5083333,86.1390061 L103.469208,86.1390061 C105.337694,86.1388209 106.852355,84.6376274 106.852542,82.7857543 L106.852542,58.9986263 Z M23.9608722,81.0436395 L47.3666667,81.0436395 L47.3666667,87.475069 L30.45,87.475069 C28.5815139,87.475254 27.0668534,88.9764475 27.0666667,90.8283207 L27.0666667,164.599858 C27.0668534,166.451732 28.5815139,167.952925 30.45,167.95311 L65.975,167.95311 L139.152799,167.95311 L159.518882,167.95311 L172.55,167.95311 C174.418486,167.952925 175.933147,166.451732 175.933333,164.599858 L175.933333,90.8283207 C175.933147,88.9764475 174.418486,87.475254 172.55,87.475069 L155.606903,87.475069 L155.606903,81.0436395 L179.039125,81.0436395 C181.139979,81.0436395 182.7,82.5965706 182.7,84.632665 L182.7,174.659614 L20.3,174.659614 L20.3,84.632665 C20.3,82.5965706 21.8606038,81.0436395 23.9608722,81.0436395 Z M33.8333333,94.1815724 L47.3666667,94.1815724 L47.3666667,137.773845 C47.3668535,139.625718 48.881514,141.126911 50.75,141.127096 L62.5652361,141.127096 L94.720118,141.127096 L152.223569,141.127096 C154.092055,141.126911 155.606716,139.625718 155.606903,137.773845 L155.606903,100.547513 L155.606903,94.1815724 L169.166667,94.1815724 L169.166667,161.246607 L159.518882,161.246607 L139.152799,161.246607 L65.975,161.246607 L33.8333333,161.246607 L33.8333333,94.1815724 Z M77.4730486,121.020684 C75.6044852,121.114728 74.1666368,122.692267 74.2615243,124.544217 C74.3564118,126.396167 75.9481033,127.821231 77.8166667,127.727187 L125.183333,127.727187 C126.403485,127.74429 127.538409,127.108931 128.15352,126.064401 C128.768632,125.019871 128.768632,123.728 128.15352,122.68347 C127.538409,121.638941 126.403485,121.003581 125.183333,121.020684 L77.8166667,121.020684 C77.7022012,121.014916 77.587514,121.014916 77.4730486,121.020684 L77.4730486,121.020684 Z M8.12792986,181.366117 L80.0898471,181.366117 L80.0898471,183.239223 C80.0898471,187.892195 83.915619,191.818833 88.6274723,191.818833 L114.372528,191.818833 C119.084381,191.818833 122.91016,187.892195 122.910153,183.239223 L122.910153,181.366117 L194.872069,181.366117 C193.187271,188.851246 187.589323,194.779124 179.699937,194.779124 L23.3000653,194.779124 C15.410676,194.779124 9.81273106,188.851246 8.12792986,181.366117 Z M86.8565138,181.366117 L116.143486,181.366117 L116.143486,183.239223 C116.143486,184.377988 115.365793,185.11233 114.372528,185.11233 L88.6274723,185.11233 C87.6342068,185.11233 86.8565003,184.378658 86.8565138,183.239223 L86.8565138,181.366117 Z" id="Shape"></path>
                </g>
            </g>
        </g>
    </g>
</svg>