
<svg width="83px" height="83px" viewBox="0 0 83 83" version="1.1" xmlns="http://www.w3.org/2000/svg" xmlns:xlink="http://www.w3.org/1999/xlink">
    <defs></defs>
    <g id="Welcome" stroke="none" stroke-width="2" fill="none" fill-rule="evenodd">
        <g id="Desktop" transform="translate(-595.000000, -6493.000000)" fill-rule="nonzero" fill="#766E6E">
            <g id="noun_1262177_cc-copy" transform="translate(595.000000, 6493.000000)">
                <path d="M0.686563608,83 L22.6565991,83 C23.0355822,83 23.3431627,82.698087 23.3431627,82.326087 L23.3431627,69.5217391 L39.1341257,69.5217391 C39.5131088,69.5217391 39.8206893,69.2198261 39.8206893,68.8478261 L39.8206893,54.0217391 L45.3131982,54.0217391 C45.543197,54.0217391 45.7587779,53.9085217 45.8857922,53.7198261 C46.013493,53.5311304 46.0354631,53.2925652 45.9448367,53.0843261 L36.0953951,30.3640217 C40.5079395,29.8383696 43.9400709,26.1453261 43.9400709,21.673913 C43.9400709,21.301913 43.6324904,21 43.2535073,21 L0.686563608,21 C0.307580497,21 0,21.301913 0,21.673913 L0,39.8695652 L0,82.326087 C0,82.698087 0.307580497,83 0.686563608,83 Z M39.1341257,52.673913 C38.7551426,52.673913 38.4475621,52.9758261 38.4475621,53.3478261 L38.4475621,68.173913 L13.7312722,68.173913 L13.7312722,69.5217391 L21.9700355,69.5217391 L21.9700355,81.6521739 L1.37312722,81.6521739 L1.37312722,40.5151739 C1.39921663,40.5131522 1.42461949,40.5077609 1.45139547,40.5050652 C1.57291723,40.4942826 1.69169273,40.4747391 1.8111548,40.4585652 C1.95876597,40.4390217 2.10637715,40.4201522 2.25055551,40.3925217 C2.37070414,40.3696087 2.48810652,40.3399565 2.60619546,40.3123261 C2.74625443,40.2799783 2.88631341,40.2469565 3.02293957,40.2071957 C3.14034194,40.1728261 3.25499807,40.1330652 3.37034075,40.0939783 C3.50353409,40.0488261 3.63535431,40.003 3.76511483,39.9517826 C3.87839782,39.9066304 3.98893456,39.8574348 4.10015787,39.8075652 C4.22648557,39.7509565 4.35144015,39.693 4.47433504,39.6303261 C4.58212552,39.5750652 4.68785632,39.5164348 4.79290055,39.4571304 C4.91236262,39.3897391 5.02976499,39.3203261 5.14510768,39.2468696 C5.2467191,39.1821739 5.34627082,39.1154565 5.44513598,39.0467174 C5.55704585,38.9685435 5.66689602,38.8883478 5.77399995,38.8047826 C5.86874572,38.7313261 5.96211837,38.6565217 6.05343133,38.5790217 C6.15710244,38.491413 6.25802729,38.4004348 6.35689245,38.3081087 C6.44408603,38.2265652 6.53059304,38.1443478 6.61366724,38.0587609 C6.70909958,37.9617174 6.80041254,37.8613043 6.89035237,37.7595435 C6.96930719,37.670587 7.04757544,37.5816304 7.12241087,37.4899783 C7.20891789,37.3835 7.29061896,37.2736522 7.37163346,37.1631304 C7.44097639,37.0681087 7.51100588,36.9744348 7.57622942,36.8760435 C7.65312454,36.7608043 7.72452716,36.6415217 7.79592977,36.5215652 C7.85566081,36.4218261 7.9160784,36.3227609 7.97169006,36.2203261 C8.03897329,36.0956522 8.09870432,35.9676087 8.15912192,35.8395652 C8.20786794,35.7357826 8.25936021,35.6340217 8.30330028,35.5282174 C8.36028506,35.3934348 8.40765795,35.2546087 8.45709053,35.1164565 C8.49416496,35.0113261 8.53535878,34.9082174 8.56831383,34.8017391 C8.61431359,34.6541522 8.64932834,34.5018478 8.68708934,34.3508913 C8.71180563,34.2491304 8.74201443,34.1487174 8.7632979,34.0456087 C8.79831264,33.8751087 8.82096924,33.7005652 8.8443124,33.5260217 C8.85598398,33.4377391 8.8745212,33.3514783 8.88344653,33.2625217 C8.91090907,32.997 8.92532691,32.7281087 8.92532691,32.4565217 L8.92532691,30.4347826 L34.6337012,30.4347826 L44.275114,52.673913 L39.1341257,52.673913 Z M42.5360484,22.3478261 C42.1900203,26.0995 38.9837682,29.0505652 35.0806541,29.083587 C35.079281,29.083587 35.0779079,29.082913 35.0765348,29.082913 L8.2387633,29.0869565 C7.85978019,29.0869565 7.55219969,29.3888696 7.55219969,29.7608696 L7.55219969,32.4565217 C7.55219969,32.6816087 7.53984155,32.9046739 7.51787151,33.1243696 C7.51031931,33.1991739 7.49521491,33.2726304 7.48560302,33.3467609 C7.46637924,33.4903043 7.44715546,33.6331739 7.41900635,33.7740217 C7.4011557,33.8609565 7.37712597,33.9451957 7.3558425,34.0307826 C7.3256337,34.1554565 7.29611147,34.2801304 7.25835047,34.4014348 C7.23088792,34.4910652 7.19724631,34.5773261 7.16635094,34.6649348 C7.12584369,34.7788261 7.086023,34.8933913 7.03933668,35.003913 C7.00226224,35.0928696 6.96038186,35.1784565 6.91987461,35.2653913 C6.87044203,35.3705217 6.82100945,35.4763261 6.76608436,35.5787609 C6.7200846,35.6650217 6.66996546,35.748587 6.62053288,35.8321522 C6.56217497,35.9305435 6.5031305,36.027587 6.44065321,36.1226087 C6.38641468,36.2048261 6.32874334,36.2843478 6.271072,36.3638696 C6.20447533,36.4548478 6.13650553,36.5451522 6.06578948,36.6327609 C6.00399876,36.709587 5.93946178,36.7843913 5.87423823,36.8591957 C5.80008936,36.9434348 5.7238808,37.0256522 5.64561255,37.1065217 C5.57626963,37.1779565 5.50555358,37.2473696 5.4334644,37.3161087 C5.35176333,37.3929348 5.26800257,37.4670652 5.18286868,37.5398478 C5.10734668,37.6045435 5.03045156,37.6685652 4.95218331,37.7298913 C4.86293004,37.7993043 4.77161708,37.8653478 4.67893099,37.9307174 C4.59791649,37.988 4.51690198,38.0452826 4.43314122,38.0991957 C4.33702231,38.1611957 4.23747059,38.2184783 4.13791887,38.275087 C4.05209842,38.3242826 3.96696453,38.3741522 3.87908439,38.4199783 C3.77541328,38.4738913 3.6676228,38.5217391 3.56120544,38.5709348 C3.47263873,38.6113696 3.38475859,38.6531522 3.29413219,38.6902174 C3.1808492,38.7360435 3.06413338,38.7751304 2.94810413,38.8148913 C2.85885087,38.8452174 2.77097072,38.878913 2.68034433,38.9058696 C2.55333006,38.9436087 2.42356954,38.9732609 2.29380902,39.003587 C2.21004826,39.0238043 2.12697406,39.0473913 2.04184017,39.0642391 C1.8791246,39.095913 1.71366277,39.1181522 1.54751437,39.1383696 C1.49190272,39.1451087 1.4376642,39.1572391 1.38136598,39.1626304 C1.37930629,39.1626304 1.3772466,39.1626304 1.37518691,39.1626304 L1.37518691,22.3478261 L42.5360484,22.3478261 Z" id="Shape"></path>
                <path d="M26,57.6 L26,58.5 C26,60.9816 28.2426667,63 31,63 C33.7573333,63 36,60.9816 36,58.5 L36,57.6 C36,57.2688 35.7013333,57 35.3333333,57 L26.6666667,57 C26.2986667,57 26,57.2688 26,57.6 Z M27.3333333,58.2 L34.6666667,58.2 L34.6666667,58.5 C34.6666667,60.3198 33.022,61.8 31,61.8 C28.978,61.8 27.3333333,60.3198 27.3333333,58.5 L27.3333333,58.2 Z" id="Shape"></path>
                <path d="M33,37.3125 L33,37 L31.6666667,37 L31.6666667,37.3125 C31.6666667,39.208125 30.022,40.75 28,40.75 C25.978,40.75 24.3333333,39.208125 24.3333333,37.3125 L24.3333333,37 L23,37 L23,37.3125 C23,39.8975 25.2426667,42 28,42 C30.7573333,42 33,39.8975 33,37.3125 Z" id="Shape"></path>
                <path d="M83,63.8895066 C83,63.1180797 82.6759033,62.3918809 82.0874481,61.8465949 C81.4996796,61.3006718 80.7169037,61 79.885376,61 C79.1156464,61 78.3953552,61.2669099 77.8247528,61.7383021 C76.6492157,60.7700371 74.8804169,60.7700371 73.7055664,61.7389391 C72.5300293,60.7706741 70.7612305,60.7706741 69.5856934,61.7389391 C68.364151,60.7324531 66.4937286,60.7611188 65.3236847,61.8465949 L60.8192902,66.0254227 C60.2116089,65.1272296 59.1376953,64.526523 57.9127197,64.526523 L49.6729736,64.526523 C49.4910126,64.526523 49.315918,64.5934098 49.1875153,64.7131689 L40.2611237,72.9943827 C40.1320343,73.1135047 40.0599365,73.2759439 40.0599365,73.4447533 L40.0599365,81.7259671 L38,81.7259671 L38,83 L54.4794922,83 L54.4794922,81.7259671 L53.1062012,81.7259671 L53.1062012,78.8046097 L58.8836365,73.4447533 L73.7055664,73.4447533 C73.8875275,73.4447533 74.0626221,73.3778666 74.1910248,73.2581075 L82.0874481,65.9324183 C82.6759033,65.3871323 83,64.6609335 83,63.8895066 Z M76.8401031,62.6288511 L72.0480042,67.0745888 L69.8699646,67.0745888 L74.5343475,62.7473361 C75.1640015,62.163192 76.1575775,62.1281561 76.8401031,62.6288511 Z M72.7202301,62.6288511 L67.9281311,67.0745888 L65.7500916,67.0745888 L70.4144745,62.7473361 C71.0441284,62.163192 72.0377045,62.1281561 72.7202301,62.6288511 Z M66.2946014,62.7473361 C66.9043427,62.1816655 67.9281311,62.1472666 68.5996704,62.6294881 L63.8082581,67.0745888 L61.6302185,67.0745888 L66.2946014,62.7473361 Z M81.1165314,65.0316771 L73.4212952,72.1707204 L58.5993652,72.1707204 C58.4174042,72.1707204 58.2423096,72.2376071 58.1139069,72.3573662 L51.9340973,78.0905142 C51.8050079,78.2096363 51.7329102,78.3720755 51.7329102,78.5408849 L51.7329102,81.7259671 L41.4332275,81.7259671 L41.4332275,73.7084781 L49.9572449,65.8005559 L57.9127197,65.8005559 C59.0484314,65.8005559 59.9726562,66.6579801 59.9726562,67.7116053 C59.9726562,68.7652305 59.0484314,69.6226546 57.9127197,69.6226546 L51.0462646,69.6226546 L51.0462646,70.8966875 L57.9127197,70.8966875 C59.5709686,70.8966875 60.9579926,69.8003822 61.2765961,68.3486217 L72.3322754,68.3486217 C72.5142365,68.3486217 72.6893311,68.281735 72.8177338,68.1619759 L78.6542206,62.7473361 C79.312027,62.1370744 80.458725,62.1370744 81.1165314,62.7473361 C81.7956238,63.3773454 81.7956238,64.4016678 81.1165314,65.0316771 Z" id="Shape"></path>
                <rect id="Rectangle-path" x="36" y="82" width="1" height="1"></rect>
                <rect id="Rectangle-path" x="33" y="82" width="1" height="1"></rect>
                <rect id="Rectangle-path" x="31" y="82" width="1" height="1"></rect>
                <path d="M41.0846026,7.08730556 L41.0846026,17.0138889 C41.0846026,18.8901806 42.6009888,20.4166667 44.4648662,20.4166667 L53.9296045,20.4166667 L53.9296045,27.2222222 L52.577499,27.2222222 C50.7136216,27.2222222 49.1972354,28.7487083 49.1972354,30.625 L49.1972354,43.2738056 L44.6629497,47.8382917 C44.4695986,48.0329306 44.4114581,48.3255694 44.5162462,48.5800972 C44.6210344,48.8339444 44.8677937,49 45.140919,49 L70.1548701,49 C72.0187475,49 73.5351338,47.4735139 73.5351338,45.5972222 L73.5351338,41.5138889 L82.3238193,41.5138889 C82.5969446,41.5138889 82.8437039,41.3478333 82.948492,41.0939861 C83.0532802,40.8394583 82.9951397,40.5468194 82.8017886,40.3521806 L79.6196084,37.1488056 L79.6196084,19.0555556 C79.6196084,17.1792639 78.1032221,15.6527778 76.2393447,15.6527778 L68.1267119,15.6527778 L68.1267119,3.40277778 C68.1267119,1.52648611 66.6103256,0 64.7464482,0 L35.6761807,0 C35.4030554,0 35.1562961,0.166055556 35.051508,0.419902778 C34.9467198,0.674430556 35.0048603,0.967069444 35.1982114,1.16170833 L41.0846026,7.08730556 Z M72.1830283,45.5972222 C72.1830283,46.7228611 71.2730613,47.6388889 70.1548701,47.6388889 L46.7729103,47.6388889 L50.3512574,44.0367083 C50.4783553,43.9094444 50.5493408,43.7359028 50.5493408,43.5555556 L50.5493408,30.625 C50.5493408,29.4993611 51.4593078,28.5833333 52.577499,28.5833333 L54.6056572,28.5833333 L70.1548701,28.5833333 C71.2730613,28.5833333 72.1830283,29.4993611 72.1830283,30.625 L72.1830283,40.8333333 L72.1830283,45.5972222 Z M78.2675029,19.0555556 L78.2675029,37.4305556 C78.2675029,37.6109028 78.3384885,37.7844444 78.4655864,37.9117083 L80.691828,40.1527778 L73.5351338,40.1527778 L73.5351338,30.625 C73.5351338,28.7487083 72.0187475,27.2222222 70.1548701,27.2222222 L55.28171,27.2222222 L55.28171,19.7361111 L55.28171,19.0555556 C55.28171,17.9299167 56.1916769,17.0138889 57.3098682,17.0138889 L67.4506592,17.0138889 L76.2393447,17.0138889 C77.3575359,17.0138889 78.2675029,17.9299167 78.2675029,19.0555556 Z M64.7464482,1.36111111 C65.8646395,1.36111111 66.7746064,2.27713889 66.7746064,3.40277778 L66.7746064,15.6527778 L57.3098682,15.6527778 C55.4459908,15.6527778 53.9296045,17.1792639 53.9296045,19.0555556 L44.4648662,19.0555556 C43.346675,19.0555556 42.436708,18.1395278 42.436708,17.0138889 L42.436708,6.80555556 C42.436708,6.62520833 42.3657225,6.45166667 42.2386246,6.32440278 L37.308172,1.36111111 L64.7464482,1.36111111 Z" id="Shape"></path>
                <path d="M4,3.11391492 L3.08330328,2 C2.69599712,2.3186734 2.3310494,2.6705119 2,3.04614275 L3.08113956,4 C3.36170213,3.68276857 3.67111432,3.38428262 4,3.11391492 Z" id="Shape"></path>
                <path d="M6,1.59592668 L5.83284944,0 C5.54997926,0.114867617 5.27001244,0.275356415 5,0.478207739 L5.29655745,2 C5.52426379,1.82810591 5.76109498,1.69205703 6,1.59592668 Z" id="Shape"></path>
                <path d="M10,16.9543269 L9.884689,16 C9.60669856,16.0336538 9.32105263,16.0466346 9.03875598,16.0346154 L9,16.9951923 C9.08133971,16.9985577 9.16267943,17 9.24449761,17 C9.49712919,17 9.75167464,16.9846154 10,16.9543269 Z" id="Shape"></path>
                <path d="M1,13.7829259 C1.27097712,14.2112368 1.57900472,14.6205764 1.91463858,15 L3,14.0302809 C2.71594624,13.7092302 2.45513985,13.3619117 2.2255721,13 L1,13.7829259 Z" id="Shape"></path>
                <path d="M1,10.7842697 C0.9381036,10.5276404 0.89596137,10.2638202 0.874890255,10 L0,10.0723596 C0.0245829675,10.3847191 0.0741878841,10.6966292 0.147497805,11 L1,10.7842697 Z" id="Shape"></path>
                <path d="M6,15.5768645 C5.57599077,15.4185693 5.16198538,15.2245053 4.76875721,15 L4,16.3181126 C4.46479415,16.5829528 4.95421316,16.8120244 5.45517507,17 L6,15.5768645 Z" id="Shape"></path>
                <path d="M17,5.50097618 C16.8289017,4.98633346 16.6138728,4.48184303 16.3618497,4 L15,4.73252636 C15.2134875,5.13939867 15.394605,5.56579461 15.539499,6 L17,5.50097618 Z" id="Shape"></path>
                <path d="M15,13.1082283 L16.1762974,14 C16.4839897,13.5878428 16.7615017,13.1475167 17,12.6893996 L15.6963563,12 C15.4946632,12.3869533 15.2605815,12.7598221 15,13.1082283 Z" id="Shape"></path>
                <path d="M11,0.175814751 C10.7069645,0.0939108062 10.4047306,0.0347341338 10.1016207,0 L10,0.851629503 C10.2562418,0.880789022 10.5120456,0.930960549 10.7595269,1 L11,0.175814751 Z" id="Shape"></path>
                <path d="M17,9.02298311 L17,9 L16.0658571,9.02298311 C16.0658571,9.3011257 16.0439047,9.57973734 16,9.85084428 L16.9224661,10 C16.973844,9.67964353 17,9.35084428 17,9.02298311 Z" id="Shape"></path>
                <path d="M14,16.2221397 L13.1461769,15 C12.7841079,15.2488856 12.398051,15.4702823 12,15.6582467 L12.643928,17 C13.1154423,16.7786033 13.5712144,16.5163447 14,16.2221397 Z" id="Shape"></path>
                <path d="M15,1.95296671 C14.6342525,1.60564399 14.2380261,1.28437048 13.8214804,1 L13,2.19319826 C13.3519594,2.4341534 13.6879536,2.70549928 13.9978229,3 L15,1.95296671 Z" id="Shape"></path>
                <path d="M2,5.63470134 L0.5272,5 C0.3096,5.52255181 0.132,6.06542056 0,6.61560341 L1.5544,7 C1.6664,6.53433564 1.816,6.07517269 2,5.63470134 Z" id="Shape"></path>
                <path d="M27.600002,9 L32.399998,9 C32.6135978,9 32.8115976,8.87281399 32.9189975,8.66663877 C33.0263974,8.46046356 33.0269974,8.20609154 32.9207975,7.99857752 L30.5207996,3.31277717 C30.3077997,2.89574094 29.6922003,2.89574094 29.4792004,3.31277717 L27.0792025,7.99857752 C26.9730026,8.20609154 26.9736026,8.46046356 27.0810025,8.66663877 C27.1884024,8.87281399 27.3864022,9 27.600002,9 Z M30,4.9943101 L31.3661988,7.6611999 L28.6338012,7.6611999 L30,4.9943101 Z" id="Shape"></path>
                <path d="M75.4792004,76.3127772 L73.0792025,80.9985775 C72.9730026,81.2060915 72.9736026,81.4604636 73.0810025,81.6666388 C73.1884024,81.872814 73.3864022,82 73.600002,82 L78.399998,82 C78.6135978,82 78.8115976,81.872814 78.9189975,81.6666388 C79.0263974,81.4604636 79.0269974,81.2060915 78.9207975,80.9985775 L76.5207996,76.3127772 C76.3077997,75.8957409 75.6922003,75.8957409 75.4792004,76.3127772 Z M74.6338012,80.6611999 L76,77.9943101 L77.3661988,80.6611999 L74.6338012,80.6611999 Z" id="Shape"></path>
                <path d="M22.5758212,17.8242044 C22.6928154,17.9412015 22.8464077,18 23,18 C23.1535923,18 23.3071846,17.9412015 23.4241788,17.8242044 L25.8240588,15.4242644 C26.0586471,15.1896703 26.0586471,14.8104797 25.8240588,14.5758856 L23.4241788,12.1759456 C23.1895905,11.9413515 22.8104095,11.9413515 22.5758212,12.1759456 L20.1759412,14.5758856 C19.9413529,14.8104797 19.9413529,15.1896703 20.1759412,15.4242644 L22.5758212,17.8242044 Z M23,13.4485138 L24.5515224,15.000075 L23,16.5516362 L21.4484776,15.000075 L23,13.4485138 Z" id="Shape"></path>
                <path d="M34.5,17 C35.87875,17 37,15.87875 37,14.5 C37,13.12125 35.87875,12 34.5,12 C33.12125,12 32,13.12125 32,14.5 C32,15.87875 33.12125,17 34.5,17 Z M34.5,13.25 C35.189375,13.25 35.75,13.810625 35.75,14.5 C35.75,15.189375 35.189375,15.75 34.5,15.75 C33.810625,15.75 33.25,15.189375 33.25,14.5 C33.25,13.810625 33.810625,13.25 34.5,13.25 Z" id="Shape"></path>
                <polygon id="Shape" points="72.9536013 5 74.5 3.45360129 76.0463987 5 77 4.04639871 75.4536013 2.5 77 0.953601295 76.0463987 0 74.5 1.54639871 72.9536013 0 72 0.953601295 73.5463987 2.5 72 4.04639871"></polygon>
                <path d="M80.5,7 C79.12125,7 78,8.12125 78,9.5 C78,10.87875 79.12125,12 80.5,12 C81.87875,12 83,10.87875 83,9.5 C83,8.12125 81.87875,7 80.5,7 Z M80.5,10.75 C79.810625,10.75 79.25,10.189375 79.25,9.5 C79.25,8.810625 79.810625,8.25 80.5,8.25 C81.189375,8.25 81.75,8.810625 81.75,9.5 C81.75,10.189375 81.189375,10.75 80.5,10.75 Z" id="Shape"></path>
                <rect id="Rectangle-path" x="49" y="54" width="1" height="1"></rect>
                <rect id="Rectangle-path" x="51" y="54" width="1" height="1"></rect>
                <rect id="Rectangle-path" x="54" y="54" width="1" height="1"></rect>
                <rect id="Rectangle-path" x="56" y="54" width="17" height="1"></rect>
                <rect id="Rectangle-path" x="63" y="51" width="1" height="1"></rect>
                <rect id="Rectangle-path" x="66" y="51" width="1" height="1"></rect>
                <rect id="Rectangle-path" x="68" y="51" width="15" height="1"></rect>
                <rect id="Rectangle-path" x="54" y="34" width="6" height="1"></rect>
                <rect id="Rectangle-path" x="62" y="34" width="7" height="1"></rect>
                <rect id="Rectangle-path" x="54" y="37" width="3" height="1"></rect>
                <rect id="Rectangle-path" x="59" y="37" width="6" height="1"></rect>
                <rect id="Rectangle-path" x="66" y="37" width="4" height="1"></rect>
                <rect id="Rectangle-path" x="54" y="40" width="6" height="1"></rect>
                <rect id="Rectangle-path" x="62" y="40" width="7" height="1"></rect>
                <rect id="Rectangle-path" x="65" y="31" width="5" height="1"></rect>
                <rect id="Rectangle-path" x="54" y="31" width="10" height="1"></rect>
                <rect id="Rectangle-path" x="71" y="19" width="3" height="1"></rect>
                <rect id="Rectangle-path" x="60" y="19" width="12" height="1"></rect>
                <rect id="Rectangle-path" x="60" y="22" width="5" height="1"></rect>
                <rect id="Rectangle-path" x="66" y="22" width="10" height="1"></rect>
                <rect id="Rectangle-path" x="60" y="7" width="3" height="1"></rect>
                <rect id="Rectangle-path" x="47" y="7" width="12" height="1"></rect>
                <rect id="Rectangle-path" x="47" y="11" width="5" height="1"></rect>
                <rect id="Rectangle-path" x="54" y="11" width="10" height="1"></rect>
                <rect id="Rectangle-path" x="47" y="4" width="3" height="1"></rect>
                <rect id="Rectangle-path" x="52" y="4" width="12" height="1"></rect>
            </g>
        </g>
    </g>
</svg>