
<svg width="150px" height="181px" viewBox="0 0 150 181" version="1.1" xmlns="http://www.w3.org/2000/svg" xmlns:xlink="http://www.w3.org/1999/xlink">
    <defs></defs>
    <g id="Welcome" stroke="none" stroke-width="1" fill="none" fill-rule="evenodd">
        <g id="Desktop" transform="translate(-755.000000, -4869.000000)" fill-rule="nonzero" fill="#2B4C49">
            <g id="Group-29" transform="translate(755.000000, 4869.000000)">
                <g id="Group-28">
                    <g id="Group-27">
                        <g id="Group-26">
                            <g id="Group-25">
                                <path d="M150,64.1041667 C150,84.84375 143.25,100.304167 137.625,113.879167 C132.375,125.945833 127.5,137.258333 127.5,150.833333 L127.5,181 L120,181 L120,150.833333 C120,135.75 125.25,123.683333 130.5,110.8625 C136.5,97.2875 142.5,83.3354167 142.5,64.1041667 C142.5,32.80625 117.375,7.54166667 86.25,7.54166667 C55.125,7.54166667 30,32.80625 30,64.1041667 C30,64.8583333 30,65.2354167 29.625,65.9895833 L7.875,105.583333 L26.25,105.583333 C28.5,105.583333 30,107.091667 30,109.354167 L30,131.979167 C30,133.864583 30.75,135.75 32.25,137.258333 C33.75,138.766667 35.625,139.520833 37.5,139.520833 L52.5,139.520833 C54.75,139.520833 56.25,141.029167 56.25,143.291667 L56.25,181 L48.75,181 L48.75,147.0625 L37.5,147.0625 C33.375,147.0625 29.625,145.554167 27,142.5375 C24,139.897917 22.5,136.127083 22.5,131.979167 L22.5,113.125 L3.75,113.125 C1.5,113.125 0,111.616667 0,109.354167 L0,105.583333 C0,104.829167 0,104.452083 0.375,103.697917 L22.5,62.9729167 C22.875,28.28125 51.375,0 86.25,0 C121.5,0 150,28.6583333 150,64.1041667 Z M136,63.9210526 C136,36.8263158 114.138462,15 87,15 C59.8615385,15 38,36.8263158 38,63.9210526 L45.5384615,63.9210526 C45.5384615,40.9657895 64.0076923,22.5263158 87,22.5263158 C109.992308,22.5263158 128.461538,40.9657895 128.461538,63.9210526 C128.461538,80.1026316 119.038462,94.7789474 104.338462,101.928947 C91.1461538,107.95 83.2307692,121.121053 83.2307692,135.421053 L83.2307692,158 L90.7692308,158 L90.7692308,135.421053 C90.7692308,123.755263 97.1769231,113.594737 107.353846,108.702632 C124.692308,100.423684 136,82.7368421 136,63.9210526 Z M83,174 L90,174 L90,166 L83,166 L83,174 Z M87,98 C68.1111111,98 53,82.8888889 53,64 C53,45.1111111 68.1111111,30 87,30 C105.888889,30 121,45.1111111 121,64 C121,82.8888889 105.888889,98 87,98 Z M86.5,91 C101.264286,91 113,79.2642857 113,64.5 C113,49.7357143 101.264286,38 86.5,38 C71.7357143,38 60,49.7357143 60,64.5 C60,79.2642857 71.7357143,91 86.5,91 Z M90,45 L83,45 L83,68 L90,68 L90,45 Z M90,75 L83,75 L83,83 L90,83 L90,75 Z" id="Shape"></path>
                            </g>
                        </g>
                    </g>
                </g>
            </g>
        </g>
    </g>
</svg>