<svg xmlns="http://www.w3.org/2000/svg" viewBox="0 0 221.31 221.31"><defs><style>.cls-1{fill:#fcf8e7;}.cls-2,.cls-3{fill:none;stroke:#1f4746;stroke-miterlimit:10;}.cls-2{stroke-width:4px;}.cls-4{fill:#1f4746;}</style></defs><title>Ресурс 3</title><g id="Слой_2" data-name="Слой 2"><g id="Слой_1-2" data-name="Слой 1"><circle class="cls-1" cx="110.65" cy="110.65" r="110.65"/><circle class="cls-2" cx="110.65" cy="110.65" r="97.48"/><polyline class="cls-3" points="61.76 41.09 61.77 41.09 62.35 41.15"/><polyline class="cls-3" points="95.67 27.33 96.09 26.85 96.1 26.84"/><polyline class="cls-3" points="26.89 96.04 27.37 95.64 27.37 95.64"/><polyline class="cls-3" points="41.14 62.34 41.14 62.33 41.1 61.68"/><polyline class="cls-3" points="41.1 159.55 41.15 158.93 41.15 158.92"/><polyline class="cls-3" points="27.35 125.65 27.34 125.64 26.84 125.2"/><polyline class="cls-3" points="96.05 194.41 95.65 193.94 95.64 193.93"/><polyline class="cls-3" points="62.32 180.17 62.31 180.17 61.69 180.21 61.67 180.21"/><polyline class="cls-3" points="159.55 180.21 159.54 180.21 158.97 180.16 158.96 180.16"/><polyline class="cls-3" points="125.62 193.99 125.62 194 125.22 194.46 125.2 194.47"/><polyline class="cls-3" points="194.41 125.26 193.96 125.65 193.94 125.66"/><polyline class="cls-3" points="180.17 159 180.21 159.61 180.21 159.63"/><path class="cls-3" d="M41.14,62.32a2.15,2.15,0,0,0,.45.94l7.72,9.33C47.84,75,41.52,89.3,40.38,94.19L28.3,95.33a2.06,2.06,0,0,0-1,.33L42,89.08a57.79,57.79,0,0,1,4.85-11.6Z"/><path class="cls-3" d="M27.33,125.63a2.15,2.15,0,0,0,1,.35l12.06,1.14c.63,2.72,6.3,17.32,8.95,21.58L41.59,158a2.06,2.06,0,0,0-.44.91l5.74-15a57.79,57.79,0,0,1-4.77-11.63Z"/><path class="cls-3" d="M62.32,180.17a2.15,2.15,0,0,0,.94-.45L72.6,172c2.37,1.47,16.7,7.79,21.58,8.93L95.33,193a2.06,2.06,0,0,0,.33,1l-6.58-14.7a57.79,57.79,0,0,1-11.6-4.85Z"/><path class="cls-3" d="M125.63,194a2.15,2.15,0,0,0,.35-1l1.14-12.06c2.72-.63,17.32-6.3,21.58-8.95l9.34,7.73a2.06,2.06,0,0,0,.91.44l-15-5.74a57.79,57.79,0,0,1-11.63,4.77Z"/><path class="cls-3" d="M180.17,159a2.15,2.15,0,0,0-.45-.94L172,148.71c1.47-2.37,7.79-16.7,8.93-21.58L193,126a2.06,2.06,0,0,0,1-.33l-14.7,6.58a57.79,57.79,0,0,1-4.85,11.6Z"/><path class="cls-3" d="M95.67,27.33a2.15,2.15,0,0,0-.35,1L94.18,40.37c-2.72.63-17.32,6.3-21.58,8.95l-9.34-7.73a2.06,2.06,0,0,0-.91-.44l15,5.74A57.79,57.79,0,0,1,89,42.12Z"/><polyline class="cls-3" points="125.26 26.89 125.66 27.37 125.66 27.37"/><path class="cls-3" d="M93.66,168.37"/><path class="cls-3" d="M195,97.62v26.06a2.19,2.19,0,0,1-.58,1.58,2.29,2.29,0,0,1-.46.39h0a2.11,2.11,0,0,1-.94.33l-12.06,1.14A71.71,71.71,0,0,1,172,148.7l7.73,9.34a2.25,2.25,0,0,1,.49,1.57v0a2.2,2.2,0,0,1-.7,1.45L161.08,179.5a2.21,2.21,0,0,1-1.53.71h0a2,2,0,0,1-.56,0h0a2.06,2.06,0,0,1-.91-.44L148.7,172a71.79,71.79,0,0,1-21.58,8.95L126,193a2.14,2.14,0,0,1-.36,1h0a2.26,2.26,0,0,1-.4.46h0a2.19,2.19,0,0,1-1.52.53H97.62a2.2,2.2,0,0,1-1.58-.58,2.13,2.13,0,0,1-.4-.47h0a2.1,2.1,0,0,1-.32-.93l-1.14-12.06A71.79,71.79,0,0,1,72.61,172l-9.34,7.73a2,2,0,0,1-.94.45h0a2.26,2.26,0,0,1-.61,0h0a2.23,2.23,0,0,1-1.45-.7L41.8,161.08a2.23,2.23,0,0,1-.65-2.15h0a2.12,2.12,0,0,1,.43-.88l7.73-9.34a71.74,71.74,0,0,1-8.94-21.58L28.31,126a2.13,2.13,0,0,1-1-.33h0a2.22,2.22,0,0,1-.5-.44,2.18,2.18,0,0,1-.53-1.52V97.62a2.23,2.23,0,0,1,1.06-2h0a2.11,2.11,0,0,1,.93-.32l12.06-1.14a71.74,71.74,0,0,1,8.94-21.58l-7.73-9.34a2.14,2.14,0,0,1-.45-.93h0a2.14,2.14,0,0,1,0-.65,2.18,2.18,0,0,1,.7-1.45L60.23,41.8a2.2,2.2,0,0,1,1.53-.71h0a2.24,2.24,0,0,1,1.49.49l9.34,7.73c4.26-2.65,18.86-8.31,21.58-8.95l1.14-12.06a2.24,2.24,0,0,1,.77-1.46h0a2.19,2.19,0,0,1,1.52-.53h26.06a2.2,2.2,0,0,1,1.58.58,2.08,2.08,0,0,1,.4.48h0a2.11,2.11,0,0,1,.32.94l1.14,12.06a71.79,71.79,0,0,1,21.58,8.95L158,41.59a2.1,2.1,0,0,1,.93-.44h0a2.16,2.16,0,0,1,.66,0,2.19,2.19,0,0,1,1.45.7l18.43,18.43a2.18,2.18,0,0,1,.7,1.52,2,2,0,0,1-.05.62h0a2.12,2.12,0,0,1-.43.88L172,72.61a71.69,71.69,0,0,1,8.94,21.58L193,95.33a2.14,2.14,0,0,1,1,.35,2.09,2.09,0,0,1,.48.43A2.18,2.18,0,0,1,195,97.62Z"/><polyline class="cls-3" points="180.21 61.75 180.16 62.37 180.15 62.38"/><line class="cls-3" x1="194.46" y1="96.1" x2="193.98" y2="95.68"/><path class="cls-3" d="M194,95.67a2.15,2.15,0,0,0-1-.35l-12.06-1.14c-.63-2.72-6.3-17.32-8.95-21.58l7.73-9.34a2.06,2.06,0,0,0,.44-.91l-5.74,15A57.79,57.79,0,0,1,179.19,89Z"/><path class="cls-3" d="M159,41.14a2.15,2.15,0,0,0-.94.45l-9.33,7.72c-2.37-1.47-16.7-7.79-21.58-8.93L126,28.3a2.06,2.06,0,0,0-.33-1L132.22,42a57.79,57.79,0,0,1,11.6,4.85Z"/><polyline class="cls-3" points="158.97 41.14 158.98 41.14 159.63 41.1"/><path class="cls-3" d="M174.79,98.26A65.3,65.3,0,1,1,123,46.52,64.61,64.61,0,0,1,174.79,98.26Z"/><circle class="cls-3" cx="111.33" cy="110.65" r="57.68"/><circle class="cls-4" cx="111.25" cy="109.05" r="40.8"/><circle class="cls-1" cx="124.22" cy="99.81" r="13.73"/></g></g></svg>