<svg xmlns="http://www.w3.org/2000/svg" viewBox="0 0 169.69 169.68"><defs><style>.cls-1,.cls-4{fill:#fcf8e7;}.cls-1,.cls-2{stroke:#1f4746;stroke-miterlimit:10;}.cls-2{fill:none;}.cls-3{fill:#1f4746;}</style></defs><title>Ресурс 6</title><g id="Слой_2" data-name="Слой 2"><g id="Слой_1-2" data-name="Слой 1"><path class="cls-1" d="M15.33,36.51a2.15,2.15,0,0,0,.45.94l7.72,9.33c-1.47,2.37-7.79,16.7-8.93,21.58L2.5,69.51a2.06,2.06,0,0,0-1,.33l14.7-6.58a57.79,57.79,0,0,1,4.85-11.6Z"/><path class="cls-1" d="M1.52,99.82a2.15,2.15,0,0,0,1,.35l12.06,1.14c.63,2.72,6.3,17.32,8.95,21.58l-7.73,9.34a2.06,2.06,0,0,0-.44.91l5.74-15a57.79,57.79,0,0,1-4.77-11.63Z"/><path class="cls-1" d="M36.51,154.35a2.15,2.15,0,0,0,.94-.45l9.33-7.72c2.37,1.47,16.7,7.79,21.58,8.93l1.14,12.08a2.06,2.06,0,0,0,.33,1l-6.58-14.7a57.79,57.79,0,0,1-11.6-4.85Z"/><path class="cls-1" d="M99.82,168.17a2.15,2.15,0,0,0,.35-1l1.14-12.06c2.72-.63,17.32-6.3,21.58-8.95l9.34,7.73a2.06,2.06,0,0,0,.91.44l-15-5.74a57.79,57.79,0,0,1-11.63,4.77Z"/><path class="cls-1" d="M154.36,133.17a2.15,2.15,0,0,0-.45-.94l-7.72-9.33c1.47-2.37,7.79-16.7,8.93-21.58l12.08-1.14a2.06,2.06,0,0,0,1-.33l-14.7,6.58a57.79,57.79,0,0,1-4.85,11.6Z"/><path class="cls-1" d="M69.86,1.52a2.15,2.15,0,0,0-.35,1L68.37,14.56c-2.72.63-17.32,6.3-21.58,8.95l-9.34-7.73a2.06,2.06,0,0,0-.91-.44l15,5.74a57.79,57.79,0,0,1,11.63-4.77Z"/><path class="cls-1" d="M169.18,71.81V97.87a2.19,2.19,0,0,1-.58,1.58,2.29,2.29,0,0,1-.46.39h0a2.11,2.11,0,0,1-.94.33l-12.06,1.14a71.71,71.71,0,0,1-8.94,21.58l7.73,9.34a2.25,2.25,0,0,1,.49,1.57v0a2.2,2.2,0,0,1-.7,1.45l-18.43,18.43a2.21,2.21,0,0,1-1.53.71h0a2,2,0,0,1-.56,0h0a2.06,2.06,0,0,1-.91-.44l-9.34-7.73a71.79,71.79,0,0,1-21.58,8.95l-1.14,12.06a2.14,2.14,0,0,1-.36,1h0a2.26,2.26,0,0,1-.4.46h0a2.19,2.19,0,0,1-1.52.53H71.81a2.2,2.2,0,0,1-1.58-.58,2.13,2.13,0,0,1-.4-.47h0a2.1,2.1,0,0,1-.32-.93l-1.14-12.06a71.79,71.79,0,0,1-21.58-8.95l-9.34,7.73a2,2,0,0,1-.94.45h0a2.26,2.26,0,0,1-.61,0h0a2.23,2.23,0,0,1-1.45-.7L16,135.27a2.23,2.23,0,0,1-.65-2.15h0a2.12,2.12,0,0,1,.43-.88l7.73-9.34a71.74,71.74,0,0,1-8.94-21.58L2.5,100.17a2.13,2.13,0,0,1-1-.33h0a2.22,2.22,0,0,1-.5-.44A2.18,2.18,0,0,1,.5,97.87V71.81a2.23,2.23,0,0,1,1.06-2h0a2.11,2.11,0,0,1,.93-.32l12.06-1.14A71.74,71.74,0,0,1,23.51,46.8l-7.73-9.34a2.14,2.14,0,0,1-.45-.93h0a2.14,2.14,0,0,1,0-.65,2.18,2.18,0,0,1,.7-1.45L34.42,16a2.2,2.2,0,0,1,1.53-.71h0a2.24,2.24,0,0,1,1.49.49l9.34,7.73c4.26-2.65,18.86-8.31,21.58-8.95L69.51,2.5A2.24,2.24,0,0,1,70.28,1h0A2.19,2.19,0,0,1,71.81.5H97.87a2.2,2.2,0,0,1,1.58.58,2.08,2.08,0,0,1,.4.48h0a2.11,2.11,0,0,1,.32.94l1.14,12.06a71.79,71.79,0,0,1,21.58,8.95l9.34-7.73a2.1,2.1,0,0,1,.93-.44h0a2.16,2.16,0,0,1,.66,0,2.19,2.19,0,0,1,1.45.7L153.7,34.42a2.18,2.18,0,0,1,.7,1.52,2,2,0,0,1-.05.62h0a2.12,2.12,0,0,1-.43.88l-7.73,9.34a71.69,71.69,0,0,1,8.94,21.58l12.06,1.14a2.14,2.14,0,0,1,1,.35,2.09,2.09,0,0,1,.48.43A2.18,2.18,0,0,1,169.18,71.81Z"/><path class="cls-1" d="M168.17,69.86a2.15,2.15,0,0,0-1-.35l-12.06-1.14c-.63-2.72-6.3-17.32-8.95-21.58l7.73-9.34a2.06,2.06,0,0,0,.44-.91l-5.74,15a57.79,57.79,0,0,1,4.77,11.63Z"/><path class="cls-1" d="M133.17,15.33a2.15,2.15,0,0,0-.94.45L122.9,23.5c-2.37-1.47-16.7-7.79-21.58-8.93L100.17,2.49a2.06,2.06,0,0,0-.33-1l6.58,14.7A57.79,57.79,0,0,1,118,21.09Z"/><path class="cls-2" d="M149,72.45A65.3,65.3,0,1,1,97.23,20.7,64.61,64.61,0,0,1,149,72.45Z"/><circle class="cls-2" cx="85.52" cy="84.84" r="57.68"/><circle class="cls-3" cx="85.44" cy="83.24" r="40.8"/><circle class="cls-4" cx="98.41" cy="74" r="13.73"/></g></g></svg>