
<svg width="182px" height="185px" viewBox="0 0 182 185" version="1.1" xmlns="http://www.w3.org/2000/svg" xmlns:xlink="http://www.w3.org/1999/xlink">
    <defs></defs>
    <g id="Welcome" stroke="none" stroke-width="1" fill="none" fill-rule="evenodd">
        <g id="Desktop" transform="translate(-760.000000, -8900.000000)" fill-rule="nonzero">
            <g id="noun_96656_cc" transform="translate(760.000000, 8900.000000)">
                <g id="Group">
                    <path d="M125.926704,109.438518 L120.244658,103.742555 C127.575688,93.0875213 131.896825,80.1919404 131.896825,66.2706898 C131.896825,29.784662 102.393894,0.219426315 66.0069435,0.219426315 C29.6100599,0.219426315 0.107126297,29.784662 0.107126297,66.2706898 C0.107126297,102.756718 29.6100599,132.321951 65.9970105,132.321951 C78.6723444,132.321951 90.4635818,128.67733 100.516435,122.453595 L106.724964,128.67733 L125.926704,109.438518 Z M65.9970105,117.723555 C37.6563155,117.723555 14.6698545,94.6907549 14.6698545,66.2706898 C14.6698545,37.8506221 37.6563155,14.8178219 65.9970105,14.8178219 C94.3476385,14.8178219 117.324164,37.8506221 117.324164,66.2706898 C117.324164,94.6907549 94.3476385,117.723555 65.9970105,117.723555 Z" id="Shape" fill="#2B4C49"></path>
                    <path d="M179.568399,163.211594 L131.549147,115.064775 L112.347407,134.313546 L160.366659,182.460363 C163.465957,185.567252 168.502315,185.567252 171.601613,182.460363 L179.568399,174.474067 C182.667697,171.367178 182.667697,166.318483 179.568399,163.211594 Z" id="Shape" fill="#2B4C49"></path>
                    <path d="M56.1527654,55.4065362 L33.4841811,55.4065362 C28.7954996,55.4065362 25.0306492,59.2005248 25.0207162,63.8907327 L25.0207162,68.6606043 C25.0306492,73.3408522 28.7954996,77.1348408 33.4841811,77.1447982 L56.1527654,77.1447982 L77.8279825,77.1348408 L98.5197703,77.1447982 C103.198519,77.1447982 106.983238,73.3408522 106.983238,68.6606043 L106.983238,63.8907327 C106.983238,59.2005248 103.198519,55.4065362 98.5197703,55.4065362 L56.1527654,55.4065362 Z" id="Shape" fill="#766E6E"></path>
                </g>
            </g>
        </g>
    </g>
</svg>