
<svg width="111px" height="103px" viewBox="0 0 111 103" version="1.1" xmlns="http://www.w3.org/2000/svg" xmlns:xlink="http://www.w3.org/1999/xlink">
    <defs></defs>
    <g id="Welcome" stroke="none" stroke-width="1" fill="none" fill-rule="evenodd">
        <g id="Desktop" transform="translate(-123.000000, -7679.000000)">
            <g id="noun_72651_cc" transform="translate(123.000000, 7679.000000)">
                <path d="M1,98.9588245 C1,99.5337345 1.38249077,100 1.85135043,100 L109.14865,100 C109.618743,100 110,99.5292076 110,98.9588245 L110,20 L1,20 L1,98.9588245 Z" id="Shape"></path>
                <g id="Group-8" transform="translate(99.000000, 3.000000)" fill-rule="nonzero" fill="#2B4C49">
                    <ellipse id="Oval" cx="1.34698438" cy="1.3125" rx="1.01784375" ry="1.269"></ellipse>
                    <ellipse id="Oval" cx="4.40051562" cy="1.3125" rx="1.01784375" ry="1.269"></ellipse>
                    <ellipse id="Oval" cx="7.45765625" cy="1.3125" rx="1.01784375" ry="1.269"></ellipse>
                </g>
                <g id="Group-7" transform="translate(4.000000, 33.000000)" fill-rule="nonzero" fill="#2B4C49">
                    <rect id="Rectangle-path" x="0.230803571" y="0.252" width="37.9892857" height="1.33246753"></rect>
                    <rect id="Rectangle-path" x="0.230803571" y="2.62519481" width="15.0452009" height="1.33387013"></rect>
                    <rect id="Rectangle-path" x="0.230803571" y="4.99979221" width="50.8934152" height="1.33246753"></rect>
                    <rect id="Rectangle-path" x="0.230803571" y="7.37298701" width="31.9135045" height="1.33387013"></rect>
                </g>
                <g id="Group-6" transform="translate(4.000000, 46.000000)" fill-rule="nonzero" fill="#2B4C49">
                    <rect id="Rectangle-path" x="0.230803571" y="0.462857143" width="37.9892857" height="1.33387013"></rect>
                    <rect id="Rectangle-path" x="0.230803571" y="2.83745455" width="15.0452009" height="1.33106494"></rect>
                    <rect id="Rectangle-path" x="0.230803571" y="5.21064935" width="50.8934152" height="1.33387013"></rect>
                    <rect id="Rectangle-path" x="0.230803571" y="7.58524675" width="31.9135045" height="1.33106494"></rect>
                </g>
                <g id="Group-5" transform="translate(4.000000, 59.000000)" fill-rule="nonzero" fill="#2B4C49">
                    <rect id="Rectangle-path" x="0.230803571" y="0.438545455" width="37.9892857" height="1.33387013"></rect>
                    <rect id="Rectangle-path" x="0.230803571" y="2.81454545" width="15.0452009" height="1.33387013"></rect>
                    <rect id="Rectangle-path" x="0.230803571" y="5.18914286" width="50.8934152" height="1.33106494"></rect>
                    <rect id="Rectangle-path" x="0.230803571" y="7.56233766" width="31.9135045" height="1.33387013"></rect>
                </g>
                <g id="Group-4" transform="translate(4.000000, 72.000000)" fill-rule="nonzero" fill="#2B4C49">
                    <rect id="Rectangle-path" x="0.230803571" y="0.647678571" width="37.9892857" height="1.32182143"></rect>
                    <rect id="Rectangle-path" x="0.230803571" y="3.003" width="15.0452009" height="1.32460714"></rect>
                    <rect id="Rectangle-path" x="0.230803571" y="5.3625" width="50.8934152" height="1.32460714"></rect>
                    <rect id="Rectangle-path" x="0.230803571" y="7.72060714" width="31.9135045" height="1.32182143"></rect>
                </g>
                <g id="Group-3" transform="translate(4.000000, 86.000000)" fill-rule="nonzero" fill="#2B4C49">
                    <rect id="Rectangle-path" x="0.230803571" y="0.0434805195" width="37.9892857" height="1.33387013"></rect>
                    <rect id="Rectangle-path" x="0.230803571" y="2.41948052" width="15.0452009" height="1.33106494"></rect>
                    <rect id="Rectangle-path" x="0.230803571" y="4.79127273" width="50.8934152" height="1.33387013"></rect>
                    <rect id="Rectangle-path" x="0.230803571" y="7.16587013" width="31.9135045" height="1.33387013"></rect>
                </g>
                <path d="M72.3769527,24.8272276 L72.3769527,30.1727724 L4.62304733,30.1727724 L4.62304733,24.8272276 L72.3769527,24.8272276 L72.3769527,24.8272276 Z M73,24 L4,24 L4,31 L73,31 L73,24 L73,24 Z" id="Shape" fill="#2B4C49" fill-rule="nonzero"></path>
                <rect id="Rectangle-path" fill="#2B4C49" fill-rule="nonzero" x="75" y="24" width="19" height="7"></rect>
                <polygon id="Shape" points="13.5156817 18 13.5156817 16.0014337 14 16.0014337 12.4995048 14 11 16.0014337 11.4843183 16.0014337 11.4843183 18 12.2350611 18 12.2350611 16.8630824 12.7471113 16.8630824 12.7471113 18"></polygon>
                <path d="M17.412735,14 C17.1848067,14 17,14.2021563 17,14.4514825 L17,17.5471698 C17,17.796496 17.1848067,18 17.412735,18 L101.587265,18 C101.815193,18 102,17.796496 102,17.5471698 L102,14.4514825 C102,14.203504 101.815193,14 101.587265,14 L17.412735,14 Z" id="Shape"></path>
                <polygon id="Shape" points="10 15.5 8.32878847 14 8.32878847 14.6677342 7 14.6677342 7 16.3310649 8.32761979 16.3310649 8.32761979 17"></polygon>
                <path d="M110,2.00326679 C110,1.45009074 109.617509,1 109.14865,1 L1.85135043,1 C1.38249077,1 1,1.45009074 1,2.00326679 L1,9 L110,9 L110,2.00326679 Z" id="Shape"></path>
                <polygon id="Shape" points="3 15.5 4.67172897 17 4.67172897 16.3322658 6 16.3322658 6 14.6689351 4.67172897 14.6689351 4.67172897 14"></polygon>
                <path d="M109.1278,0 L1.87343333,0 C0.841133333,0 0,1.03802107 0,2.31347805 L0,100.688044 C0,101.963501 0.841133333,103 1.87343333,103 L109.126567,103 C110.1601,103 111,101.963501 111,100.688044 L111,2.31347805 C110.998767,1.03802107 110.161333,0 109.1278,0 Z M1.0212,2.31347805 C1.0212,1.73358651 1.40353333,1.26175875 1.8722,1.26175875 L109.125333,1.26175875 C109.595233,1.26175875 109.976333,1.73358651 109.976333,2.31347805 L109.976333,9.64811668 L109.977567,9.64811668 L109.976333,9.64811668 L1.0212,9.64811668 L1.0212,2.31347805 Z M105.9458,14.3648723 C105.839733,14.3176895 105.728733,14.2963811 105.6091,14.2963811 C105.4722,14.2963811 105.341467,14.3283437 105.2206,14.3937907 C105.0985,14.4592378 104.989967,14.5490373 104.8987,14.6616671 C104.807433,14.774297 104.7359,14.9051911 104.681633,15.0558716 C104.6286,15.2080741 104.6027,15.3694088 104.6027,15.5383536 C104.6027,15.7103424 104.6286,15.868633 104.681633,16.0223575 C104.7359,16.173038 104.807433,16.3039321 104.8987,16.416562 C104.989967,16.5291918 105.0985,16.6174693 105.2206,16.6844384 C105.3427,16.7514075 105.4722,16.781848 105.6091,16.781848 C105.780533,16.781848 105.939633,16.7346652 106.088867,16.6387777 C106.235633,16.5428901 106.3565,16.4074298 106.446533,16.233919 C106.462567,16.2065225 106.483533,16.1897803 106.5082,16.1836922 C106.5341,16.1791261 106.5563,16.1836922 106.5748,16.2019565 L107.005233,16.5718085 C107.023733,16.5824627 107.032367,16.6052931 107.0373,16.6387777 C107.043467,16.6631301 107.041,16.6874825 107.0262,16.7148789 C106.946033,16.8625153 106.854767,16.9934095 106.749933,17.1075614 C106.6451,17.2232353 106.531633,17.3206449 106.412,17.3997902 C106.291133,17.4789355 106.161633,17.5398165 106.025967,17.5824332 C105.8903,17.6250499 105.7534,17.6463582 105.610333,17.6463582 C105.377233,17.6463582 105.155233,17.5900433 104.949267,17.4789355 C104.740833,17.3678276 104.560767,17.2186692 104.405367,17.026894 C104.252433,16.8366409 104.130333,16.6144253 104.0403,16.358725 C103.949033,16.1045469 103.905867,15.8305824 103.905867,15.5383536 C103.905867,15.2491688 103.949033,14.9752043 104.0403,14.7195041 C104.130333,14.4653259 104.252433,14.2415882 104.405367,14.0498131 C104.560767,13.8595599 104.740833,13.7104015 104.949267,13.6008157 C105.155233,13.4897079 105.377233,13.4333929 105.610333,13.4333929 C105.843433,13.4333929 106.065433,13.4897079 106.2714,13.6008157 C106.477367,13.7119235 106.6562,13.861082 106.8116,14.0528571 L106.836267,14.0300267 L107.1224,13.7788926 C107.1446,13.7591063 107.168033,13.7560622 107.198867,13.7712825 C107.224767,13.7925908 107.2371,13.8184653 107.2371,13.8519498 L107.2408,15.44551 C107.2408,15.4759505 107.2334,15.5003029 107.213667,15.5170452 C107.190233,15.5353095 107.168033,15.5383536 107.1446,15.5307434 L105.921133,15.0132549 C105.892767,15.0026007 105.8755,14.9767263 105.870567,14.9417197 C105.8644,14.9067132 105.8755,14.8777947 105.898933,14.8564863 L106.1863,14.6053522 L106.233167,14.5612135 C106.148067,14.4775021 106.051867,14.412055 105.9458,14.3648723 Z M102.228533,13.6388663 L102.228533,17.1349578 C102.228533,17.4165324 102.043533,17.6463582 101.815367,17.6463582 L17.5528,17.6463582 C17.3246333,17.6463582 17.1396333,17.4165324 17.1396333,17.1349578 L17.1396333,13.6388663 C17.1396333,13.3572917 17.3246333,13.1289879 17.5528,13.1289879 L101.815367,13.1289879 C102.043533,13.1289879 102.228533,13.3588137 102.228533,13.6388663 Z M13.1374667,16.1699939 L13.1374667,17.3769598 L12.2026,17.3769598 L12.2026,15.2552569 L11.5995,15.2552569 L13.4667667,13.13051 L15.3352667,15.2552569 L14.7321667,15.2552569 L14.7321667,17.3769598 L13.7751,17.3769598 L13.7751,16.1699939 L13.1374667,16.1699939 Z M7.4814,16.4104739 L7.4814,14.3024692 L8.8837,14.3024692 L8.8837,13.4562233 L10.6473667,15.3572326 L8.88246667,17.2582418 L8.88246667,16.4104739 L7.4814,16.4104739 L7.4814,16.4104739 Z M5.95576667,14.3039913 L5.95576667,16.4119959 L4.55346667,16.4119959 L4.55346667,17.2582418 L2.78856667,15.3572326 L4.55346667,13.4562233 L4.55346667,14.3039913 L5.95576667,14.3039913 L5.95576667,14.3039913 Z M109.9788,100.685 L109.9788,100.685 C109.977567,101.264891 109.594,101.735197 109.1278,101.735197 L1.87343333,101.735197 C1.40476667,101.735197 1.02243333,101.260325 1.02243333,100.685 L1.02243333,21.0419961 L109.9788,21.0419961 L109.9788,100.685 Z" id="Shape" fill="#2B4C49" fill-rule="nonzero"></path>
            </g>
        </g>
    </g>
</svg>