
<svg width="134px" height="103px" viewBox="0 0 134 103" version="1.1" xmlns="http://www.w3.org/2000/svg" xmlns:xlink="http://www.w3.org/1999/xlink">
    <defs></defs>
    <g id="Welcome" stroke="none" stroke-width="1" fill="none" fill-rule="evenodd">
        <g id="Desktop" transform="translate(-133.000000, -2399.000000)" fill-rule="nonzero" fill="#2B4C49">
            <g id="noun_749145_cc" transform="translate(133.000000, 2399.000000)">
                <path d="M134,51.2011244 L134,24.8029254 C134,21.840752 131.590826,19.439436 128.618959,19.439436 L91.2127499,19.439436 C88.246549,19.4474051 85.8462026,21.8463886 85.8462134,24.8029254 L85.8462134,51.2011244 C85.8462026,54.1576613 88.246549,56.5566448 91.2127499,56.5646139 L96.3037074,56.5646139 L96.3037074,65.4555736 C96.3044411,65.8563315 96.5268953,66.2240055 96.882166,66.4116546 C97.2374367,66.5993037 97.6675817,66.5763234 98.0006933,66.351898 L112.504846,56.5646139 L128.618959,56.5646139 C131.590826,56.5646139 134,54.1632979 134,51.2011244 L134,51.2011244 Z M98.6968926,49.654242 L93.4028769,49.654242 L93.4028769,26.335351 L98.6823885,26.335351 L98.6968926,49.654242 Z M107.936038,49.654242 L102.656526,49.654242 L102.656526,38.0020249 L107.936038,38.0020249 L107.936038,49.654242 Z M117.175183,49.654242 L111.953688,49.654242 L111.953688,32.7108197 L117.175183,32.7108197 L117.175183,49.654242 Z M126.414328,49.654242 L121.134817,49.654242 L121.134817,44.2762957 L126.457841,44.2762957 L126.414328,49.654242 Z M31.3976246,37.7562586 C27.1120718,40.0291082 23.0096252,42.6294834 19.1271115,45.5340412 C15.6291583,48.2045631 12.8281842,51.6757652 10.9612736,55.6538327 L6.07337418,66.1495021 L0.634316961,77.7149781 C-0.342037721,79.7843608 -0.183179523,82.2086017 1.05493739,84.1338173 L13.6155335,103 L64.6411423,103 L66.0915576,70.3275303 L75.925373,83.3097771 C77.5050525,85.3941142 80.0244427,86.5547858 82.6407957,86.403542 L113.998774,84.0470762 C116.026058,83.9227714 117.606375,82.2477323 117.606375,80.2232407 C117.606375,78.1987491 116.026058,76.5237101 113.998774,76.3994052 L85.614147,74.0573963 L75.4612402,54.6707672 C74.3024686,52.4454084 72.8379432,50.3920288 71.1099944,48.5699786 C70.127978,47.5255853 69.065974,46.558882 67.933585,45.6786096 C63.9681764,42.7114992 59.7730026,40.0624161 55.387493,37.7562586 L48.7300869,69.5613175 L45.4376443,48.4832375 L47.685788,44.8834831 L44.3788412,40.6909981 L53.0813327,35.1251128 L53.0813327,31.5687289 C53.9102255,30.1903449 54.4757599,28.6708331 54.7493103,27.087107 C55.387493,27.087107 56.1997255,26.147412 57.1279913,22.9669061 C58.3608443,18.6298526 57.0554705,17.9648378 55.9386508,18.0804925 C56.1467005,17.4968677 56.306774,16.897341 56.4172878,16.2878438 C58.3028276,5.0259615 52.7332331,4.62116984 52.7332331,4.62116984 C51.9202751,3.30109085 50.7620218,2.22657907 49.3827738,1.51294817 C47.2993697,0.311987371 44.8856563,-0.194505405 42.4933013,0.0672636718 C41.5596162,0.112101771 40.6368603,0.287291533 39.7520165,0.587710091 L39.7520165,0.587710091 C38.6784838,0.959518432 37.6628762,1.48026634 36.7351528,2.13459251 C35.5983219,2.8506743 34.5556292,3.70541896 33.6312641,4.67899722 C31.9943509,6.29129744 30.8350613,8.32219091 30.2808048,10.5484763 C29.835977,12.4505595 29.835977,14.4291311 30.2808048,16.3312143 L30.2808048,16.3312143 C30.3913186,16.9407116 30.5513922,17.5402383 30.7594419,18.1238631 C29.6426221,18.0226651 28.3372484,18.6587663 29.5701014,23.0102767 C30.4693588,26.1907826 31.3105997,27.087107 31.9487824,27.1304775 C32.2321079,28.7182806 32.8021713,30.2416552 33.6312641,31.6265563 L33.6312641,35.1106559 L42.3337556,40.6765412 L39.0268089,44.8690263 L41.2749525,48.4687807 L37.9825099,69.6191449 L31.3976246,37.7562586 Z M14.2102038,82.2688843 C13.7683382,81.5503324 13.7683382,80.6454273 14.2102038,79.9268754 L21.6943465,68.8529321 L23.2462908,97.2317188 L14.2102038,82.2688843 Z" id="Shape"></path>
            </g>
        </g>
    </g>
</svg>