
<svg width="94px" height="92px" viewBox="0 0 94 92" version="1.1" xmlns="http://www.w3.org/2000/svg" xmlns:xlink="http://www.w3.org/1999/xlink">
    <defs></defs>
    <g id="Welcome" stroke="none" stroke-width="1" fill="none" fill-rule="evenodd">
        <g id="Desktop" transform="translate(-132.000000, -6810.000000)" fill-rule="nonzero" fill="#2B4C49">
            <g id="noun_1393542_cc" transform="translate(132.000000, 6810.000000)">
                <path d="M91.8356297,76.6901948 L74.7661036,68.1360149 L74.7671851,49.4726436 L92.6435203,49.4726436 L92.6435203,40.4076699 C92.6435203,29.8426435 84.0173693,21.2475139 73.4152933,21.2475139 C62.8132174,21.2475139 54.1859849,29.8426435 54.1859849,40.4076699 L54.1859849,49.4726436 L72.0634016,49.4726436 L72.0623201,66.7825191 L47.7488171,54.5956684 C47.7142086,54.2497511 47.6503994,53.9027561 47.537922,53.5643822 C47.1366805,52.355288 46.2876925,51.3735724 45.1456143,50.8013541 C44.5031953,50.4791445 43.788315,50.3078022 43.0723531,50.297026 L44.3312347,47.8034039 L41.3094862,46.2893421 L42.2504029,44.4239748 C42.5229443,44.4724679 42.7987302,44.5047966 43.0745161,44.5047966 C44.877399,44.5047966 46.5007506,43.5079943 47.3086411,41.9055673 C47.8775172,40.7794502 47.9726904,39.5003104 47.5757749,38.3030701 C47.1788595,37.1058297 46.3374421,36.1338128 45.2072606,35.5669825 L37.3468211,31.6282665 C36.6892609,31.2985136 35.9549133,31.1250161 35.2227288,31.1250161 C33.4198459,31.1250161 31.7975758,32.1207407 30.9864407,33.725323 C29.8724819,35.9333747 30.683617,38.5907957 32.7644488,39.8559263 L31.8981565,41.5725815 L28.0090343,39.6242372 L20.3832832,54.7292938 L24.271324,56.6787158 L23.3022879,58.5968866 C22.7388195,58.3695079 22.135335,58.2445035 21.5296875,58.2445035 C19.7278861,58.2445035 18.105616,59.2402282 17.2944809,60.8437328 C16.1232019,63.1692455 17.0673631,66.0130955 19.399106,67.1833952 L27.260627,71.1221112 C27.9181872,71.4507865 28.6525348,71.6253616 29.3836379,71.6253616 C31.1865207,71.6253616 32.8098723,70.6274818 33.6188444,69.0239771 C34.1877204,67.8989376 34.2818121,66.6208755 33.8848967,65.4225575 C33.6350671,64.667143 33.1905651,64.0173357 32.6260151,63.4871446 L33.6815721,61.3965539 L36.7054836,62.9116934 L37.9719358,60.4019069 C38.3980521,60.9590386 38.9388088,61.4396589 39.6071841,61.7737224 C40.2820485,62.1120963 41.0044994,62.2834386 41.7539882,62.2834386 C42.6462368,62.2834386 43.4930618,62.0377403 44.2230834,61.6013025 L72.0623201,75.5511461 L72.0623201,85.9049582 L58.0599659,85.9049582 L58.0599659,82.502899 L54.4271624,82.502899 L54.4271624,76.4477294 C54.4271624,74.8097408 53.0904118,73.4777974 51.4465114,73.4777974 L11.5970683,73.4777974 L11.5970683,11.7870521 L63.0608839,11.7870521 C63.7270962,16.9079217 68.1234482,20.8789664 73.4412497,20.8789664 C79.2186943,20.8789664 83.9189516,16.1966898 83.9189516,10.440022 C83.9189516,4.68335422 79.2186943,0 73.4412497,0 C68.1234482,0 63.7292592,3.97212233 63.0608839,9.09299193 L8.89328477,9.09299193 L8.89328477,73.4777974 L6.46420565,73.4777974 C4.82030527,73.4777974 3.4835547,74.8097408 3.4835547,76.4477294 L3.4835547,82.502899 L0,82.502899 L0,92 L58.0599659,92 L58.0599659,88.5990184 L74.7661036,88.5990184 L74.7661036,76.9057196 L88.3034069,83.6893631 C88.8668754,83.9727783 89.4692784,84.1074813 90.0619477,84.1074813 C91.5014421,84.1074813 92.8901053,83.3175828 93.5822739,81.9511555 C94.5545545,80.0211308 93.7715387,77.6611341 91.8356297,76.6901948 Z M89.9397367,40.4065922 L89.9397367,46.7775058 L85.3054518,46.7775058 L85.3054518,40.5897883 L82.6016682,40.5897883 L82.6016682,46.7775058 L74.7671851,46.7775058 L74.7671851,43.3420402 L79.8978847,37.3870896 L79.8978847,32.2791515 L82.8374382,32.2791515 L82.8374382,26.8974969 C87.1245573,29.8749722 89.9397367,34.8158786 89.9397367,40.4065922 Z M66.696932,29.5850913 L66.696932,25.3769693 C67.2095694,25.1495906 67.7330219,24.944842 68.2716156,24.7681117 L72.0634016,34.2490483 L72.0634016,39.206119 L69.6364855,36.3892097 L69.6364855,29.5850913 L66.696932,29.5850913 Z M78.5546451,24.7670341 C79.0943203,24.9437644 79.6199358,25.148513 80.1336546,25.3769693 L80.1336546,29.5850913 L77.1941012,29.5850913 L77.1941012,36.3892097 L74.7671851,39.206119 L74.7671851,34.2479707 L78.5546451,24.7670341 Z M75.8930406,24.1463226 L73.4142118,30.3502044 L70.9332201,24.1474002 C71.7454366,24.0245511 72.5695498,23.941574 73.4152933,23.941574 C74.2588738,23.9404964 75.0819055,24.0245511 75.8930406,24.1463226 Z M65.3526109,46.7775058 L65.3526109,40.5897883 L62.6488273,40.5897883 L62.6488273,46.7775058 L56.8897684,46.7775058 L56.8897684,40.4065922 C56.8897684,34.8158786 59.7060293,29.8749722 63.9931485,26.8974969 L63.9931485,32.2791515 L66.9327019,32.2791515 L66.9327019,37.3870896 L72.0634016,43.3420402 L72.0634016,46.7775058 L65.3526109,46.7775058 L65.3526109,46.7775058 Z M73.4412497,2.69513781 C77.7272873,2.69513781 81.215168,6.17047544 81.215168,10.4410996 C81.215168,14.7117238 77.7272873,18.1859839 73.4412497,18.1859839 C69.155212,18.1859839 65.6673313,14.7117238 65.6673313,10.4410996 C65.6673313,6.16939782 69.155212,2.69513781 73.4412497,2.69513781 Z M6.18733822,80.6849472 L41.5560713,80.6849472 L41.5560713,77.990887 L6.18733822,77.990887 L6.18733822,76.4477294 C6.18733822,76.2957844 6.31171226,76.1718576 6.46420565,76.1718576 L51.4465114,76.1718576 C51.5990048,76.1718576 51.7233789,76.2957844 51.7233789,76.4477294 L51.7233789,82.502899 L6.18733822,82.502899 L6.18733822,80.6849472 Z M55.3561824,89.3059398 L2.70378353,89.3059398 L2.70378353,85.1969592 L55.3561824,85.1969592 L55.3561824,89.3059398 Z M33.4003787,34.9344172 C33.748626,34.2447378 34.4462021,33.816921 35.2216472,33.816921 C35.5385307,33.816921 35.844599,33.8891219 36.1312,34.0335235 L43.990558,37.9722395 C44.4761575,38.2157825 44.837383,38.632823 45.0071806,39.1457721 C45.1769782,39.6597988 45.1369622,40.2083094 44.8914586,40.6932403 C44.4026146,41.6631019 43.148059,42.0855306 42.1638818,41.5930564 L34.3034424,37.6532627 C33.3019609,37.1521675 32.8963934,35.9322971 33.4003787,34.9344172 Z M35.1610825,41.0995045 L39.7412918,43.3959214 L38.8923038,45.0780926 L34.3110129,42.7827533 L35.1610825,41.0995045 Z M31.2027434,67.8127277 C30.7128178,68.783667 29.4582623,69.2071732 28.4740851,68.7136214 L20.6147271,64.775983 C19.6132457,64.2727326 19.2076782,63.0507069 19.7105819,62.0539046 C20.0588292,61.3653028 20.7553239,60.9385637 21.530769,60.9385637 C21.8476524,60.9385637 22.1548022,61.0107645 22.4424848,61.1562438 L30.3029242,65.0949598 C30.7874423,65.3374252 31.1486677,65.7533881 31.3184653,66.2684924 C31.4882629,66.7803638 31.4471654,67.3277968 31.2027434,67.8127277 Z M30.3083318,62.0808452 L25.727041,59.785506 L26.6852619,57.88781 L31.2654712,60.1831492 L30.3083318,62.0808452 Z M35.5039222,59.2919541 L24.0117607,53.5320535 L29.2084327,43.2396659 L40.7005942,48.9974114 L35.5039222,59.2919541 Z M40.8228052,59.3673878 C39.7975305,58.8522835 39.3833108,57.6054725 39.8981112,56.5838848 L40.5383672,55.3155213 L41.1375256,54.1279796 C41.4933435,53.4242911 42.2060608,52.9856981 42.9998917,52.9856981 C43.3243457,52.9856981 43.6379846,53.0600541 43.9299932,53.206611 C44.4264079,53.4555422 44.7962855,53.8822813 44.9704091,54.4081618 C45.1445328,54.9340424 45.1034353,55.4954845 44.8536057,55.990114 L43.6141913,58.443864 C43.1145321,59.4395886 41.8329387,59.8706383 40.8228052,59.3673878 Z M91.1661729,80.7399061 C90.8611862,81.3444532 90.123594,81.5879962 89.5179465,81.2830286 L46.0984276,59.5225657 L47.2015713,57.3371441 L90.6210902,79.0965293 C91.2256562,79.4004193 91.4700782,80.1375142 91.1661729,80.7399061 Z" id="Shape"></path>
            </g>
        </g>
    </g>
</svg>