
<svg width="112px" height="120px" viewBox="0 0 112 120" version="1.1" xmlns="http://www.w3.org/2000/svg" xmlns:xlink="http://www.w3.org/1999/xlink">
    <defs></defs>
    <g id="Welcome" stroke="none" stroke-width="1" fill="none" fill-rule="evenodd">
        <g id="Desktop" transform="translate(-644.000000, -7679.000000)" fill-rule="nonzero" fill="#766E6E">
            <g id="noun_648749_cc-copy" transform="translate(644.000000, 7679.000000)">
                <g id="Group">
                    <path d="M17.2450036,92.8009957 L94.7563834,92.8009957 C95.5220238,92.8009957 96.1434131,92.1512987 96.1434131,91.3507792 C96.1434131,90.5502597 95.5220238,89.9005628 94.7563834,89.9005628 L66.7120303,89.9005628 C66.5885846,89.2334632 66.0504171,88.7142857 65.3763207,88.7142857 C64.7036113,88.7142857 64.1640567,89.232013 64.0406111,89.9005628 L18.6320333,89.9005628 L18.6320333,17.8190043 C18.6320333,17.0184848 18.010644,16.3687879 17.2450036,16.3687879 C16.4793632,16.3687879 15.8579739,17.0184848 15.8579739,17.8190043 L15.8579739,91.3507792 C15.8579739,92.1512987 16.4779762,92.8009957 17.2450036,92.8009957 Z" id="Shape"></path>
                    <path d="M25.9236483,67.3975541 C26.1303157,67.3975541 26.3397572,67.349697 26.5381025,67.2467316 C27.2302303,66.8885281 43.6304693,58.3482035 54.8973114,48.0632684 C63.2597134,40.4307792 70.2226024,29.052381 73.4446723,23.324026 L73.520959,23.8417532 C73.6277603,24.5581602 74.2172479,25.0700866 74.8899573,25.0700866 C74.9606958,25.0700866 75.0328213,25.0642857 75.1049469,25.052684 C75.8622651,24.9294156 76.3796272,24.188355 76.2631167,23.3965368 L75.6070516,18.9777273 C75.5446353,18.5629654 75.3088402,18.2091126 74.9759531,17.9857792 C74.9093757,17.930671 74.8580556,17.8610606 74.7789949,17.8175541 C74.5653923,17.7000866 74.3393065,17.6667316 74.1146077,17.669632 C73.989775,17.6609307 73.8718775,17.6841342 73.7484318,17.7102381 C73.7373356,17.7145887 73.7248523,17.7145887 73.7123691,17.7174892 C73.6333084,17.736342 73.5500866,17.7334416 73.4738,17.7667965 L69.4167381,19.5940693 C68.7135141,19.9116667 68.3889491,20.7643939 68.6913216,21.4996537 C68.9950811,22.2349134 69.8106546,22.5771645 70.5138786,22.2581169 L70.9119561,22.07829 C67.7009824,27.7341342 60.9378257,38.6948701 53.0705933,45.876342 C42.0797701,55.9089394 25.4714766,64.5594805 25.3050331,64.6450433 C24.6184534,65.0003463 24.3382734,65.8704762 24.6780957,66.5883333 C24.9222129,67.10171 25.4132214,67.3975541 25.9236483,67.3975541 Z" id="Shape"></path>
                    <path d="M29.9834842,85.0785931 C32.9877905,85.0785931 35.4317368,82.5233117 35.4317368,79.3821429 C35.4317368,78.9978355 35.3929,78.6236797 35.3235485,78.2611255 L43.292034,74.2367749 C44.2782121,75.6449351 45.8552649,76.5701732 47.6445332,76.5817749 C47.6556294,76.5817749 47.6653386,76.589026 47.6778219,76.589026 C47.6903052,76.589026 47.7000144,76.5817749 47.7111106,76.5817749 C50.1273163,76.5658225 52.1523797,74.8893723 52.8472815,72.5965801 L60.0556748,74.0859524 C60.5924553,76.6412338 62.7687049,78.5627706 65.3707725,78.5627706 C68.3750788,78.5627706 70.8190251,76.0074892 70.8190251,72.8663203 C70.8190251,71.8236147 70.530523,70.8577706 70.0603199,70.016645 L81.4103838,53.8365801 C81.9208107,54.0077056 82.4534301,54.1237229 83.0165642,54.1295238 C83.0318215,54.1295238 83.0456918,54.1396753 83.0609491,54.1396753 C83.0734324,54.1396753 83.0845286,54.1324242 83.0970119,54.1324242 C86.0860609,54.1150216 88.5133628,51.5684416 88.5133628,48.4403247 C88.5133628,45.2991558 86.0694165,42.7438745 83.0651102,42.7438745 C80.0608039,42.7438745 77.6168576,45.2991558 77.6168576,48.4403247 C77.6168576,49.9224459 78.1744436,51.2624459 79.0649166,52.2775974 L68.0699323,67.9515368 C67.2710032,67.4700649 66.3569507,67.1727706 65.3707725,67.1727706 C62.9393095,67.1727706 60.8989888,68.8579221 60.2013129,71.1608658 L52.9929196,69.6714935 C52.4561392,67.1162121 50.2798896,65.1946753 47.6778219,65.1946753 C44.6735156,65.1946753 42.2295693,67.7499567 42.2295693,70.8911255 C42.2295693,71.1072078 42.2684061,71.3131385 42.2905986,71.5219697 L34.0793829,75.6681385 C33.0793345,74.4644589 31.6229533,73.6856926 29.9834842,73.6856926 C26.9791779,73.6856926 24.5352316,76.240974 24.5352316,79.3821429 C24.5352316,82.5233117 26.9805649,85.0785931 29.9834842,85.0785931 Z M83.0651102,45.6457576 C84.5395228,45.6457576 85.7393035,46.9001948 85.7393035,48.4417749 C85.7393035,49.983355 84.5395228,51.2377922 83.0651102,51.2377922 C81.5906977,51.2377922 80.390917,49.983355 80.390917,48.4417749 C80.390917,46.9001948 81.5906977,45.6457576 83.0651102,45.6457576 Z M65.3721596,70.0732035 C66.8465721,70.0732035 68.0463528,71.3276407 68.0463528,72.8692208 C68.0463528,74.4064502 66.8535073,75.6565368 65.3846428,75.6637879 C65.3818688,75.6637879 65.3804818,75.6623377 65.3777077,75.6623377 C65.3735466,75.6623377 65.3707725,75.6652381 65.3679985,75.6652381 C63.89636,75.6623377 62.7007404,74.4093506 62.7007404,72.870671 C62.6979663,71.3276407 63.897747,70.0732035 65.3721596,70.0732035 Z M47.6778219,68.0951082 C49.1522344,68.0951082 50.3520151,69.3495455 50.3520151,70.8911255 C50.3520151,72.4327056 49.1522344,73.6871429 47.6778219,73.6871429 C46.2034093,73.6871429 45.0036287,72.4327056 45.0036287,70.8911255 C45.0036287,69.3495455 46.2034093,68.0951082 47.6778219,68.0951082 Z M29.9834842,76.5875758 C31.4578968,76.5875758 32.6576774,77.842013 32.6576774,79.3835931 C32.6576774,80.9208225 31.4634449,82.1723593 29.9945804,82.1781602 C29.9890323,82.1781602 29.9848712,82.1752597 29.9793231,82.1752597 C29.975162,82.1752597 29.972388,82.1781602 29.9682269,82.1781602 C28.5021365,82.1680087 27.310678,80.9193723 27.310678,79.3835931 C27.309291,77.8405628 28.5090717,76.5875758 29.9834842,76.5875758 Z" id="Shape"></path>
                    <path d="M28.5922934,87.9746753 C28.5922934,88.7722944 29.2164568,89.4248918 29.9793231,89.4248918 C30.7560597,89.4248918 31.3663528,88.7722944 31.3663528,87.9746753 C31.3663528,87.1770563 30.7560597,86.5244589 29.9793231,86.5244589 C29.2164568,86.5244589 28.5922934,87.1770563 28.5922934,87.9746753 Z" id="Shape"></path>
                    <ellipse id="Oval" cx="47.6778219" cy="79.4909091" rx="1.38702968" ry="1.45021645"></ellipse>
                    <path d="M47.6778219,82.391342 C46.9149556,82.391342 46.2907922,83.0294372 46.2907922,83.8415584 C46.2907922,84.6391775 46.9149556,85.2917749 47.6778219,85.2917749 C48.4406882,85.2917749 49.0648516,84.6391775 49.0648516,83.8415584 C49.0648516,83.0294372 48.4406882,82.391342 47.6778219,82.391342 Z" id="Shape"></path>
                    <path d="M47.6778219,86.7419913 C46.9149556,86.7419913 46.2907922,87.3800866 46.2907922,88.1922078 C46.2907922,88.9898268 46.9149556,89.6424242 47.6778219,89.6424242 C48.4406882,89.6424242 49.0648516,88.9898268 49.0648516,88.1922078 C49.0648516,87.3800866 48.4406882,86.7419913 47.6778219,86.7419913 Z" id="Shape"></path>
                    <ellipse id="Oval" cx="65.3763207" cy="85.8138528" rx="1.38702968" ry="1.45021645"></ellipse>
                    <ellipse id="Oval" cx="65.3763207" cy="81.4632035" rx="1.38702968" ry="1.45021645"></ellipse>
                    <path d="M83.0609491,68.64329 C82.2980828,68.64329 81.6739195,69.2813853 81.6739195,70.0935065 C81.6739195,70.8911255 82.2980828,71.5437229 83.0609491,71.5437229 C83.8376858,71.5437229 84.4479788,70.8911255 84.4479788,70.0935065 C84.4479788,69.2813853 83.8376858,68.64329 83.0609491,68.64329 Z" id="Shape"></path>
                    <path d="M83.0609491,55.591342 C82.2980828,55.591342 81.6739195,56.2294372 81.6739195,57.0415584 C81.6739195,57.8391775 82.2980828,58.4917749 83.0609491,58.4917749 C83.8376858,58.4917749 84.4479788,57.8391775 84.4479788,57.0415584 C84.4479788,56.2294372 83.8376858,55.591342 83.0609491,55.591342 Z" id="Shape"></path>
                    <path d="M83.0609491,77.3445887 C82.2980828,77.3445887 81.6739195,77.982684 81.6739195,78.7948052 C81.6739195,79.5924242 82.2980828,80.2450216 83.0609491,80.2450216 C83.8376858,80.2450216 84.4479788,79.5924242 84.4479788,78.7948052 C84.4479788,77.982684 83.8376858,77.3445887 83.0609491,77.3445887 Z" id="Shape"></path>
                    <path d="M83.0609491,64.2926407 C82.2980828,64.2926407 81.6739195,64.9307359 81.6739195,65.7428571 C81.6739195,66.5404762 82.2980828,67.1930736 83.0609491,67.1930736 C83.8376858,67.1930736 84.4479788,66.5404762 84.4479788,65.7428571 C84.4479788,64.9307359 83.8376858,64.2926407 83.0609491,64.2926407 Z" id="Shape"></path>
                    <path d="M83.0609491,59.9419913 C82.2980828,59.9419913 81.6739195,60.5800866 81.6739195,61.3922078 C81.6739195,62.1898268 82.2980828,62.8424242 83.0609491,62.8424242 C83.8376858,62.8424242 84.4479788,62.1898268 84.4479788,61.3922078 C84.4479788,60.5800866 83.8376858,59.9419913 83.0609491,59.9419913 Z" id="Shape"></path>
                    <path d="M83.0609491,72.9939394 C82.2980828,72.9939394 81.6739195,73.6320346 81.6739195,74.4441558 C81.6739195,75.2417749 82.2980828,75.8943723 83.0609491,75.8943723 C83.8376858,75.8943723 84.4479788,75.2417749 84.4479788,74.4441558 C84.4479788,73.6320346 83.8376858,72.9939394 83.0609491,72.9939394 Z" id="Shape"></path>
                    <path d="M83.0609491,86.0458874 C82.2980828,86.0458874 81.6739195,86.6839827 81.6739195,87.4961039 C81.6739195,88.2937229 82.2980828,88.9463203 83.0609491,88.9463203 C83.8376858,88.9463203 84.4479788,88.2937229 84.4479788,87.4961039 C84.4479788,86.6839827 83.8376858,86.0458874 83.0609491,86.0458874 Z" id="Shape"></path>
                    <path d="M83.0609491,81.6952381 C82.2980828,81.6952381 81.6739195,82.3333333 81.6739195,83.1454545 C81.6739195,83.9430736 82.2980828,84.595671 83.0609491,84.595671 C83.8376858,84.595671 84.4479788,83.9430736 84.4479788,83.1454545 C84.4479788,82.3333333 83.8376858,81.6952381 83.0609491,81.6952381 Z" id="Shape"></path>
                    <path d="M110.109415,0.12491342 L1.89058499,0.12491342 C1.1249446,0.12491342 0.503555303,0.77461039 0.503555303,1.57512987 L0.503555303,13.2145671 C0.503555303,14.0150866 1.1249446,14.6647835 1.89058499,14.6647835 L3.35112725,14.6647835 L3.35112725,95.9508658 L1.89058499,95.9508658 C1.1249446,95.9508658 0.503555303,96.6005628 0.503555303,97.4010823 L0.503555303,101.795238 C0.503555303,102.595758 1.1249446,103.245455 1.89058499,103.245455 L54.6129703,103.245455 L54.6129703,106.694069 C51.7598503,107.359719 49.6155024,110.017965 49.6155024,113.19974 C49.6155024,116.88039 52.4783316,119.875087 56,119.875087 C59.5216684,119.875087 62.3844976,116.88184 62.3844976,113.19974 C62.3844976,110.017965 60.2415368,107.359719 57.3870297,106.694069 L57.3870297,103.245455 L110.109415,103.245455 C110.875055,103.245455 111.496445,102.595758 111.496445,101.795238 L111.496445,97.4010823 C111.496445,96.6005628 110.875055,95.9508658 110.109415,95.9508658 L108.653034,95.9508658 L108.653034,14.6662338 L110.109415,14.6662338 C110.875055,14.6662338 111.496445,14.0165368 111.496445,13.2160173 L111.496445,1.57512987 C111.496445,0.77461039 110.875055,0.12491342 110.109415,0.12491342 Z M59.6104383,113.19974 C59.6104383,115.280801 57.9917746,116.974654 56,116.974654 C54.0082254,116.974654 52.3895617,115.282251 52.3895617,113.19974 C52.3895617,111.117229 54.0082254,109.424827 56,109.424827 C57.9917746,109.424827 59.6104383,111.11868 59.6104383,113.19974 Z M108.722385,100.345022 L3.27761467,100.345022 L3.27761467,98.8512987 L108.722385,98.8512987 L108.722385,100.345022 L108.722385,100.345022 Z M105.878974,95.952316 L6.12518661,95.952316 L6.12518661,14.6662338 L105.878974,14.6662338 L105.878974,95.952316 Z M108.722385,11.7658009 L3.27761467,11.7658009 L3.27761467,3.02679654 L108.722385,3.02679654 L108.722385,11.7658009 L108.722385,11.7658009 Z" id="Shape"></path>
                </g>
            </g>
        </g>
    </g>
</svg>