
<svg width="94px" height="98px" viewBox="0 0 94 98" version="1.1" xmlns="http://www.w3.org/2000/svg" xmlns:xlink="http://www.w3.org/1999/xlink">
    <defs></defs>
    <g id="Welcome" stroke="none" stroke-width="1" fill="none" fill-rule="evenodd">
        <g id="Desktop" transform="translate(-367.000000, -6492.000000)" fill-rule="nonzero" fill="#2B4C49">
            <g id="noun_648749_cc" transform="translate(367.000000, 6492.000000)">
                <g id="Group">
                    <path d="M14.2812575,75.3876667 L79.7199135,75.3876667 C80.3663021,75.3876667 80.8909074,74.865 80.8909074,74.221 C80.8909074,73.577 80.3663021,73.0543333 79.7199135,73.0543333 L56.0435864,73.0543333 C55.939368,72.5176667 55.4850223,72.1 54.9159192,72.1 C54.3479871,72.1 53.8924705,72.5165 53.788252,73.0543333 L15.4522515,73.0543333 L15.4522515,15.0663333 C15.4522515,14.4223333 14.9276462,13.8996667 14.2812575,13.8996667 C13.6348689,13.8996667 13.1102636,14.4223333 13.1102636,15.0663333 L13.1102636,74.221 C13.1102636,74.865 13.6336979,75.3876667 14.2812575,75.3876667 Z" id="Shape"></path>
                    <path d="M21.6081668,54.9511667 C21.7826449,54.9511667 21.959465,54.9126667 22.1269171,54.8298333 C22.7112431,54.5416667 36.5570758,47.6711667 46.0690598,39.3971667 C53.1289824,33.257 59.0073721,24.1033333 61.7275911,19.495 L61.7919958,19.9115 C61.8821623,20.4878333 62.3798348,20.8996667 62.9477669,20.8996667 C63.0074875,20.8996667 63.0683792,20.895 63.1292709,20.8856667 C63.7686336,20.7865 64.2054144,20.1903333 64.1070509,19.5533333 L63.5531707,15.9985 C63.500476,15.6648333 63.301407,15.3801667 63.0203685,15.2005 C62.9641608,15.1561667 62.920834,15.1001667 62.8540873,15.0651667 C62.6737543,14.9706667 62.4828822,14.9438333 62.2931812,14.9461667 C62.1877918,14.9391667 62.0882573,14.9578333 61.9840388,14.9788333 C61.9746709,14.9823333 61.9641319,14.9823333 61.953593,14.9846667 C61.8868463,14.9998333 61.8165867,14.9975 61.752182,15.0243333 L58.3270247,16.4943333 C57.7333307,16.7498333 57.4593181,17.4358333 57.7145948,18.0273333 C57.9710425,18.6188333 58.6595869,18.8941667 59.2532809,18.6375 L59.5893562,18.4928333 C56.8785051,23.0428333 51.1687385,31.8605 44.5268607,37.6378333 C35.2479045,45.7088333 21.2264228,52.668 21.0859035,52.7368333 C20.5062615,53.0226667 20.2697207,53.7226667 20.5566142,54.3001667 C20.7627092,54.7131667 21.177241,54.9511667 21.6081668,54.9511667 Z" id="Shape"></path>
                    <path d="M25.0356661,69.1751667 C27.5720391,69.1751667 29.6353304,67.1195 29.6353304,64.5925 C29.6353304,64.2833333 29.6025426,63.9823333 29.5439929,63.6906667 L36.2713533,60.4531667 C37.10393,61.586 38.4353501,62.3303333 39.9459323,62.3396667 C39.9553003,62.3396667 39.9634972,62.3455 39.9740362,62.3455 C39.9845751,62.3455 39.9927721,62.3396667 40.00214,62.3396667 C42.0420115,62.3268333 43.7516627,60.9781667 44.3383307,59.1336667 L50.4239864,60.3318333 C50.877161,62.3875 52.7144506,63.9333333 54.9112352,63.9333333 C57.4476082,63.9333333 59.5108996,61.8776667 59.5108996,59.3506667 C59.5108996,58.5118333 59.2673328,57.7348333 58.8703659,57.0581667 L68.4526095,44.0416667 C68.8835353,44.1793333 69.333197,44.2726667 69.8086205,44.2773333 C69.8215014,44.2773333 69.8332114,44.2855 69.8460923,44.2855 C69.8566313,44.2855 69.8659992,44.2796667 69.8765382,44.2796667 C72.4000302,44.2656667 74.4492696,42.217 74.4492696,39.7005 C74.4492696,37.1735 72.3859782,35.1178333 69.8496053,35.1178333 C67.3132324,35.1178333 65.249941,37.1735 65.249941,39.7005 C65.249941,40.8928333 65.7206806,41.9708333 66.4724587,42.7875 L57.1899895,55.3968333 C56.515497,55.0095 55.743812,54.7703333 54.9112352,54.7703333 C52.8584828,54.7703333 51.1359507,56.126 50.5469407,57.9786667 L44.4612851,56.7805 C44.0081104,54.7248333 42.1708209,53.179 39.9740362,53.179 C37.4376633,53.179 35.3743719,55.2346667 35.3743719,57.7616667 C35.3743719,57.9355 35.4071597,58.1011667 35.4258956,58.2691667 L28.4936113,61.6046667 C27.6493247,60.6363333 26.419781,60.0098333 25.0356661,60.0098333 C22.4992932,60.0098333 20.4360018,62.0655 20.4360018,64.5925 C20.4360018,67.1195 22.5004642,69.1751667 25.0356661,69.1751667 Z M69.8496053,37.4523333 C71.0943719,37.4523333 72.1072817,38.4615 72.1072817,39.7016667 C72.1072817,40.9418333 71.0943719,41.951 69.8496053,41.951 C68.6048387,41.951 67.5919289,40.9418333 67.5919289,39.7016667 C67.5919289,38.4615 68.6048387,37.4523333 69.8496053,37.4523333 Z M54.9124062,57.1036667 C56.1571728,57.1036667 57.1700826,58.1128333 57.1700826,59.353 C57.1700826,60.5896667 56.1630278,61.5953333 54.9229452,61.6011667 C54.9206032,61.6011667 54.9194322,61.6 54.9170902,61.6 C54.9135772,61.6 54.9112352,61.6023333 54.9088933,61.6023333 C53.6664687,61.6 52.6570719,60.592 52.6570719,59.3541667 C52.6547299,58.1128333 53.6676397,57.1036667 54.9124062,57.1036667 Z M39.9740362,55.5123333 C41.2188028,55.5123333 42.2317126,56.5215 42.2317126,57.7616667 C42.2317126,59.0018333 41.2188028,60.011 39.9740362,60.011 C38.7292696,60.011 37.7163598,59.0018333 37.7163598,57.7616667 C37.7163598,56.5215 38.7292696,55.5123333 39.9740362,55.5123333 Z M25.0356661,62.3443333 C26.2804327,62.3443333 27.2933425,63.3535 27.2933425,64.5936667 C27.2933425,65.8303333 26.2851167,66.8371667 25.0450341,66.8418333 C25.0403501,66.8418333 25.0368371,66.8395 25.0321532,66.8395 C25.0286402,66.8395 25.0262982,66.8418333 25.0227852,66.8418333 C23.7850446,66.8336667 22.7791608,65.8291667 22.7791608,64.5936667 C22.7779898,63.3523333 23.7908996,62.3443333 25.0356661,62.3443333 Z" id="Shape"></path>
                    <path d="M23.8611592,71.505 C23.8611592,72.1466667 24.3881065,72.6716667 25.0321532,72.6716667 C25.6879098,72.6716667 26.2031471,72.1466667 26.2031471,71.505 C26.2031471,70.8633333 25.6879098,70.3383333 25.0321532,70.3383333 C24.3881065,70.3383333 23.8611592,70.8633333 23.8611592,71.505 Z" id="Shape"></path>
                    <ellipse id="Oval" cx="39.9740362" cy="64.68" rx="1.17099397" ry="1.16666667"></ellipse>
                    <path d="M39.9740362,67.0133333 C39.3299895,67.0133333 38.8030422,67.5266667 38.8030422,68.18 C38.8030422,68.8216667 39.3299895,69.3466667 39.9740362,69.3466667 C40.6180829,69.3466667 41.1450302,68.8216667 41.1450302,68.18 C41.1450302,67.5266667 40.6180829,67.0133333 39.9740362,67.0133333 Z" id="Shape"></path>
                    <path d="M39.9740362,70.5133333 C39.3299895,70.5133333 38.8030422,71.0266667 38.8030422,71.68 C38.8030422,72.3216667 39.3299895,72.8466667 39.9740362,72.8466667 C40.6180829,72.8466667 41.1450302,72.3216667 41.1450302,71.68 C41.1450302,71.0266667 40.6180829,70.5133333 39.9740362,70.5133333 Z" id="Shape"></path>
                    <ellipse id="Oval" cx="54.9159192" cy="69.7666667" rx="1.17099397" ry="1.16666667"></ellipse>
                    <ellipse id="Oval" cx="54.9159192" cy="66.2666667" rx="1.17099397" ry="1.16666667"></ellipse>
                    <path d="M69.8460923,55.9533333 C69.2020456,55.9533333 68.6750983,56.4666667 68.6750983,57.12 C68.6750983,57.7616667 69.2020456,58.2866667 69.8460923,58.2866667 C70.5018489,58.2866667 71.0170863,57.7616667 71.0170863,57.12 C71.0170863,56.4666667 70.5018489,55.9533333 69.8460923,55.9533333 Z" id="Shape"></path>
                    <path d="M69.8460923,45.4533333 C69.2020456,45.4533333 68.6750983,45.9666667 68.6750983,46.62 C68.6750983,47.2616667 69.2020456,47.7866667 69.8460923,47.7866667 C70.5018489,47.7866667 71.0170863,47.2616667 71.0170863,46.62 C71.0170863,45.9666667 70.5018489,45.4533333 69.8460923,45.4533333 Z" id="Shape"></path>
                    <path d="M69.8460923,62.9533333 C69.2020456,62.9533333 68.6750983,63.4666667 68.6750983,64.12 C68.6750983,64.7616667 69.2020456,65.2866667 69.8460923,65.2866667 C70.5018489,65.2866667 71.0170863,64.7616667 71.0170863,64.12 C71.0170863,63.4666667 70.5018489,62.9533333 69.8460923,62.9533333 Z" id="Shape"></path>
                    <path d="M69.8460923,52.4533333 C69.2020456,52.4533333 68.6750983,52.9666667 68.6750983,53.62 C68.6750983,54.2616667 69.2020456,54.7866667 69.8460923,54.7866667 C70.5018489,54.7866667 71.0170863,54.2616667 71.0170863,53.62 C71.0170863,52.9666667 70.5018489,52.4533333 69.8460923,52.4533333 Z" id="Shape"></path>
                    <path d="M69.8460923,48.9533333 C69.2020456,48.9533333 68.6750983,49.4666667 68.6750983,50.12 C68.6750983,50.7616667 69.2020456,51.2866667 69.8460923,51.2866667 C70.5018489,51.2866667 71.0170863,50.7616667 71.0170863,50.12 C71.0170863,49.4666667 70.5018489,48.9533333 69.8460923,48.9533333 Z" id="Shape"></path>
                    <path d="M69.8460923,59.4533333 C69.2020456,59.4533333 68.6750983,59.9666667 68.6750983,60.62 C68.6750983,61.2616667 69.2020456,61.7866667 69.8460923,61.7866667 C70.5018489,61.7866667 71.0170863,61.2616667 71.0170863,60.62 C71.0170863,59.9666667 70.5018489,59.4533333 69.8460923,59.4533333 Z" id="Shape"></path>
                    <path d="M69.8460923,69.9533333 C69.2020456,69.9533333 68.6750983,70.4666667 68.6750983,71.12 C68.6750983,71.7616667 69.2020456,72.2866667 69.8460923,72.2866667 C70.5018489,72.2866667 71.0170863,71.7616667 71.0170863,71.12 C71.0170863,70.4666667 70.5018489,69.9533333 69.8460923,69.9533333 Z" id="Shape"></path>
                    <path d="M69.8460923,66.4533333 C69.2020456,66.4533333 68.6750983,66.9666667 68.6750983,67.62 C68.6750983,68.2616667 69.2020456,68.7866667 69.8460923,68.7866667 C70.5018489,68.7866667 71.0170863,68.2616667 71.0170863,67.62 C71.0170863,66.9666667 70.5018489,66.4533333 69.8460923,66.4533333 Z" id="Shape"></path>
                    <path d="M92.6816457,0.831833333 L1.31835431,0.831833333 C0.671965644,0.831833333 0.147360346,1.3545 0.147360346,1.9985 L0.147360346,11.3621667 C0.147360346,12.0061667 0.671965644,12.5288333 1.31835431,12.5288333 L2.55141096,12.5288333 L2.55141096,77.9216667 L1.31835431,77.9216667 C0.671965644,77.9216667 0.147360346,78.4443333 0.147360346,79.0883333 L0.147360346,82.6233333 C0.147360346,83.2673333 0.671965644,83.79 1.31835431,83.79 L45.829006,83.79 L45.829006,86.5643333 C43.4202714,87.0998333 41.6099148,89.2383333 41.6099148,91.798 C41.6099148,94.759 44.0268463,97.1681667 47,97.1681667 C49.9731537,97.1681667 52.3900852,94.7601667 52.3900852,91.798 C52.3900852,89.2383333 50.5808996,87.0998333 48.170994,86.5643333 L48.170994,83.79 L92.6816457,83.79 C93.3280344,83.79 93.8526397,83.2673333 93.8526397,82.6233333 L93.8526397,79.0883333 C93.8526397,78.4443333 93.3280344,77.9216667 92.6816457,77.9216667 L91.452102,77.9216667 L91.452102,12.53 L92.6816457,12.53 C93.3280344,12.53 93.8526397,12.0073333 93.8526397,11.3633333 L93.8526397,1.9985 C93.8526397,1.3545 93.3280344,0.831833333 92.6816457,0.831833333 Z M50.0480973,91.798 C50.0480973,93.4721667 48.6815473,94.8348333 47,94.8348333 C45.3184527,94.8348333 43.9519027,93.4733333 43.9519027,91.798 C43.9519027,90.1226667 45.3184527,88.7611667 47,88.7611667 C48.6815473,88.7611667 50.0480973,90.1238333 50.0480973,91.798 Z M91.5106517,81.4566667 L2.48934828,81.4566667 L2.48934828,80.255 L91.5106517,80.255 L91.5106517,81.4566667 L91.5106517,81.4566667 Z M89.1101141,77.9228333 L4.8933989,77.9228333 L4.8933989,12.53 L89.1101141,12.53 L89.1101141,77.9228333 Z M91.5106517,10.1966667 L2.48934828,10.1966667 L2.48934828,3.16633333 L91.5106517,3.16633333 L91.5106517,10.1966667 L91.5106517,10.1966667 Z" id="Shape"></path>
                </g>
            </g>
        </g>
    </g>
</svg>