<?xml version="1.0"?>
<svg xmlns="http://www.w3.org/2000/svg" xmlns:xlink="http://www.w3.org/1999/xlink" version="1.1" x="0px" y="0px" viewBox="0 0 100 125" enable-background="new 0 0 100 100" xml:space="preserve">
  <g display="none">
    <path display="inline" fill="#2B4C49" d="M676,1167.403H-640c-1.65,0-3-1.35-3-3V-149.993c0-1.65,1.35-3,3-3H676c1.65,0,3,1.35,3,3   v1314.396C679,1166.053,677.65,1167.403,676,1167.403z"/>
  </g>
  <g>
    <g>
      <path fill="#2B4C49" stroke="#2B4C49" d="M95,39.144c0-1.749-0.747-3.432-2.048-4.616c-1.299-1.182-3.058-1.761-4.792-1.6c-3.168,0.299-5.649,3.137-5.649,6.461    l0.001,11.531c-0.822,0.271-1.575,0.701-2.177,1.305c-0.124,0.114-3.053,2.806-3.731,3.496c-0.47,0.478-0.947,0.974-1.433,1.479    c-2.377,2.474-4.836,5.032-7.652,6.684c-0.656,0.383-1.299,0.737-1.926,1.081c-3.231,1.776-6.283,3.454-8.287,7.578    c-1.734,3.547-2.482,7.805-2.355,13.396l-0.348,7.157c-0.047,0.97,0.726,1.782,1.697,1.782h0.001c0.906,0,1.653-0.711,1.697-1.617    l0.35-7.218c0-0.037,0.001-0.075,0.001-0.112c-0.122-5.062,0.516-8.841,2.011-11.899c1.534-3.156,3.888-4.45,6.869-6.089    c0.653-0.358,1.322-0.727,2.006-1.127c3.224-1.891,5.966-4.744,8.386-7.262c0.476-0.495,0.944-0.982,1.406-1.452    c0.513-0.523,2.777-2.614,3.658-3.425c0.867-0.866,2.394-0.866,3.262,0c0.434,0.434,0.673,1.015,0.674,1.636    c0,0.62-0.237,1.2-0.668,1.631L73.013,70.884c-0.559,0.559-0.659,1.43-0.241,2.101c0.094,0.151,0.222,0.343,0.408,0.546    c0.505,0.551,1.285,0.742,1.968,0.44c0.63-0.278,0.959-0.837,1.001-1.418l0.733-0.733l11.243-11.243    c1.777-1.777,2.377-4.497,1.298-6.767c-0.747-1.571-2.041-2.522-3.514-2.95l-0.001-11.47c0-1.59,1.129-2.942,2.569-3.078    c0.093-0.009,0.185-0.013,0.277-0.013c0.708,0,1.377,0.259,1.909,0.743c0.595,0.542,0.937,1.308,0.937,2.103v26.583    c0,0.675-0.22,1.413-0.741,1.766l-0.837,0.837L76.253,82.102c-0.524,0.523-0.998,0.984-1.481,1.297    c-0.447,0.29-0.776,0.729-0.846,1.257l-1.101,8.3c-0.135,1.018,0.657,1.922,1.684,1.922c0.852,0,1.572-0.631,1.684-1.476    l1.004-7.566c0.575-0.45,1.068-0.943,1.458-1.332l14.623-14.623c0.409-0.409,0.832-0.833,1.228-1.321    c0.359-0.443,0.596-0.501,0.454-1.012c0.107-0.422,0.04-1.367,0.04-1.821V39.144z"/>
      <path fill="#2B4C49" stroke="#2B4C49" d="M5.494,68.561c0.405,0.499,0.851,0.944,1.243,1.336l14.608,14.609c0.389,0.389,0.883,0.882,1.458,1.331l1.003,7.566    c0.112,0.845,0.832,1.476,1.684,1.476h0c1.027,0,1.819-0.904,1.684-1.922l-1.101-8.3c-0.07-0.528-0.399-0.967-0.846-1.257    c-0.483-0.314-0.957-0.774-1.481-1.297L9.976,68.331l-0.837-0.838c-0.521-0.353-0.741-1.09-0.741-1.765V39.144    c0-0.795,0.342-1.561,0.937-2.103c0.532-0.484,1.201-0.743,1.908-0.743c0.092,0,0.184,0.004,0.277,0.013    c1.441,0.136,2.57,1.488,2.57,3.078v11.47c-1.473,0.427-2.768,1.379-3.514,2.95c-1.079,2.27-0.479,4.99,1.299,6.767l11.242,11.242    l0.692,0.692c0.024,0.53,0.298,1.051,0.814,1.38c0.685,0.437,1.561,0.292,2.129-0.289c0.22-0.225,0.37-0.447,0.476-0.618    c0.418-0.671,0.319-1.542-0.241-2.101L14.047,57.945c-0.432-0.432-0.668-1.011-0.668-1.631c0.001-0.621,0.241-1.202,0.674-1.636    c0.867-0.866,2.343-0.916,3.313,0.049c0.829,0.762,3.093,2.854,3.608,3.377c0.461,0.469,0.929,0.956,1.406,1.452    c2.419,2.517,5.16,5.369,8.386,7.261c0.682,0.399,1.352,0.767,2.004,1.125c2.98,1.639,5.335,2.933,6.87,6.092    c1.494,3.054,2.132,6.834,2.01,11.896c0,0.037,0.001,0.075,0.001,0.112l0.35,7.218c0.044,0.905,0.791,1.617,1.697,1.617h0    c0.971,0,1.744-0.812,1.697-1.781l-0.348-7.158c0.128-5.591-0.621-9.849-2.354-13.393c-2.005-4.128-5.057-5.805-8.288-7.581    c-0.627-0.345-1.27-0.698-1.924-1.08c-2.818-1.653-5.276-4.211-7.653-6.684c-0.486-0.506-0.963-1.003-1.433-1.48    c-0.68-0.692-3.607-3.382-3.68-3.447c-0.634-0.634-1.4-1.076-2.229-1.351V39.39c0-3.324-2.481-6.162-5.649-6.461    c-2.829-0.265-5.626,1.415-6.582,4.419C5.073,37.926,5,38.537,5,39.144v26.583c0,0.454-0.067,1.4,0.04,1.821    C4.899,68.06,5.135,68.118,5.494,68.561z"/>
      <g transform="translate(0,0)">
      	<path fill="#2B4C49" stroke="#2B4C49" d="M70.695,26.744c2.687-1.552,3.611-5,2.06-7.688l-1.38-2.391c-1.002-1.736-2.871-2.815-4.876-2.815    c-0.984,0-1.956,0.261-2.811,0.754l-0.912,0.526c-0.03,0.017-0.056,0.021-0.073,0.021c-1.73-1.394-3.617-2.483-5.653-3.25    c-0.01-0.004-0.041-0.042-0.041-0.102v-1.051c0-3.103-2.525-5.628-5.628-5.628h-2.761c-3.103,0-5.628,2.525-5.628,5.628V11.8    c0,0.061-0.031,0.098-0.041,0.102c-2.036,0.767-3.923,1.856-5.609,3.237c-0.025,0.005-0.044,0.007-0.059,0.007    c-0.027,0-0.043-0.006-0.058-0.015l-0.911-0.526c-0.855-0.493-1.827-0.754-2.811-0.754c-2.006,0-3.875,1.078-4.877,2.815    l-1.38,2.391c-1.551,2.687-0.627,6.136,2.06,7.687l0.901,0.521c0.048,0.028,0.07,0.07,0.066,0.095    c-0.178,1.071-0.268,2.161-0.268,3.24s0.09,2.169,0.268,3.24c0.004,0.025-0.017,0.068-0.066,0.095l-0.901,0.521    c-2.687,1.552-3.611,5-2.06,7.687l1.38,2.391c1.002,1.736,2.871,2.815,4.876,2.815c0.984,0,1.956-0.261,2.811-0.754l0.912-0.526    c0.03-0.017,0.056-0.021,0.073-0.021c1.73,1.394,3.617,2.483,5.653,3.25c0.01,0.004,0.041,0.042,0.041,0.102v1.051    c0,3.103,2.525,5.628,5.628,5.628h2.761c3.103,0,5.628-2.525,5.628-5.628v-1.051c0-0.061,0.031-0.098,0.041-0.102    c2.035-0.767,3.922-1.856,5.609-3.237c0.025-0.004,0.044-0.006,0.059-0.006c0.027,0,0.043,0.006,0.058,0.015l0.911,0.526    c0.855,0.493,1.827,0.754,2.811,0.754c2.006,0,3.875-1.079,4.877-2.815l1.38-2.391c1.551-2.687,0.627-6.136-2.06-7.687    l-0.901-0.521c-0.048-0.028-0.07-0.07-0.066-0.095c0.178-1.071,0.268-2.161,0.268-3.24s-0.09-2.169-0.268-3.24    c-0.004-0.026,0.017-0.068,0.066-0.096L70.695,26.744z M69.174,24.109l-0.901,0.521c-1.135,0.655-1.76,1.935-1.545,3.228    c0.148,0.892,0.227,1.808,0.227,2.742s-0.079,1.85-0.227,2.742c-0.214,1.292,0.411,2.572,1.545,3.228l0.901,0.521    c1.237,0.714,1.661,2.296,0.947,3.533l-1.38,2.391c-0.479,0.83-1.348,1.294-2.242,1.294c-0.439,0-0.883-0.112-1.291-0.347    l-0.911-0.526c-0.496-0.286-1.046-0.428-1.594-0.428c-0.704,0-1.403,0.235-1.972,0.701c-1.412,1.157-3.014,2.089-4.753,2.744    c-1.22,0.46-2.01,1.645-2.01,2.949v1.051c0,1.428-1.158,2.586-2.586,2.586h-2.761c-1.428,0-2.586-1.158-2.586-2.586v-1.051    c0-1.304-0.79-2.489-2.01-2.949c-1.739-0.655-3.341-1.587-4.753-2.744c-0.569-0.466-1.268-0.701-1.972-0.701    c-0.547,0-1.098,0.142-1.594,0.428l-0.912,0.526c-0.407,0.235-0.852,0.347-1.29,0.347c-0.894,0-1.763-0.464-2.242-1.293    l-1.381-2.392c-0.714-1.237-0.29-2.818,0.946-3.533l0.901-0.521c1.135-0.655,1.76-1.935,1.545-3.228    c-0.148-0.892-0.227-1.808-0.227-2.742s0.079-1.85,0.227-2.742c0.215-1.292-0.411-2.572-1.545-3.228l-0.901-0.521    c-1.237-0.714-1.66-2.296-0.946-3.533l1.38-2.391c0.479-0.83,1.348-1.294,2.242-1.294c0.439,0,0.883,0.112,1.291,0.347    l0.911,0.526c0.496,0.286,1.046,0.428,1.594,0.428c0.704,0,1.403-0.235,1.972-0.701c1.412-1.157,3.014-2.089,4.753-2.744    c1.22-0.46,2.01-1.645,2.01-2.949v-1.051c0-1.428,1.158-2.586,2.586-2.586h2.761c1.428,0,2.586,1.158,2.586,2.586V11.8    c0,1.304,0.79,2.489,2.01,2.949c1.739,0.655,3.341,1.587,4.753,2.744c0.569,0.466,1.268,0.701,1.972,0.701    c0.547,0,1.098-0.142,1.594-0.428l0.912-0.526c0.407-0.235,0.852-0.347,1.29-0.347c0.894,0,1.763,0.464,2.242,1.293l1.381,2.392    C70.835,21.814,70.411,23.395,69.174,24.109z"/>
      	<path fill="#2B4C49" stroke="#2B4C49" d="M50,20.716c-5.45,0-9.883,4.434-9.883,9.884S44.55,40.483,50,40.483s9.884-4.434,9.884-9.884S55.45,20.716,50,20.716z     M50,37.441c-3.779,0-6.842-3.063-6.842-6.842s3.063-6.842,6.842-6.842s6.842,3.063,6.842,6.842S53.779,37.441,50,37.441z"/>
      </g>
    </g>
  </g>
</svg>