<svg xmlns="http://www.w3.org/2000/svg" xmlns:xlink="http://www.w3.org/1999/xlink" version="1.1" x="0px" y="0px" viewBox="551 -550.9 1133.9 1417.375" style="enable-background:new 551 -550.9 1133.9 1133.9;" xml:space="preserve"><path d="M1517.9-320c-3.3-3.3-8.2-4.4-12.6-3L722.9-69.6c-4.5,1.5-7.8,5.4-8.5,10.1c-0.7,4.7,1.4,9.4,5.3,12.1L903.8,78.9  l38.7,249.5c0,0.3,0.1,0.6,0.2,0.8c0,0.1,0,0.2,0.1,0.3c0.1,0.3,0.2,0.6,0.3,0.9c0,0.1,0.1,0.3,0.2,0.4c0.1,0.2,0.2,0.4,0.3,0.6  c0.1,0.1,0.1,0.3,0.2,0.4c0.1,0.2,0.2,0.4,0.3,0.6c0.1,0.1,0.2,0.3,0.2,0.4c0.1,0.2,0.3,0.4,0.4,0.6c0.1,0.1,0.1,0.2,0.2,0.3  c0.2,0.3,0.5,0.6,0.7,0.9c0.1,0.1,0.1,0.1,0.2,0.2c0.2,0.2,0.4,0.4,0.6,0.6c0,0,0.1,0.1,0.1,0.1c0.1,0,0.1,0.1,0.2,0.1  c0.2,0.2,0.4,0.3,0.6,0.5c0.1,0.1,0.2,0.2,0.3,0.2c0.2,0.1,0.4,0.3,0.6,0.4c0.1,0.1,0.2,0.1,0.3,0.2c0.3,0.2,0.5,0.3,0.8,0.4  c0.2,0.1,0.3,0.2,0.5,0.2c0.2,0.1,0.4,0.2,0.6,0.3c0.2,0.1,0.3,0.1,0.5,0.2c0.2,0.1,0.4,0.1,0.5,0.2c0.2,0,0.3,0.1,0.5,0.1  c0.2,0,0.4,0.1,0.6,0.1c0.2,0,0.3,0.1,0.5,0.1c0.1,0,0.2,0,0.3,0.1c0.1,0,0.2,0,0.3,0c0.2,0,0.3,0,0.5,0c0.2,0,0.4,0,0.6,0  c0.1,0,0.2,0,0.3,0c0.1,0,0.1,0,0.2,0c0.3,0,0.6,0,0.9,0c0.1,0,0.2,0,0.3,0c0.4,0,0.8-0.1,1.1-0.2c0.1,0,0.2-0.1,0.3-0.1  c0.3-0.1,0.5-0.1,0.8-0.2c0.2,0,0.3-0.1,0.5-0.1c0.2-0.1,0.4-0.1,0.6-0.2c0.2-0.1,0.3-0.1,0.5-0.2c0.3-0.1,0.5-0.2,0.7-0.4  c0.2-0.1,0.4-0.2,0.5-0.3c0.2-0.1,0.4-0.3,0.7-0.4c0.1-0.1,0.3-0.2,0.4-0.3c0.2-0.2,0.4-0.3,0.6-0.5c0.1-0.1,0.2-0.2,0.3-0.2  c0.3-0.3,0.6-0.6,0.9-0.9c0,0,0,0,0,0l120.7-131.8l219.3,150.5c2.1,1.4,4.6,2.2,7.1,2.2c1.4,0,2.8-0.2,4.1-0.7  c3.8-1.3,6.7-4.4,7.8-8.2l198-654.3C1522.5-311.9,1521.2-316.8,1517.9-320z M1426.1-271.1L915.5,56.6L754.8-53.7L1426.1-271.1z   M1024.2,143.4c-0.1,0.1-0.1,0.2-0.2,0.2c-0.1,0.1-0.3,0.3-0.4,0.4c-0.2,0.2-0.3,0.4-0.5,0.6c-0.1,0.1-0.2,0.3-0.3,0.4  c-0.2,0.2-0.3,0.5-0.5,0.7c-0.1,0.1-0.2,0.2-0.2,0.4c-0.2,0.3-0.3,0.6-0.4,0.9c0,0.1-0.1,0.1-0.1,0.2l-0.1,0.2c0,0,0,0,0,0  l-60.7,135.3L928.9,77.7l478-306.7L1024.2,143.4z M997.9,260.9l40.3-89.8l25.8,17.7L997.9,260.9z M1304.1,323.2l-251.6-172.6  l430.6-419L1304.1,323.2z" fill="#2B4C49" stroke="#2B4C49" stroke-width="5" /></svg>