
<svg width="288px" height="288px" viewBox="0 0 288 288" version="1.1" xmlns="http://www.w3.org/2000/svg" xmlns:xlink="http://www.w3.org/1999/xlink">
    <!-- Generator: Sketch 48.2 (47327) - http://www.bohemiancoding.com/sketch -->
    <desc>Created with Sketch.</desc>
    <defs>
        <circle id="path-1" cx="144" cy="144" r="144"></circle>
        <filter x="-0.5%" y="-0.5%" width="101.0%" height="101.0%" filterUnits="objectBoundingBox" id="filter-2">
            <feGaussianBlur stdDeviation="1" in="SourceAlpha" result="shadowBlurInner1"></feGaussianBlur>
            <feOffset dx="0" dy="1" in="shadowBlurInner1" result="shadowOffsetInner1"></feOffset>
            <feComposite in="shadowOffsetInner1" in2="SourceAlpha" operator="arithmetic" k2="-1" k3="1" result="shadowInnerInner1"></feComposite>
            <feColorMatrix values="0 0 0 0 1   0 0 0 0 0.992156863   0 0 0 0 0.968627451  0 0 0 0.5 0" type="matrix" in="shadowInnerInner1"></feColorMatrix>
        </filter>
    </defs>
    <g id="Welcome" stroke="none" stroke-width="1" fill="none" fill-rule="evenodd">
        <g id="Desktop" transform="translate(-141.000000, -1555.000000)">
            <g id="Group-21-Copy-2" transform="translate(141.000000, 1555.000000)">
                <g id="Oval-Copy">
                    <use fill-opacity="0.33129529" fill="#D8D8D8" fill-rule="evenodd" xlink:href="#path-1"></use>
                    <use fill="black" fill-opacity="1" filter="url(#filter-2)" xlink:href="#path-1"></use>
                </g>
            </g>
            <g id="us" transform="translate(194.000000, 1638.000000)" fill="#766E6E" fill-rule="nonzero" stroke="#766E6E" stroke-width="2">
                <g id="Group" transform="translate(3.000000, 0.000000)">
                    <path d="M87,97.8465838 C87,97.8465838 122.0896,82.8299612 122.0896,61.2865061 C122.0896,39.7430509 122.0896,24.7264284 122.0896,24.7264284 C122.0896,24.7264284 119.9672,25.0208719 116.652,25.0208719 C109.3048,25.0208719 96.0832,23.5759173 87,14.279134 C77.9168,23.5759173 64.6952,25.0208719 57.348,25.0208719 C54.0272,25.0208719 51.9104,24.7264284 51.9104,24.7264284 C51.9104,24.7264284 51.9104,39.7430509 51.9104,61.2865061 C51.9104,82.8299612 87,97.8465838 87,97.8465838 Z M57.5104,30.4735308 C64.6056,30.4517202 76.976,29.1703453 87,21.6020548 C97.024,29.1648927 109.3944,30.4517202 116.4896,30.4680782 L116.4896,61.2810534 C116.4896,74.858174 96.9456,87.0448665 87,91.8213957 C77.0544,87.0448665 57.5104,74.858174 57.5104,61.2810534 L57.5104,30.4735308 Z" id="Shape"></path>
                    <polygon id="Shape" points="103.7496 43.9143349 99.1128 40.8499406 83.6344 63.0422622 74.3104 55.9538057 70.8664 60.2505009 84.9056 70.9268069"></polygon>
                    <path d="M13.6904,111.723601 L58.3224,111.723601 L58.3224,133.528783 L42.3288,133.528783 L42.3288,138.981442 L131.6656,138.981442 L131.6656,133.528783 L115.6776,133.528783 L115.6776,111.723601 L160.3096,111.723601 C167.7296,111.723601 173.8,105.812918 173.8,98.5881454 L173.8,13.8756372 C173.8,6.65086423 167.7296,0.740182017 160.3096,0.740182017 L13.6904,0.740182017 C6.2704,0.740182017 0.2,6.65086423 0.2,13.8756372 L0.2,98.5826927 C0.2,105.807466 6.2704,111.723601 13.6904,111.723601 Z M110.0776,133.528783 L63.9224,133.528783 L63.9224,111.723601 L110.0776,111.723601 L110.0776,133.528783 Z M5.8,13.8756372 C5.8,9.63892129 9.3392,6.19284088 13.6904,6.19284088 L160.304,6.19284088 C164.6552,6.19284088 168.1944,9.63892129 168.1944,13.8756372 L168.1944,98.5826927 C168.1944,102.819409 164.6552,106.265489 160.304,106.265489 L13.6904,106.265489 C9.3392,106.265489 5.8,102.819409 5.8,98.5826927 L5.8,13.8756372 Z" id="Shape"></path>
                </g>
            </g>
        </g>
    </g>
</svg>