
<svg width="288px" height="288px" viewBox="0 0 288 288" version="1.1" xmlns="http://www.w3.org/2000/svg" xmlns:xlink="http://www.w3.org/1999/xlink">
    <!-- Generator: Sketch 48.2 (47327) - http://www.bohemiancoding.com/sketch -->
    <desc>Created with Sketch.</desc>
    <defs>
        <circle id="path-1" cx="144" cy="144" r="144"></circle>
        <filter x="-0.5%" y="-0.5%" width="101.0%" height="101.0%" filterUnits="objectBoundingBox" id="filter-2">
            <feGaussianBlur stdDeviation="1" in="SourceAlpha" result="shadowBlurInner1"></feGaussianBlur>
            <feOffset dx="0" dy="1" in="shadowBlurInner1" result="shadowOffsetInner1"></feOffset>
            <feComposite in="shadowOffsetInner1" in2="SourceAlpha" operator="arithmetic" k2="-1" k3="1" result="shadowInnerInner1"></feComposite>
            <feColorMatrix values="0 0 0 0 1   0 0 0 0 0.992156863   0 0 0 0 0.968627451  0 0 0 0.5 0" type="matrix" in="shadowInnerInner1"></feColorMatrix>
        </filter>
    </defs>
    <g id="Welcome" stroke="none" stroke-width="1" fill="none" fill-rule="evenodd">
        <g id="Desktop" transform="translate(-638.000000, -1117.000000)">
            <g id="Group-30" transform="translate(638.000000, 1117.000000)">
                <g id="Group-21">
                    <g id="Oval-Copy">
                        <use fill-opacity="0.33129529" fill="#D8D8D8" fill-rule="evenodd" xlink:href="#path-1"></use>
                        <use fill="black" fill-opacity="1" filter="url(#filter-2)" xlink:href="#path-1"></use>
                    </g>
                    <path d="M206,246 L206,189.603175 L206,153.984127 L206,124.301587 C206,88.2373016 176.673864,59 140.5,59 C130.703758,59 121.409714,61.1442061 113.064306,64.9875343 C90.5932384,75.3361818 75,98.003869 75,124.301587 L75,162.888889 L89.8863636,162.888889 L89.8863636,201.47619 L137.522727,201.47619 L137.522727,243.031746 L113.704545,243.031746" id="Shape" stroke="#766E6E" stroke-width="7"></path>
                    <path d="M131.568182,201.47619 L149.431818,201.47619" id="Shape" stroke="#766E6E" stroke-width="7"></path>
                    <path d="M184.655932,103.787984 C184.950682,102.755032 185.159091,101.683492 185.159091,100.555556 C185.159091,93.9986825 179.826795,88.6825397 173.25,88.6825397 C172.199023,88.6825397 171.198659,88.8606349 170.228068,89.1159048 C170.234023,88.9674921 170.272727,88.8309524 170.272727,88.6825397 C170.272727,82.1256667 164.940432,76.8095238 158.363636,76.8095238 C155.8925,76.8095238 153.6,77.5604921 151.697523,78.8427778 C150.071932,74.2152698 145.698318,70.8730159 140.5,70.8730159 C135.301682,70.8730159 130.928068,74.2152698 129.302477,78.8427778 C127.4,77.5604921 125.1075,76.8095238 122.636364,76.8095238 C116.059568,76.8095238 110.727273,82.1256667 110.727273,88.6825397 C104.150477,88.6825397 98.8181818,93.9986825 98.8181818,100.555556 C98.8181818,101.683492 99.0265909,102.755032 99.3213409,103.787984 C93.9324773,104.924825 89.8863636,109.685905 89.8863636,115.396825 C89.8863636,121.953698 95.2186591,127.269841 101.795455,127.269841 L182.181818,127.269841 C188.758614,127.269841 194.090909,121.953698 194.090909,115.396825 C194.090909,109.685905 190.044795,104.924825 184.655932,103.787984 Z" id="Shape" stroke="#766E6E" stroke-width="7"></path>
                    <path d="M110.727273,106.492063 L128.590909,106.492063" id="Shape" stroke="#766E6E" stroke-width="7"></path>
                    <path d="M131.568182,91.6507937 C143.477273,91.6507937 149.431818,91.6507937 149.431818,91.6507937" id="Shape" stroke="#766E6E" stroke-width="7"></path>
                    <path d="M149.431818,109.460317 L167.295455,109.460317" id="Shape" stroke="#766E6E" stroke-width="7"></path>
                    <path d="M155.386364,139.142857 L161.340909,139.142857" id="Shape" stroke="#766E6E" stroke-width="7"></path>
                    <path d="M167.295455,139.142857 L173.25,139.142857" id="Shape" stroke="#766E6E" stroke-width="7"></path>
                    <path d="M179.204545,139.142857 L185.159091,139.142857" id="Shape" stroke="#766E6E" stroke-width="7"></path>
                </g>
            </g>
        </g>
    </g>
</svg>