<svg xmlns="http://www.w3.org/2000/svg" xmlns:xlink="http://www.w3.org/1999/xlink" version="1.1" x="0px" y="0px" viewBox="0 0 100 125" enable-background="new 0 0 100 100" xml:space="preserve"><g display="none"><rect x="-506.282" y="-181.809" display="inline" fill="#204848" width="1230" height="692.218"/></g><g><g><path fill="#204848" d="M77.71,32.709C77.71,17.43,65.279,5,50,5S22.29,17.43,22.29,32.709v34.581C22.29,82.57,34.721,95,50,95    c10.605,0,19.833-5.991,24.489-14.763l0.017,0.01l0.796-1.414l0.796-1.414l-0.257-0.144c1.202-3.1,1.868-6.464,1.868-9.984V32.709    z M50,90.73c-12.925,0-23.44-10.515-23.44-23.439v-14.04l44.207,24.89C66.845,85.616,59.011,90.73,50,90.73z M73.44,67.291    c0,2.758-0.483,5.405-1.362,7.865L51.409,63.518L73.44,50.75V67.291z M73.44,46.999L48.126,61.67L26.56,49.527V32.709    C26.56,19.785,37.075,9.27,50,9.27s23.44,10.515,23.44,23.439V46.999z"/><path fill="#204848" d="M50,15.065c-9.727,0-17.639,7.913-17.639,17.639c0,9.726,7.913,17.639,17.639,17.639    s17.639-7.913,17.639-17.639C67.639,22.977,59.727,15.065,50,15.065z M50,47.098c-7.937,0-14.394-6.457-14.394-14.394    c0-7.937,6.457-14.394,14.394-14.394s14.394,6.457,14.394,14.394C64.394,40.641,57.937,47.098,50,47.098z"/><path fill="#204848" d="M50,28.495c-3.846,0-6.974,3.129-6.974,6.974c0,3.846,3.129,6.974,6.974,6.974    c3.845,0,6.974-3.129,6.974-6.974C56.974,31.623,53.845,28.495,50,28.495z M50,39.299c-2.112,0-3.831-1.719-3.831-3.831    s1.719-3.831,3.831-3.831s3.83,1.719,3.83,3.831S52.112,39.299,50,39.299z"/><circle fill="#204848" cx="50" cy="35.469" r="1.918"/><circle fill="#204848" cx="41.488" cy="29.664" r="1.758"/><circle fill="#204848" cx="58.512" cy="29.664" r="1.758"/></g></g></svg>